<svg width="24" height="24" viewBox="0 0 24 24" fill="none" xmlns="http://www.w3.org/2000/svg">
<path d="M19.161 5.05858C19.1266 5.02964 19.085 5.01054 19.0406 5.00328C18.9962 4.99602 18.9507 5.00087 18.9088 5.01733L4.9088 10.5173C4.86685 10.5338 4.83014 10.5613 4.80253 10.5969C4.77493 10.6325 4.75746 10.6749 4.75198 10.7196C4.7465 10.7644 4.7532 10.8097 4.77139 10.851C4.78958 10.8922 4.81857 10.9277 4.8553 10.9538L7.1158 12.5613L12.8333 9.91333L8.25005 13.3681V18.7501C8.24983 18.7968 8.2627 18.8426 8.28718 18.8823C8.31166 18.9221 8.34679 18.9542 8.38857 18.975C8.43036 18.9958 8.47714 19.0045 8.52362 19.0001C8.5701 18.9957 8.61441 18.9784 8.65155 18.9501L12.2465 16.2101L16.1053 18.9538C16.1475 18.984 16.1981 19.0002 16.25 19.0001C16.2814 19 16.3125 18.9942 16.3418 18.9828C16.3805 18.9675 16.4148 18.9427 16.4415 18.9108C16.4682 18.8788 16.4866 18.8407 16.4948 18.7998L19.2448 5.29983C19.2538 5.2558 19.2508 5.21016 19.236 5.1677C19.2213 5.12525 19.1954 5.08755 19.161 5.05858Z" fill="#61798B"/>
</svg>
