<svg width="24" height="24" viewBox="0 0 24 24" fill="none" xmlns="http://www.w3.org/2000/svg">
<path d="M12 3.39188C14.8035 3.39188 15.1357 3.40275 16.2427 3.453C16.9086 3.46109 17.5682 3.58336 18.1927 3.8145C18.6455 3.98934 19.0567 4.25694 19.3998 4.60013C19.743 4.94332 20.0106 5.35449 20.1855 5.80725C20.4166 6.43179 20.5389 7.09136 20.547 7.75725C20.5972 8.86425 20.6081 9.1965 20.6081 12C20.6081 14.8035 20.5972 15.1357 20.547 16.2428C20.5389 16.9086 20.4166 17.5682 20.1855 18.1927C20.0106 18.6455 19.743 19.0567 19.3998 19.3999C19.0567 19.7431 18.6455 20.0107 18.1927 20.1855C17.5682 20.4166 16.9086 20.5389 16.2427 20.547C15.1357 20.5972 14.8039 20.6081 12 20.6081C9.1961 20.6081 8.86423 20.5972 7.75723 20.547C7.09134 20.5389 6.43177 20.4166 5.80723 20.1855C5.35447 20.0107 4.94329 19.7431 4.60011 19.3999C4.25692 19.0567 3.98931 18.6455 3.81448 18.1927C3.58334 17.5682 3.46106 16.9086 3.45298 16.2428C3.40273 15.1357 3.39185 14.8035 3.39185 12C3.39185 9.1965 3.40273 8.86425 3.45298 7.75725C3.46106 7.09136 3.58334 6.43179 3.81448 5.80725C3.98931 5.35449 4.25692 4.94332 4.60011 4.60013C4.94329 4.25694 5.35447 3.98934 5.80723 3.8145C6.43177 3.58336 7.09134 3.46109 7.75723 3.453C8.86423 3.40275 9.19648 3.39188 12 3.39188ZM12 1.5C9.14998 1.5 8.79073 1.512 7.67098 1.563C6.79953 1.58014 5.9373 1.74498 5.12098 2.0505C4.42368 2.32061 3.79046 2.73334 3.26186 3.26227C2.73326 3.79119 2.32091 4.42466 2.05123 5.12213C1.74571 5.93845 1.58087 6.80067 1.56373 7.67212C1.51198 8.79075 1.49998 9.15 1.49998 12C1.49998 14.85 1.51198 15.2092 1.56298 16.329C1.58012 17.2004 1.74496 18.0627 2.05048 18.879C2.32037 19.5764 2.73293 20.2098 3.26173 20.7386C3.79053 21.2674 4.42392 21.68 5.12135 21.9499C5.93767 22.2554 6.7999 22.4202 7.67135 22.4374C8.79073 22.488 9.14998 22.5 12 22.5C14.85 22.5 15.2092 22.488 16.329 22.437C17.2004 22.4199 18.0627 22.255 18.879 21.9495C19.5764 21.6796 20.2098 21.267 20.7386 20.7382C21.2674 20.2094 21.68 19.5761 21.9499 18.8786C22.2554 18.0623 22.4202 17.2001 22.4374 16.3286C22.488 15.2092 22.5 14.85 22.5 12C22.5 9.15 22.488 8.79075 22.437 7.671C22.4198 6.79955 22.255 5.93732 21.9495 5.121C21.6794 4.4237 21.2666 3.79048 20.7377 3.26188C20.2088 2.73328 19.5753 2.32094 18.8779 2.05125C18.0615 1.74573 17.1993 1.58089 16.3279 1.56375C15.2092 1.512 14.85 1.5 12 1.5Z" fill="#1A2847"/>
<path d="M12 6.60815C10.9336 6.60815 9.89112 6.92437 9.00446 7.51683C8.11779 8.10928 7.42671 8.95136 7.01862 9.93657C6.61054 10.9218 6.50376 12.0059 6.7118 13.0518C6.91985 14.0977 7.43336 15.0584 8.18741 15.8124C8.94146 16.5665 9.90218 17.08 10.9481 17.2881C11.994 17.4961 13.0781 17.3893 14.0633 16.9812C15.0485 16.5731 15.8906 15.8821 16.483 14.9954C17.0755 14.1087 17.3917 13.0663 17.3917 11.9999C17.3917 10.5699 16.8236 9.19851 15.8125 8.18736C14.8013 7.17621 13.4299 6.60815 12 6.60815ZM12 15.4998C11.3077 15.4998 10.6311 15.2945 10.0555 14.9099C9.47997 14.5254 9.03139 13.9788 8.76649 13.3392C8.50159 12.6997 8.43228 11.996 8.56733 11.3171C8.70237 10.6382 9.0357 10.0146 9.52517 9.52512C10.0146 9.03565 10.6383 8.70232 11.3172 8.56728C11.9961 8.43223 12.6998 8.50154 13.3393 8.76644C13.9788 9.03134 14.5254 9.47993 14.91 10.0555C15.2946 10.631 15.4998 11.3077 15.4998 11.9999C15.4999 12.4595 15.4094 12.9147 15.2335 13.3393C15.0576 13.764 14.7998 14.1498 14.4748 14.4748C14.1498 14.7998 13.764 15.0576 13.3394 15.2335C12.9147 15.4093 12.4596 15.4998 12 15.4998Z" fill="#1A2847"/>
<path d="M17.6047 7.65525C18.3006 7.65525 18.8647 7.09113 18.8647 6.39525C18.8647 5.69938 18.3006 5.13525 17.6047 5.13525C16.9088 5.13525 16.3447 5.69938 16.3447 6.39525C16.3447 7.09113 16.9088 7.65525 17.6047 7.65525Z" fill="#1A2847"/>
<path d="M7.671 1.563C8.79075 1.512 9.15 1.5 12 1.5C14.85 1.5 15.2092 1.512 16.3279 1.56375C17.1993 1.58089 18.0616 1.74573 18.8779 2.05125C19.5753 2.32094 20.2088 2.73328 20.7377 3.26188C21.2667 3.79048 21.6794 4.4237 21.9495 5.121C22.255 5.93732 22.4199 6.79955 22.437 7.671C22.488 8.79075 22.5 9.15 22.5 12C22.5 14.85 22.488 15.2092 22.4374 16.3286C22.4202 17.2001 22.2554 18.0623 21.9499 18.8786C21.68 19.5761 21.2674 20.2094 20.7386 20.7382C20.2098 21.267 19.5764 21.6796 18.879 21.9495C18.0627 22.255 17.2004 22.4199 16.329 22.437C15.2092 22.488 14.85 22.5 12 22.5C9.15 22.5 8.79075 22.488 7.67138 22.4374C6.79992 22.4202 5.93769 22.2554 5.12137 21.9499C4.42394 21.68 3.79055 21.2674 3.26175 20.7386C2.73295 20.2098 2.3204 19.5764 2.0505 18.879C1.74498 18.0627 1.58014 17.2004 1.563 16.329C1.512 15.2092 1.5 14.85 1.5 12C1.5 9.15 1.512 8.79075 1.56375 7.67212C1.58089 6.80067 1.74573 5.93844 2.05125 5.12213C2.32094 4.42466 2.73328 3.79119 3.26188 3.26227C3.79048 2.73334 4.4237 2.32061 5.121 2.0505C5.93732 1.74498 6.79955 1.58014 7.671 1.563Z" fill="#1A2847"/>
<path d="M19.1958 5.89867C19.1958 6.59455 18.6316 7.15867 17.9358 7.15867C17.2399 7.15867 16.6758 6.59455 16.6758 5.89867C16.6758 5.20279 17.2399 4.63867 17.9358 4.63867C18.6316 4.63867 19.1958 5.20279 19.1958 5.89867Z" fill="white"/>
<path fill-rule="evenodd" clip-rule="evenodd" d="M9.00449 7.51711C9.89116 6.92466 10.9336 6.60844 12 6.60844C13.43 6.60844 14.8014 7.1765 15.8125 8.18765C16.8237 9.1988 17.3917 10.5702 17.3917 12.0002C17.3917 13.0666 17.0755 14.109 16.4831 14.9957C15.8906 15.8824 15.0485 16.5734 14.0633 16.9815C13.0781 17.3896 11.994 17.4964 10.9481 17.2883C9.90221 17.0803 8.94149 16.5668 8.18744 15.8127C7.43339 15.0587 6.91988 14.098 6.71183 13.0521C6.50379 12.0062 6.61057 10.9221 7.01866 9.93686C7.42674 8.95164 8.11782 8.10957 9.00449 7.51711ZM10.0556 14.9102C10.6311 15.2948 11.3078 15.5001 12 15.5001C12.4596 15.5001 12.9147 15.4096 13.3394 15.2338C13.764 15.0579 14.1499 14.8001 14.4749 14.4751C14.7999 14.1501 15.0577 13.7642 15.2335 13.3396C15.4094 12.9149 15.4999 12.4598 15.4999 12.0002C15.4999 11.308 15.2946 10.6313 14.91 10.0558C14.5255 9.48021 13.9788 9.03162 13.3393 8.76673C12.6998 8.50183 11.9961 8.43252 11.3172 8.56756C10.6383 8.70261 10.0147 9.03594 9.5252 9.5254C9.03573 10.0149 8.7024 10.6385 8.56736 11.3174C8.43231 11.9963 8.50162 12.7 8.76652 13.3395C9.03142 13.9791 9.48001 14.5257 10.0556 14.9102Z" fill="white"/>
</svg>
