<svg width="24" height="24" viewBox="0 0 24 24" fill="none" xmlns="http://www.w3.org/2000/svg">
<circle cx="12" cy="12" r="12" fill="#EAF5FF"/>
<rect x="7" y="7" width="10" height="10" rx="1" fill="#1889E9"/>
<path d="M12 7.08107C13.602 7.08107 13.7919 7.08729 14.4244 7.116C14.8049 7.12062 15.1818 7.19049 15.5387 7.32257C15.7974 7.42248 16.0324 7.5754 16.2285 7.7715C16.4246 7.96761 16.5775 8.20257 16.6774 8.46129C16.8095 8.81817 16.8794 9.19506 16.884 9.57557C16.9127 10.2081 16.9189 10.398 16.9189 12C16.9189 13.602 16.9127 13.7919 16.884 14.4244C16.8794 14.8049 16.8095 15.1818 16.6774 15.5387C16.5775 15.7974 16.4246 16.0324 16.2285 16.2285C16.0324 16.4246 15.7974 16.5775 15.5387 16.6774C15.1818 16.8095 14.8049 16.8794 14.4244 16.884C13.7919 16.9127 13.6022 16.9189 12 16.9189C10.3978 16.9189 10.2081 16.9127 9.57557 16.884C9.19506 16.8794 8.81817 16.8095 8.46129 16.6774C8.20257 16.5775 7.96761 16.4246 7.7715 16.2285C7.5754 16.0324 7.42248 15.7974 7.32257 15.5387C7.19049 15.1818 7.12062 14.8049 7.116 14.4244C7.08729 13.7919 7.08107 13.602 7.08107 12C7.08107 10.398 7.08729 10.2081 7.116 9.57557C7.12062 9.19506 7.19049 8.81817 7.32257 8.46129C7.42248 8.20257 7.5754 7.96761 7.7715 7.7715C7.96761 7.5754 8.20257 7.42248 8.46129 7.32257C8.81817 7.19049 9.19506 7.12062 9.57557 7.116C10.2081 7.08729 10.398 7.08107 12 7.08107ZM12 6C10.3714 6 10.1661 6.00686 9.52629 6.036C9.02831 6.0458 8.53561 6.13999 8.06914 6.31457C7.67069 6.46892 7.30885 6.70477 7.00679 7.00701C6.70473 7.30925 6.46911 7.67124 6.315 8.06979C6.14042 8.53625 6.04622 9.02896 6.03643 9.52693C6.00686 10.1661 6 10.3714 6 12C6 13.6286 6.00686 13.8339 6.036 14.4737C6.0458 14.9717 6.13999 15.4644 6.31457 15.9309C6.4688 16.3294 6.70454 16.6913 7.00671 16.9935C7.30889 17.2957 7.67082 17.5314 8.06936 17.6856C8.53583 17.8602 9.02853 17.9544 9.5265 17.9642C10.1661 17.9931 10.3714 18 12 18C13.6286 18 13.8339 17.9931 14.4737 17.964C14.9717 17.9542 15.4644 17.86 15.9309 17.6854C16.3294 17.5312 16.6913 17.2955 16.9935 16.9933C17.2957 16.6911 17.5314 16.3292 17.6856 15.9306C17.8602 15.4642 17.9544 14.9715 17.9642 14.4735C17.9931 13.8339 18 13.6286 18 12C18 10.3714 17.9931 10.1661 17.964 9.52629C17.9542 9.02831 17.86 8.53561 17.6854 8.06914C17.5311 7.67069 17.2952 7.30885 16.993 7.00679C16.6907 6.70473 16.3288 6.46911 15.9302 6.315C15.4637 6.14042 14.971 6.04622 14.4731 6.03643C13.8339 6.00686 13.6286 6 12 6Z" fill="#1889E9"/>
<path d="M12 8.91895C11.3907 8.91895 10.795 9.09964 10.2883 9.43819C9.78164 9.77673 9.38674 10.2579 9.15355 10.8209C8.92036 11.3839 8.85934 12.0034 8.97822 12.601C9.0971 13.1987 9.39054 13.7477 9.82143 14.1785C10.2523 14.6094 10.8013 14.9029 11.3989 15.0217C11.9966 15.1406 12.6161 15.0796 13.1791 14.8464C13.742 14.6132 14.2232 14.2183 14.5618 13.7117C14.9003 13.205 15.081 12.6093 15.081 11.9999C15.081 11.1828 14.7564 10.3991 14.1786 9.82135C13.6008 9.24355 12.8172 8.91895 12 8.91895ZM12 13.9999C11.6045 13.9999 11.2178 13.8826 10.8889 13.6628C10.56 13.4431 10.3037 13.1307 10.1523 12.7653C10.001 12.3998 9.96135 11.9977 10.0385 11.6098C10.1157 11.2218 10.3062 10.8655 10.5859 10.5858C10.8656 10.3061 11.2219 10.1156 11.6099 10.0384C11.9978 9.96128 12.3999 10.0009 12.7654 10.1523C13.1308 10.3036 13.4431 10.56 13.6629 10.8888C13.8827 11.2177 14 11.6044 14 11.9999C14 12.2626 13.9483 12.5227 13.8478 12.7653C13.7473 13.008 13.6 13.2285 13.4142 13.4142C13.2285 13.5999 13.0081 13.7472 12.7654 13.8477C12.5227 13.9482 12.2627 13.9999 12 13.9999Z" fill="white"/>
<path d="M15.5445 9.37948C16.0015 9.37948 16.372 9.00903 16.372 8.55205C16.372 8.09507 16.0015 7.72461 15.5445 7.72461C15.0876 7.72461 14.7171 8.09507 14.7171 8.55205C14.7171 9.00903 15.0876 9.37948 15.5445 9.37948Z" fill="white"/>
</svg>
