<svg width="23" height="23" viewBox="0 0 23 23" fill="none" xmlns="http://www.w3.org/2000/svg">
<path fill-rule="evenodd" clip-rule="evenodd" d="M11.5 1.4375C8.76875 1.4375 8.42447 1.449 7.35137 1.49788C6.51623 1.5143 5.68993 1.67227 4.90762 1.96506C4.23938 2.22392 3.63255 2.61945 3.12597 3.12634C2.61939 3.63323 2.22423 4.2403 1.96578 4.9087C1.67299 5.69101 1.51502 6.51731 1.49859 7.35245C1.449 8.42447 1.4375 8.76875 1.4375 11.5C1.4375 14.2312 1.449 14.5755 1.49788 15.6486C1.5143 16.4838 1.67227 17.3101 1.96506 18.0924C2.22371 18.7607 2.61908 19.3677 3.12584 19.8745C3.63261 20.3813 4.23961 20.7766 4.90798 21.0353C5.69029 21.3281 6.51659 21.4861 7.35173 21.5025C8.42447 21.551 8.76875 21.5625 11.5 21.5625C14.2312 21.5625 14.5755 21.551 15.6486 21.5021C16.4838 21.4857 17.3101 21.3277 18.0924 21.0349C18.7607 20.7763 19.3677 20.3809 19.8745 19.8742C20.3813 19.3674 20.7766 18.7604 21.0353 18.092C21.3281 17.3097 21.4861 16.4834 21.5025 15.6483C21.551 14.5755 21.5625 14.2312 21.5625 11.5C21.5625 8.76875 21.551 8.42447 21.5021 7.35137C21.4857 6.51623 21.3277 5.68993 21.0349 4.90762C20.7761 4.23938 20.3805 3.63255 19.8737 3.12597C19.3668 2.61939 18.7597 2.22423 18.0913 1.96578C17.309 1.67299 16.4827 1.51502 15.6475 1.49859C14.5755 1.449 14.2312 1.4375 11.5 1.4375ZM18.396 5.65281C18.396 6.3197 17.8553 6.86031 17.1885 6.86031C16.5216 6.86031 15.981 6.3197 15.981 5.65281C15.981 4.98593 16.5216 4.44531 17.1885 4.44531C17.8553 4.44531 18.396 4.98593 18.396 5.65281ZM8.6293 7.20382C9.47902 6.63605 10.478 6.33301 11.5 6.33301C12.8704 6.33301 14.1847 6.8774 15.1537 7.84641C16.1227 8.81543 16.6671 10.1297 16.6671 11.5001C16.6671 12.5221 16.364 13.5211 15.7963 14.3708C15.2285 15.2205 14.4215 15.8828 13.4773 16.2739C12.5332 16.665 11.4942 16.7673 10.4919 16.5679C9.48961 16.3685 8.56893 15.8764 7.84629 15.1538C7.12366 14.4312 6.63155 13.5105 6.43217 12.5082C6.2328 11.5058 6.33512 10.4669 6.72621 9.52274C7.11729 8.57858 7.77957 7.77159 8.6293 7.20382ZM9.63657 14.2889C10.1881 14.6574 10.8366 14.8541 11.5 14.8541C11.9405 14.8542 12.3766 14.7675 12.7836 14.5989C13.1905 14.4304 13.5603 14.1833 13.8718 13.8719C14.1832 13.5604 14.4303 13.1906 14.5988 12.7837C14.7674 12.3767 14.8541 11.9406 14.854 11.5001C14.854 10.8367 14.6573 10.1883 14.2888 9.63669C13.9202 9.08512 13.3964 8.65523 12.7835 8.40137C12.1706 8.14751 11.4963 8.08109 10.8456 8.2105C10.195 8.33992 9.59738 8.65936 9.12831 9.12843C8.65924 9.5975 8.3398 10.1951 8.21038 10.8458C8.08097 11.4964 8.14739 12.1708 8.40125 12.7836C8.65511 13.3965 9.085 13.9203 9.63657 14.2889Z" fill="white"/>
</svg>
