<svg width="24" height="24" viewBox="0 0 24 24" fill="none" xmlns="http://www.w3.org/2000/svg">
<circle cx="12" cy="12" r="12" fill="#EAF5FF"/>
<path d="M17.2 6H6.8C6.58783 6 6.38434 6.08429 6.23431 6.23431C6.08429 6.38434 6 6.58783 6 6.8V17.2C6 17.4122 6.08429 17.6157 6.23431 17.7657C6.38434 17.9157 6.58783 18 6.8 18H17.2C17.4122 18 17.6157 17.9157 17.7657 17.7657C17.9157 17.6157 18 17.4122 18 17.2V6.8C18 6.58783 17.9157 6.38434 17.7657 6.23431C17.6157 6.08429 17.4122 6 17.2 6ZM9.5548 16.2376H7.7496V10.5H9.5548V16.2376ZM8.652 9.7124C8.44447 9.71177 8.24178 9.64965 8.06953 9.53389C7.89728 9.41813 7.76319 9.25392 7.68421 9.06201C7.60523 8.87009 7.58489 8.65907 7.62577 8.4556C7.66664 8.25213 7.7669 8.06534 7.91387 7.91881C8.06084 7.77229 8.24794 7.6726 8.45153 7.63235C8.65512 7.59209 8.86608 7.61307 9.05775 7.69264C9.24943 7.7722 9.41323 7.90678 9.52846 8.07939C9.6437 8.25199 9.7052 8.45487 9.7052 8.6624C9.70525 8.80057 9.67802 8.9374 9.62508 9.06502C9.57213 9.19265 9.4945 9.30856 9.39665 9.40611C9.2988 9.50367 9.18265 9.58094 9.05486 9.6335C8.92708 9.68606 8.79017 9.71287 8.652 9.7124ZM16.2484 16.2376H14.48V13.4624C14.48 12.7876 14.48 11.9624 13.54 11.9624C12.6 11.9624 12.4868 12.6752 12.4868 13.4248V16.2752H10.72V10.5H12.3744V11.2876H12.412C12.5826 10.9926 12.8302 10.7495 13.1283 10.5844C13.4264 10.4192 13.7638 10.3382 14.1044 10.35C15.9096 10.35 16.248 11.55 16.248 13.0876L16.2484 16.2376Z" fill="#1889E9"/>
</svg>
