<svg width="24" height="24" viewBox="0 0 24 24" fill="none" xmlns="http://www.w3.org/2000/svg">
<path d="M19.0855 14.4003L15.9485 13.0083C15.6382 12.871 15.2913 12.84 14.9615 12.9199C14.6317 12.9998 14.3375 13.1862 14.1245 13.4503L13.1775 14.6353C11.6428 13.659 10.3412 12.3577 9.3645 10.8233L10.5485 9.87732C10.8135 9.66452 11.0007 9.37008 11.081 9.03983C11.1614 8.70958 11.1302 8.36204 10.9925 8.05132L9.5995 4.91432C9.45152 4.58113 9.19006 4.31129 8.8617 4.15288C8.53333 3.99446 8.1594 3.95776 7.8065 4.04932L5.1545 4.73832C4.78863 4.8339 4.47051 5.06034 4.26041 5.37475C4.05031 5.68917 3.96282 6.06972 4.0145 6.44432C4.50562 9.86153 6.09045 13.0277 8.5317 15.4688C10.973 17.9099 14.1393 19.4945 17.5565 19.9853C17.6267 19.9953 17.6976 20.0003 17.7685 20.0003C18.1099 20.0001 18.4417 19.8867 18.7118 19.6779C18.9819 19.4691 19.1753 19.1767 19.2615 18.8463L19.9495 16.1933C20.0424 15.8405 20.0064 15.4662 19.848 15.1375C19.6897 14.8089 19.4193 14.5475 19.0855 14.4003Z" fill="#61798B"/>
</svg>
