<svg width="24" height="24" viewBox="0 0 24 24" fill="none" xmlns="http://www.w3.org/2000/svg">
<path d="M21.2805 8.16161C21.2805 8.16161 21.1004 6.84088 20.5301 6.24055C19.8097 5.49013 18.9693 5.46012 18.6091 5.4301C15.8775 5.25 11.8553 5.25 11.8553 5.25C11.8553 5.25 7.83309 5.25 5.1316 5.4301C4.74138 5.46012 3.93093 5.49013 3.21053 6.24055C2.64022 6.81086 2.46012 8.16161 2.46012 8.16161C2.46012 8.16161 2.25 9.72248 2.25 11.2833V12.7542C2.25 14.315 2.4301 15.8759 2.4301 15.8759C2.4301 15.8759 2.6102 17.1966 3.18052 17.797C3.90091 18.5474 4.86145 18.5474 5.3117 18.6074C6.84254 18.7575 11.8553 18.7875 11.8553 18.7875C11.8553 18.7875 15.8775 18.7875 18.579 18.5774C18.9693 18.5474 19.7797 18.5174 20.5001 17.7669C21.0704 17.1966 21.2505 15.8459 21.2505 15.8459C21.2505 15.8459 21.4606 14.285 21.4606 12.7241V11.2533C21.4606 9.72248 21.2805 8.16161 21.2805 8.16161ZM9.87422 14.4951V9.09213L15.0671 11.7936L9.87422 14.4951Z" fill="#1A2847"/>
</svg>
