<svg width="24" height="24" viewBox="0 0 24 24" fill="none" xmlns="http://www.w3.org/2000/svg">
<circle cx="12" cy="12" r="12" fill="#EAF5FF"/>
<path d="M18.187 9.44108C18.187 9.44108 18.067 8.56059 17.6868 8.16037C17.2065 7.66009 16.6462 7.64008 16.406 7.62007C14.585 7.5 11.9035 7.5 11.9035 7.5C11.9035 7.5 9.22206 7.5 7.42106 7.62007C7.16092 7.64008 6.62062 7.66009 6.14035 8.16037C5.76014 8.54058 5.64008 9.44108 5.64008 9.44108C5.64008 9.44108 5.5 10.4817 5.5 11.5222V12.5028C5.5 13.5433 5.62007 14.5839 5.62007 14.5839C5.62007 14.5839 5.74013 15.4644 6.12034 15.8646C6.60061 16.3649 7.24096 16.3649 7.54113 16.4049C8.5617 16.505 11.9035 16.525 11.9035 16.525C11.9035 16.525 14.585 16.525 16.386 16.3849C16.6462 16.3649 17.1865 16.3449 17.6667 15.8446C18.047 15.4644 18.167 14.5639 18.167 14.5639C18.167 14.5639 18.3071 13.5233 18.3071 12.4828V11.5022C18.3071 10.4817 18.187 9.44108 18.187 9.44108ZM10.5828 13.6634V10.0614L14.0447 11.8624L10.5828 13.6634Z" fill="#1889E9"/>
</svg>
