<svg width="16" height="10" viewBox="0 0 16 10" fill="none" xmlns="http://www.w3.org/2000/svg">
<path d="M0.641239 5.2219C1.26008 5.08137 1.09982 4.03157 0.38187 4.20218C-0.250773 4.35307 -0.0510683 5.37871 0.641239 5.2219Z" fill="#1889E9"/>
<path d="M15.9781 4.9216C15.943 5.22288 15.9435 5.51331 15.8868 5.80917C15.6363 7.10552 14.8079 8.21943 13.9716 9.214C13.8015 9.41617 13.2838 9.90187 13.016 10C13.2473 9.38215 13.3972 8.78994 13.3252 8.08284C12.0431 8.74605 10.3927 9.14546 8.59147 9.14546C4.51257 9.14546 1.20488 7.09763 1.20488 4.57199C1.2055 4.32201 1.23967 4.07324 1.30646 3.83235C1.02588 3.59221 0.911978 3.26578 0.908033 2.87032C0.90646 2.52218 1.04315 2.18765 1.28807 1.94024C1.53299 1.69282 1.86611 1.55275 2.21425 1.55079C2.38924 1.5523 2.56221 1.5885 2.72312 1.6573C2.77243 1.67751 2.80004 1.68688 2.83604 1.70661C4.19008 0.666173 6.26504 0 8.59147 0C12.6699 0 15.9776 2.04783 15.9776 4.57298V4.92209L15.9781 4.9216Z" fill="#1889E9"/>
<path d="M6.07746 5.71507H6.01463H5.76838H5.29787L5.56301 4.82401L5.8348 3.93448H5.01433L4.51674 5.50126C4.44981 5.69052 4.39361 5.91047 4.4871 6.11815C4.6562 6.50025 4.95251 6.51304 5.46594 6.51049C5.72598 6.51049 5.83735 6.39846 5.90632 6.23733C5.91756 6.21073 5.92778 6.18618 5.93697 6.15703C5.98806 6.00971 6.02382 5.86034 6.07746 5.71149V5.71507Z" fill="white"/>
<path d="M9.11768 4.9882L9.74402 5.4102C9.75542 5.39813 9.766 5.38532 9.77569 5.37184L10.1195 4.96262C10.2304 5.09868 10.2758 5.58974 10.0725 5.68795L9.28423 5.7253L9.02368 6.51406C9.75781 6.52991 10.6263 6.60306 10.918 5.79486C11.1454 5.16518 10.8695 4.74625 10.6355 4.2424L10.9124 3.77539L10.2319 3.45671L9.51668 4.43422L9.44158 4.53653L9.39815 4.59535C9.35422 4.65418 9.31131 4.71556 9.26584 4.77694L9.24183 4.80865L9.18205 4.89305L9.1468 4.94165L9.12688 4.97132L9.12126 4.98103C9.12026 4.98319 9.11906 4.98524 9.11768 4.98717V4.9882Z" fill="white"/>
<path d="M5.94101 3.44599C6.48203 2.96772 5.8184 2.16975 5.26206 2.61681C5.21194 2.6534 5.17043 2.70055 5.14047 2.75493C4.80687 3.291 5.52618 3.81275 5.94101 3.44599Z" fill="white"/>
<path d="M11.2296 4.93398L11.856 5.35599C11.8672 5.3439 11.8776 5.33109 11.8871 5.31762L12.231 4.90841C12.3423 5.04447 12.3878 5.53553 12.1845 5.63374L11.3962 5.67108L11.1351 6.45984C11.8693 6.4757 12.7378 6.54885 13.03 5.74013C13.2573 5.11097 12.9814 4.69203 12.747 4.18819L13.0244 3.72117L12.3439 3.4025L11.6286 4.38001L11.5541 4.48231L11.5106 4.54114C11.4667 4.59996 11.4238 4.66134 11.3778 4.72273L11.3543 4.75444L11.2945 4.83884L11.2593 4.88743L11.2394 4.9171L11.2337 4.92682C11.2324 4.92875 11.2312 4.93081 11.2302 4.93296L11.2296 4.93398Z" fill="white"/>
<path d="M7.26675 5.63219C7.66371 6.12734 7.32193 6.46546 8.60321 6.50945L8.85865 5.71864L8.57 5.7125L8.17509 5.70483L7.97841 5.24446L8.00344 5.224C8.00906 5.2194 8.01928 5.21428 8.03665 5.20047L9.10949 4.38972L8.64561 3.77334L8.63029 3.78357L8.41367 3.94265L8.24253 4.06899L8.2083 4.09355L8.14393 4.13856C8.10613 4.16567 8.06781 4.19329 8.03103 4.22092L7.92885 4.29764C7.79807 4.39637 7.68925 4.48639 7.63203 4.52629C7.62794 4.42399 7.89002 3.64853 7.95286 3.45926L8.51789 1.6178H8.43258L8.11941 1.62036L7.72348 1.62343C7.62897 2.04952 6.98271 3.82858 6.79675 4.48179L6.16071 6.5161H6.96942C7.02715 6.38413 7.20698 5.81685 7.26778 5.6368L7.26675 5.63219Z" fill="white"/>
</svg>
