<svg width="693" height="291" viewBox="0 0 693 291" fill="none" xmlns="http://www.w3.org/2000/svg">
<path d="M224.696 239.435H187.847V287.402H114.15V239.435H0V184.273L127.768 2.79809H187.847V182.275H224.696V239.435ZM114.15 182.275V115.121L67.2886 182.275H114.15Z" fill="#D1E7FB"/>
<path d="M343.496 291C308.25 291 281.147 278.475 262.189 253.426C243.498 228.376 234.152 192.135 234.152 144.701C234.152 98.0659 243.498 62.3572 262.189 37.5742C281.147 12.5247 308.25 0 343.496 0C378.742 0 405.711 12.5247 424.403 37.5742C443.361 62.3572 452.84 98.0659 452.84 144.701C452.84 192.135 443.361 228.376 424.403 253.426C405.711 278.475 378.742 291 343.496 291ZM343.496 234.639C356.313 234.639 365.525 227.71 371.132 213.853C376.74 199.729 379.543 176.679 379.543 144.701C379.543 113.522 376.74 91.0041 371.132 77.147C365.525 63.2898 356.313 56.3613 343.496 56.3613C330.679 56.3613 321.467 63.2898 315.86 77.147C310.252 91.0041 307.449 113.522 307.449 144.701C307.449 176.679 310.252 199.729 315.86 213.853C321.467 227.71 330.679 234.639 343.496 234.639Z" fill="#D1E7FB"/>
<path d="M693 239.435H656.151V287.402H582.454V239.435H468.304V184.273L596.072 2.79809H656.151V182.275H693V239.435ZM582.454 182.275V115.121L535.593 182.275H582.454Z" fill="#D1E7FB"/>
<g filter="url(#filter0_dddd)">
<g filter="url(#filter1_i)">
<path d="M150.423 149.61C165.585 146.167 161.658 120.447 144.069 124.627C128.569 128.324 133.462 153.452 150.423 149.61Z" fill="#E8F3FD"/>
<path d="M531.216 151.579C530.358 158.961 530.37 166.076 528.981 173.325C522.844 205.085 502.548 232.376 482.059 256.743C477.891 261.696 465.206 273.596 458.646 276C464.312 260.863 467.985 246.354 466.221 229.03C434.811 245.278 394.376 255.064 350.244 255.064C250.311 255.064 169.273 204.892 169.273 143.014C169.288 136.889 170.125 130.794 171.762 124.893C164.888 119.009 162.097 111.012 162 101.323C161.962 92.7934 165.311 84.5975 171.311 78.5358C177.312 72.4741 185.473 69.0423 194.003 68.9943C198.29 69.0313 202.528 69.9182 206.47 71.6038C207.678 72.0991 208.355 72.3286 209.236 72.8119C242.411 47.3212 293.247 31 350.244 31C450.165 31 531.204 81.1718 531.204 143.038V151.591L531.216 151.579Z" fill="#E8F3FD" stroke="#E8F3FD" stroke-width="0.397643"/>
<g clip-path="url(#clip0)">
<path d="M223.479 166.326H214.901C213.842 166.367 212.786 166.182 211.803 165.785C210.821 165.387 209.935 164.785 209.204 164.02C207.785 162.556 207.001 160.595 207.022 158.559C206.998 158.32 206.998 158.08 207.022 157.841C207.034 157.602 207.034 157.363 207.022 157.123C207.096 156.925 207.154 156.721 207.196 156.514L207.393 155.796L213.941 135.607H223.938L217.084 156.949H226.491L223.479 166.326ZM227.037 125.883C226.45 126.511 225.736 127.008 224.942 127.342C224.148 127.675 223.293 127.838 222.432 127.819C221.578 127.829 220.732 127.662 219.946 127.329C219.161 126.996 218.454 126.503 217.87 125.883C217.252 125.284 216.764 124.566 216.434 123.774C216.104 122.981 215.939 122.129 215.949 121.271C215.937 120.422 216.102 119.58 216.432 118.797C216.763 118.015 217.252 117.309 217.87 116.724C218.459 116.114 219.168 115.631 219.953 115.305C220.738 114.979 221.582 114.818 222.432 114.831C223.289 114.81 224.142 114.967 224.935 115.293C225.728 115.618 226.444 116.106 227.037 116.724C227.637 117.318 228.111 118.028 228.43 118.809C228.749 119.59 228.906 120.427 228.892 121.271C228.908 122.992 228.242 124.65 227.037 125.883Z" fill="#8CC4F4"/>
<path d="M247.752 151.597H226.798L229.854 142.221H250.895L247.752 151.597Z" fill="#8CC4F4"/>
<path d="M268.597 151.358L270.976 156.753C271.142 156.832 271.319 156.884 271.5 156.906H272.199H279.249L276.106 166.282H271.74C269.89 166.226 268.073 165.774 266.415 164.955C264.686 164.116 263.332 162.666 262.617 160.887L260.15 155.296L256.527 166.173H246.617L265.563 107.848H275.473L264.144 142.852L276.892 133.366L282.501 140.959L268.597 151.358Z" fill="#8CC4F4"/>
<path d="M314.368 166.325H305.136C304.192 166.338 303.253 166.184 302.363 165.868C301.59 165.54 300.858 165.124 300.181 164.629C299.201 165.208 298.162 165.682 297.081 166.043C296.021 166.415 294.923 166.67 293.807 166.804L292.65 166.956H291.515C289.58 166.967 287.671 166.511 285.949 165.629C284.138 164.656 282.685 163.131 281.802 161.278C281.445 160.494 281.16 159.678 280.951 158.842C280.757 158.051 280.662 157.24 280.667 156.427C280.658 154.776 280.985 153.14 281.628 151.619C282.249 150.064 283.079 148.601 284.094 147.268C287.064 143.169 291.19 140.041 295.946 138.283C300.654 136.545 305.618 135.597 310.636 135.477H311.989V144.962C309.968 144.964 307.949 145.087 305.943 145.332C303.972 145.583 302.038 146.065 300.181 146.767C298.519 147.333 296.946 148.131 295.51 149.139C294.042 150.148 292.758 151.399 291.712 152.837C291.712 152.968 291.537 153.12 291.428 153.294C291.283 153.51 291.152 153.736 291.035 153.968C290.91 154.147 290.8 154.337 290.708 154.534C290.708 154.73 290.489 154.947 290.38 155.209C290.271 155.47 290.249 155.622 290.184 155.861C290.156 156.085 290.156 156.312 290.184 156.536C290.186 156.795 290.288 157.044 290.468 157.232C290.585 157.36 290.731 157.459 290.894 157.519C291.058 157.58 291.233 157.601 291.406 157.58C292.461 157.657 293.519 157.471 294.483 157.038C295.447 156.605 296.288 155.939 296.928 155.1C298.14 153.45 299.104 151.632 299.788 149.704C299.919 149.255 300.05 148.841 300.181 148.464C300.29 148.094 300.421 147.703 300.552 147.333L309.501 150.27L307.318 156.797H317.49L314.368 166.325Z" fill="#8CC4F4"/>
<path d="M337.506 151.597H316.552L319.608 142.221H340.627L337.506 151.597Z" fill="#8CC4F4"/>
<path d="M358.327 151.358L360.707 156.818C360.874 156.891 361.05 156.942 361.23 156.971H361.951H369.001L365.858 166.347H361.492C359.642 166.291 357.825 165.839 356.166 165.02C354.433 164.188 353.077 162.735 352.368 160.952L349.88 155.361L346.279 166.238H336.369L355.315 107.913H365.203L353.875 142.917L366.644 133.432L372.253 141.024L358.327 151.358Z" fill="#8CC4F4"/>
<path d="M404.122 166.325H394.889C393.946 166.338 393.007 166.184 392.117 165.868C391.344 165.54 390.612 165.124 389.935 164.629C388.955 165.208 387.916 165.682 386.835 166.043C385.775 166.415 384.677 166.67 383.561 166.804L382.404 166.956H381.269C379.334 166.967 377.424 166.511 375.703 165.629C373.892 164.656 372.439 163.131 371.556 161.278C371.198 160.494 370.914 159.678 370.705 158.842C370.511 158.051 370.416 157.24 370.421 156.427C370.416 154.778 370.735 153.145 371.36 151.619C371.989 150.063 372.826 148.6 373.848 147.268C376.818 143.169 380.944 140.041 385.7 138.283C390.408 136.545 395.371 135.597 400.39 135.477H401.721V144.962C399.7 144.965 397.681 145.089 395.675 145.332C393.712 145.586 391.786 146.068 389.935 146.767C388.273 147.333 386.7 148.131 385.264 149.139C383.796 150.148 382.512 151.399 381.466 152.837C381.377 152.998 381.274 153.15 381.16 153.294C381.051 153.49 380.92 153.707 380.789 153.968C380.664 154.147 380.554 154.337 380.462 154.534C380.34 154.752 380.23 154.978 380.134 155.209C380.134 155.383 380.003 155.622 379.938 155.861C379.875 156.081 379.838 156.307 379.829 156.536C379.841 156.797 379.95 157.045 380.134 157.232C380.251 157.36 380.398 157.459 380.561 157.519C380.724 157.58 380.9 157.601 381.073 157.58C382.128 157.657 383.185 157.471 384.15 157.038C385.114 156.605 385.955 155.939 386.595 155.1C387.807 153.45 388.77 151.632 389.454 149.704C389.585 149.248 389.695 148.834 389.826 148.464L390.218 147.333L399.168 150.27L396.985 156.797H407.156L404.122 166.325Z" fill="#8CC4F4"/>
<path d="M427.236 151.597H406.304L409.36 142.221H430.379L427.236 151.597Z" fill="#8CC4F4"/>
<path d="M460.916 166.326H440.18C438.516 166.346 436.87 165.973 435.378 165.238C433.885 164.522 432.661 163.348 431.886 161.888C431.505 161.166 431.219 160.398 431.035 159.603C430.843 158.79 430.748 157.958 430.751 157.123C430.751 156.949 430.751 156.732 430.751 156.514C430.774 156.275 430.774 156.035 430.751 155.796C430.886 154.495 431.157 153.212 431.559 151.967C431.973 150.662 432.41 149.487 432.846 148.399C434.015 145.616 435.679 143.066 437.758 140.872C439.488 139.025 441.536 137.5 443.804 136.369C444.628 135.872 445.507 135.471 446.423 135.172C447.241 134.9 448.081 134.696 448.933 134.563L450.09 134.411H451.312C453.807 134.373 456.248 135.136 458.275 136.586C459.252 137.262 460.042 138.173 460.573 139.234C461.103 140.295 461.356 141.472 461.309 142.656C461.309 143.181 461.265 143.705 461.178 144.222C461.052 144.823 460.877 145.412 460.654 145.985C459.939 147.89 458.873 149.647 457.511 151.162C455.526 153.364 453.284 155.322 450.832 156.993H463.928L460.916 166.326ZM445.637 146.224C444.014 147.753 442.722 149.596 441.839 151.641C441.856 151.683 441.856 151.729 441.839 151.771C441.829 151.795 441.824 151.821 441.824 151.848C441.824 151.874 441.829 151.9 441.839 151.924C444.232 150.584 446.484 149.01 448.562 147.225C449.795 146.165 450.868 144.934 451.749 143.57C449.434 143.646 447.234 144.594 445.594 146.224H445.637Z" fill="#8CC4F4"/>
<path d="M483.093 162.344C481.735 163.687 480.113 164.734 478.328 165.419C476.544 166.105 474.636 166.413 472.725 166.326H463.121L466.155 156.949H472.703C473.364 157.004 474.029 156.927 474.658 156.721C475.288 156.516 475.87 156.186 476.37 155.753C476.804 155.237 477.132 154.641 477.334 153.999C477.536 153.357 477.609 152.681 477.549 152.011C477.557 151.161 477.461 150.314 477.265 149.487C477.108 148.731 476.852 148 476.501 147.312L473.424 151.532C472.958 152.122 472.527 152.74 472.136 153.381L464.518 147.877C467.254 144.092 469.473 141.061 471.175 138.784C472.769 136.499 474.253 134.433 475.541 132.518C476.829 130.604 477.724 129.646 477.724 129.581L486.193 133.758C486.193 133.758 485.756 134.346 485.058 135.368C484.359 136.39 483.464 137.544 482.395 139.066C483.866 140.864 485.011 142.903 485.778 145.092C486.559 147.301 486.957 149.626 486.956 151.967C487.044 153.867 486.748 155.765 486.084 157.548C485.42 159.33 484.403 160.962 483.093 162.344Z" fill="#8CC4F4"/>
</g>
</g>
<g filter="url(#filter2_d)">
<path d="M502.424 72.0192C500.084 86.3073 486.603 95.9932 472.315 93.653C458.029 91.313 448.341 77.8324 450.682 63.5443C453.022 49.2577 466.504 39.5705 480.79 41.9105C495.078 44.2507 504.764 57.7325 502.424 72.0192Z" fill="#FFCC4D"/>
<path d="M460.483 57.7706C459.69 57.6406 459.151 56.8912 459.281 56.0979C459.411 55.3059 460.156 54.7682 460.948 54.895C461.173 54.9289 466.098 55.6116 470.714 51.1815C471.293 50.627 472.215 50.6422 472.773 51.2236C473.331 51.8034 473.311 52.7256 472.731 53.2829C467.017 58.767 460.748 57.8139 460.483 57.7706ZM494.978 63.4205C494.714 63.3771 488.469 62.2805 484.803 55.2602C484.43 54.5467 484.707 53.6667 485.42 53.295C486.132 52.9202 487.011 53.1984 487.384 53.9118C490.351 59.5943 495.248 60.5115 495.456 60.5471C496.245 60.6852 496.777 61.4365 496.644 62.2248C496.511 63.0163 495.769 63.5499 494.978 63.4205ZM458.366 70.7064C457.929 70.6348 457.53 70.3659 457.309 69.9429C456.935 69.2309 457.212 68.3509 457.926 67.9792C458.156 67.8591 462.681 65.5363 468.47 65.3777C465.205 63.0113 461.263 62.3259 461.213 62.3176C460.42 62.1848 459.883 61.4357 460.014 60.6425C460.144 59.8506 460.892 59.3133 461.685 59.4433C462.003 59.4953 469.512 60.7813 473.424 66.226C473.768 66.7044 473.79 67.3427 473.48 67.8437C473.169 68.3448 472.587 68.6081 472.006 68.513C465.376 67.4271 459.334 70.5284 459.274 70.56C458.983 70.7116 458.665 70.7554 458.366 70.7064ZM492.858 76.3544C492.559 76.3054 492.273 76.164 492.045 75.929C491.998 75.8784 487.227 71.006 480.63 69.9255C480.049 69.8304 479.581 69.395 479.447 68.8212C479.313 68.2471 479.537 67.6493 480.016 67.3056C485.462 63.3937 492.988 64.5703 493.305 64.6223C494.099 64.7523 494.635 65.4997 494.506 66.2919C494.378 67.0855 493.63 67.6242 492.838 67.4974C492.786 67.4889 488.831 66.881 484.982 68.0821C490.418 70.0793 493.965 73.7227 494.144 73.9114C494.7 74.491 494.682 75.4105 494.104 75.968C493.761 76.297 493.297 76.4262 492.858 76.3544ZM473.729 85.0294C473.292 84.9579 472.912 84.692 472.694 84.3066L469.043 77.817L465.147 81.5577C464.842 81.8502 464.426 81.996 464.006 81.9567C463.584 81.9186 463.201 81.6994 462.956 81.3567L461.754 79.684C461.284 79.03 461.433 78.1216 462.087 77.6517C462.741 77.1817 463.649 77.3305 464.119 77.9846L464.342 78.294L468.383 74.4134C468.709 74.1007 469.159 73.956 469.604 74.023C470.031 74.0781 470.44 74.3561 470.66 74.7494L474.341 81.2911L479.915 76.2652C480.249 75.9642 480.699 75.8401 481.149 75.9138C481.593 75.994 481.974 76.2733 482.181 76.6733L484.776 81.6394L485.085 81.4171C485.739 80.9471 486.648 81.0959 487.117 81.7499C487.587 82.404 487.439 83.3123 486.785 83.7823L485.112 84.9841C484.769 85.2305 484.35 85.3227 483.925 85.2178C483.515 85.1196 483.167 84.85 482.971 84.4756L480.47 79.6871L474.941 84.6731C474.611 84.9702 474.166 85.101 473.729 85.0294Z" fill="#664500"/>
</g>
<g filter="url(#filter3_d)">
<path d="M253.81 213.111C256.373 226.29 247.767 239.052 234.588 241.615C221.41 244.178 208.648 235.572 206.085 222.393C203.522 209.214 212.128 196.453 225.307 193.89C238.485 191.327 251.247 199.933 253.81 213.111Z" fill="#FFCC4D"/>
<path d="M237.57 228.652C238.283 232.315 235.97 233.091 233.041 233.66C230.111 234.23 227.677 234.377 226.965 230.714C226.253 227.054 227.791 222.299 230.721 221.729C233.649 221.159 236.859 224.992 237.57 228.652ZM245.082 210.681C244.918 210.713 244.745 210.715 244.572 210.681C237.101 209.257 233.447 205.634 233.295 205.481C232.77 204.95 232.774 204.095 233.305 203.571C233.834 203.047 234.685 203.049 235.211 203.577C235.244 203.608 238.488 206.771 245.076 208.027C245.809 208.168 246.291 208.873 246.151 209.606C246.044 210.167 245.607 210.579 245.082 210.681ZM213.266 216.869C212.739 216.971 212.181 216.752 211.872 216.274C211.468 215.647 211.648 214.811 212.275 214.407C217.914 210.774 219.736 206.625 219.754 206.584C220.045 205.9 220.837 205.58 221.523 205.869C222.209 206.159 222.532 206.945 222.245 207.631C222.161 207.83 220.132 212.559 213.74 216.679C213.591 216.774 213.43 216.837 213.266 216.869Z" fill="#664500"/>
<path d="M237.387 213.554L242.689 212.522L247.588 237.71L242.273 238.681L237.387 213.554ZM221.074 242.867L226.365 241.774L221.479 216.647L216.176 217.679L221.074 242.867Z" fill="#5DADEC"/>
<path d="M225.97 218.526C225.771 218.565 225.559 218.559 225.351 218.502C220.243 217.08 215.974 220.301 215.933 220.334C215.341 220.792 214.493 220.677 214.038 220.087C213.583 219.496 213.694 218.648 214.285 218.193C214.503 218.027 219.681 214.121 226.077 215.9C226.795 216.1 227.215 216.845 227.015 217.564C226.872 218.073 226.456 218.432 225.97 218.526ZM244.529 214.917C244.33 214.955 244.119 214.95 243.911 214.893C238.801 213.47 234.534 216.692 234.492 216.724C233.901 217.181 233.054 217.069 232.598 216.478C232.143 215.887 232.253 215.038 232.844 214.584C233.062 214.417 238.245 210.512 244.636 212.29C245.355 212.49 245.775 213.235 245.575 213.954C245.432 214.463 245.016 214.822 244.529 214.917Z" fill="#664500"/>
<path d="M234.589 241.615C247.768 239.052 258.22 235.787 257.935 234.323C257.651 232.858 246.736 233.749 233.558 236.312C220.379 238.875 209.926 242.14 210.211 243.604C210.496 245.069 221.41 244.178 234.589 241.615Z" fill="#5DADEC"/>
<path d="M232.784 232.335C234.98 231.908 236.53 230.374 236.245 228.91C235.96 227.446 233.949 226.605 231.752 227.032C229.556 227.459 228.006 228.993 228.291 230.457C228.576 231.921 230.587 232.762 232.784 232.335Z" fill="#E75A70"/>
</g>
</g>
<defs>
<filter id="filter0_dddd" x="58.0973" y="6.69891" width="556.766" height="405.534" filterUnits="userSpaceOnUse" color-interpolation-filters="sRGB">
<feFlood flood-opacity="0" result="BackgroundImageFix"/>
<feColorMatrix in="SourceAlpha" type="matrix" values="0 0 0 0 0 0 0 0 0 0 0 0 0 0 0 0 0 0 127 0" result="hardAlpha"/>
<feOffset dx="0.148069" dy="2.44552"/>
<feGaussianBlur stdDeviation="2.3125"/>
<feColorMatrix type="matrix" values="0 0 0 0 0.380392 0 0 0 0 0.47451 0 0 0 0 0.545098 0 0 0 0.02275 0"/>
<feBlend mode="normal" in2="BackgroundImageFix" result="effect1_dropShadow"/>
<feColorMatrix in="SourceAlpha" type="matrix" values="0 0 0 0 0 0 0 0 0 0 0 0 0 0 0 0 0 0 127 0" result="hardAlpha"/>
<feOffset dx="0.676885" dy="11.1795"/>
<feGaussianBlur stdDeviation="6.5"/>
<feColorMatrix type="matrix" values="0 0 0 0 0.380392 0 0 0 0 0.47451 0 0 0 0 0.545098 0 0 0 0.035 0"/>
<feBlend mode="normal" in2="effect1_dropShadow" result="effect2_dropShadow"/>
<feColorMatrix in="SourceAlpha" type="matrix" values="0 0 0 0 0 0 0 0 0 0 0 0 0 0 0 0 0 0 127 0" result="hardAlpha"/>
<feOffset dx="1.71337" dy="28.2982"/>
<feGaussianBlur stdDeviation="17.4375"/>
<feColorMatrix type="matrix" values="0 0 0 0 0.380392 0 0 0 0 0.47451 0 0 0 0 0.545098 0 0 0 0.04725 0"/>
<feBlend mode="normal" in2="effect2_dropShadow" result="effect3_dropShadow"/>
<feColorMatrix in="SourceAlpha" type="matrix" values="0 0 0 0 0 0 0 0 0 0 0 0 0 0 0 0 0 0 127 0" result="hardAlpha"/>
<feOffset dx="3.38443" dy="55.8976"/>
<feGaussianBlur stdDeviation="40"/>
<feColorMatrix type="matrix" values="0 0 0 0 0.380392 0 0 0 0 0.47451 0 0 0 0 0.545098 0 0 0 0.07 0"/>
<feBlend mode="normal" in2="effect3_dropShadow" result="effect4_dropShadow"/>
<feBlend mode="normal" in="SourceGraphic" in2="effect4_dropShadow" result="shape"/>
</filter>
<filter id="filter1_i" x="134.713" y="30.8013" width="396.766" height="245.534" filterUnits="userSpaceOnUse" color-interpolation-filters="sRGB">
<feFlood flood-opacity="0" result="BackgroundImageFix"/>
<feBlend mode="normal" in="SourceGraphic" in2="BackgroundImageFix" result="shape"/>
<feColorMatrix in="SourceAlpha" type="matrix" values="0 0 0 0 0 0 0 0 0 0 0 0 0 0 0 0 0 0 127 0" result="hardAlpha"/>
<feOffset dx="5" dy="-6"/>
<feComposite in2="hardAlpha" operator="arithmetic" k2="-1" k3="1"/>
<feColorMatrix type="matrix" values="0 0 0 0 0.779167 0 0 0 0 0.894 0 0 0 0 1 0 0 0 1 0"/>
<feBlend mode="normal" in2="shape" result="effect1_innerShadow"/>
</filter>
<filter id="filter2_d" x="444.333" y="39.562" width="64.4398" height="64.4398" filterUnits="userSpaceOnUse" color-interpolation-filters="sRGB">
<feFlood flood-opacity="0" result="BackgroundImageFix"/>
<feColorMatrix in="SourceAlpha" type="matrix" values="0 0 0 0 0 0 0 0 0 0 0 0 0 0 0 0 0 0 127 0" result="hardAlpha"/>
<feOffset dy="4"/>
<feGaussianBlur stdDeviation="3"/>
<feColorMatrix type="matrix" values="0 0 0 0 0.4 0 0 0 0 0.458824 0 0 0 0 0.498039 0 0 0 0.1 0"/>
<feBlend mode="normal" in2="BackgroundImageFix" result="effect1_dropShadow"/>
<feBlend mode="normal" in="SourceGraphic" in2="effect1_dropShadow" result="shape"/>
</filter>
<filter id="filter3_d" x="195.444" y="187.249" width="69.0068" height="69.0064" filterUnits="userSpaceOnUse" color-interpolation-filters="sRGB">
<feFlood flood-opacity="0" result="BackgroundImageFix"/>
<feColorMatrix in="SourceAlpha" type="matrix" values="0 0 0 0 0 0 0 0 0 0 0 0 0 0 0 0 0 0 127 0" result="hardAlpha"/>
<feOffset dy="4"/>
<feGaussianBlur stdDeviation="3"/>
<feColorMatrix type="matrix" values="0 0 0 0 0.4 0 0 0 0 0.458824 0 0 0 0 0.498039 0 0 0 0.1 0"/>
<feBlend mode="normal" in2="BackgroundImageFix" result="effect1_dropShadow"/>
<feBlend mode="normal" in="SourceGraphic" in2="effect1_dropShadow" result="shape"/>
</filter>
<clipPath id="clip0">
<rect width="280" height="59" fill="white" transform="translate(207 108)"/>
</clipPath>
</defs>
</svg>
