<svg width="693" height="291" viewBox="0 0 693 291" fill="none" xmlns="http://www.w3.org/2000/svg">
<path d="M224.696 239.435H187.847V287.402H114.15V239.435H0V184.273L127.768 2.79809H187.847V182.275H224.696V239.435ZM114.15 182.275V115.121L67.2886 182.275H114.15Z" fill="#D1E7FB"/>
<path d="M343.496 291C308.25 291 281.147 278.475 262.189 253.426C243.498 228.376 234.152 192.135 234.152 144.701C234.152 98.0659 243.498 62.3572 262.189 37.5742C281.147 12.5247 308.25 0 343.496 0C378.742 0 405.711 12.5247 424.403 37.5742C443.361 62.3572 452.84 98.0659 452.84 144.701C452.84 192.135 443.361 228.376 424.403 253.426C405.711 278.475 378.742 291 343.496 291ZM343.496 234.639C356.313 234.639 365.525 227.71 371.132 213.853C376.74 199.729 379.543 176.679 379.543 144.701C379.543 113.522 376.74 91.0041 371.132 77.147C365.525 63.2898 356.313 56.3613 343.496 56.3613C330.679 56.3613 321.467 63.2898 315.86 77.147C310.252 91.0041 307.449 113.522 307.449 144.701C307.449 176.679 310.252 199.729 315.86 213.853C321.467 227.71 330.679 234.639 343.496 234.639Z" fill="#D1E7FB"/>
<path d="M693 239.435H656.151V287.402H582.454V239.435H468.304V184.273L596.072 2.79809H656.151V182.275H693V239.435ZM582.454 182.275V115.121L535.593 182.275H582.454Z" fill="#D1E7FB"/>
</svg>
