<svg width="557" height="407" viewBox="0 0 557 407" fill="none" xmlns="http://www.w3.org/2000/svg">
<g filter="url(#filter0_dddd)">
<g filter="url(#filter1_i)">
<path d="M92.4233 143.61C107.585 140.167 103.658 114.447 86.0687 118.627C70.569 122.324 75.4617 147.452 92.4233 143.61Z" fill="#E8F3FD"/>
<path d="M473.216 145.579C472.358 152.961 472.37 160.076 470.981 167.325C464.844 199.085 444.548 226.376 424.059 250.743C419.891 255.696 407.206 267.596 400.646 270C406.312 254.863 409.985 240.354 408.221 223.03C376.811 239.278 336.376 249.064 292.244 249.064C192.311 249.064 111.273 198.892 111.273 137.014C111.288 130.889 112.125 124.794 113.762 118.893C106.888 113.009 104.097 105.012 104 95.3227C103.962 86.7934 107.311 78.5975 113.311 72.5358C119.312 66.4741 127.473 63.0423 136.003 62.9943C140.29 63.0313 144.528 63.9182 148.47 65.6038C149.678 66.0991 150.355 66.3286 151.236 66.8119C184.411 41.3212 235.247 25 292.244 25C392.165 25 473.204 75.1718 473.204 137.038V145.591L473.216 145.579Z" fill="#E8F3FD" stroke="#E8F3FD" stroke-width="0.397643"/>
<g clip-path="url(#clip0)">
<path d="M165.479 160.326H156.901C155.842 160.367 154.786 160.182 153.803 159.785C152.821 159.387 151.935 158.785 151.204 158.02C149.785 156.556 149.001 154.595 149.022 152.559C148.998 152.32 148.998 152.08 149.022 151.841C149.034 151.602 149.034 151.363 149.022 151.123C149.096 150.925 149.154 150.721 149.196 150.514L149.393 149.796L155.941 129.607H165.938L159.084 150.949H168.491L165.479 160.326ZM169.037 119.883C168.45 120.511 167.736 121.008 166.942 121.342C166.148 121.675 165.293 121.838 164.432 121.819C163.578 121.829 162.732 121.662 161.946 121.329C161.161 120.996 160.454 120.503 159.87 119.883C159.252 119.284 158.764 118.566 158.434 117.774C158.104 116.981 157.939 116.129 157.949 115.271C157.937 114.422 158.102 113.58 158.432 112.797C158.763 112.015 159.252 111.309 159.87 110.724C160.459 110.114 161.168 109.631 161.953 109.305C162.738 108.979 163.582 108.818 164.432 108.831C165.289 108.81 166.142 108.967 166.935 109.293C167.728 109.618 168.444 110.106 169.037 110.724C169.637 111.318 170.111 112.028 170.43 112.809C170.749 113.59 170.906 114.427 170.892 115.271C170.908 116.992 170.242 118.65 169.037 119.883Z" fill="#8CC4F4"/>
<path d="M189.752 145.597H168.798L171.854 136.221H192.895L189.752 145.597Z" fill="#8CC4F4"/>
<path d="M210.597 145.358L212.976 150.753C213.142 150.832 213.319 150.884 213.5 150.906H214.199H221.249L218.106 160.282H213.74C211.89 160.226 210.073 159.774 208.415 158.955C206.686 158.116 205.332 156.666 204.617 154.887L202.15 149.296L198.527 160.173H188.617L207.563 101.848H217.473L206.144 136.852L218.892 127.366L224.501 134.959L210.597 145.358Z" fill="#8CC4F4"/>
<path d="M256.368 160.325H247.136C246.192 160.338 245.253 160.184 244.363 159.868C243.59 159.54 242.858 159.124 242.181 158.629C241.201 159.208 240.162 159.682 239.081 160.043C238.021 160.415 236.923 160.67 235.807 160.804L234.65 160.956H233.515C231.58 160.967 229.671 160.511 227.949 159.629C226.138 158.656 224.685 157.131 223.802 155.278C223.445 154.494 223.16 153.678 222.951 152.842C222.757 152.051 222.662 151.24 222.667 150.427C222.658 148.776 222.985 147.14 223.628 145.619C224.249 144.064 225.079 142.601 226.094 141.268C229.064 137.169 233.19 134.041 237.946 132.283C242.654 130.545 247.618 129.597 252.636 129.477H253.989V138.962C251.968 138.964 249.949 139.087 247.943 139.332C245.972 139.583 244.038 140.065 242.181 140.767C240.519 141.333 238.946 142.131 237.51 143.139C236.042 144.148 234.758 145.399 233.712 146.837C233.712 146.968 233.537 147.12 233.428 147.294C233.283 147.51 233.152 147.736 233.035 147.968C232.91 148.147 232.8 148.337 232.708 148.534C232.708 148.73 232.489 148.947 232.38 149.209C232.271 149.47 232.249 149.622 232.184 149.861C232.156 150.085 232.156 150.312 232.184 150.536C232.186 150.795 232.288 151.044 232.468 151.232C232.585 151.36 232.731 151.459 232.894 151.519C233.058 151.58 233.233 151.601 233.406 151.58C234.461 151.657 235.519 151.471 236.483 151.038C237.447 150.605 238.288 149.939 238.928 149.1C240.14 147.45 241.104 145.632 241.788 143.704C241.919 143.255 242.05 142.841 242.181 142.464C242.29 142.094 242.421 141.703 242.552 141.333L251.501 144.27L249.318 150.797H259.49L256.368 160.325Z" fill="#8CC4F4"/>
<path d="M279.506 145.597H258.552L261.608 136.221H282.627L279.506 145.597Z" fill="#8CC4F4"/>
<path d="M300.327 145.358L302.707 150.818C302.874 150.891 303.05 150.942 303.23 150.971H303.951H311.001L307.858 160.347H303.492C301.642 160.291 299.825 159.839 298.166 159.02C296.433 158.188 295.077 156.735 294.368 154.952L291.88 149.361L288.279 160.238H278.369L297.315 101.913H307.203L295.875 136.917L308.644 127.432L314.253 135.024L300.327 145.358Z" fill="#8CC4F4"/>
<path d="M346.122 160.325H336.889C335.946 160.338 335.007 160.184 334.117 159.868C333.344 159.54 332.612 159.124 331.935 158.629C330.955 159.208 329.916 159.682 328.835 160.043C327.775 160.415 326.677 160.67 325.561 160.804L324.404 160.956H323.269C321.334 160.967 319.424 160.511 317.703 159.629C315.892 158.656 314.439 157.131 313.556 155.278C313.198 154.494 312.914 153.678 312.705 152.842C312.511 152.051 312.416 151.24 312.421 150.427C312.416 148.778 312.735 147.145 313.36 145.619C313.989 144.063 314.826 142.6 315.848 141.268C318.818 137.169 322.944 134.041 327.7 132.283C332.408 130.545 337.371 129.597 342.39 129.477H343.721V138.962C341.7 138.965 339.681 139.089 337.675 139.332C335.712 139.586 333.786 140.068 331.935 140.767C330.273 141.333 328.7 142.131 327.264 143.139C325.796 144.148 324.512 145.399 323.466 146.837C323.377 146.998 323.274 147.15 323.16 147.294C323.051 147.49 322.92 147.707 322.789 147.968C322.664 148.147 322.554 148.337 322.462 148.534C322.34 148.752 322.23 148.978 322.134 149.209C322.134 149.383 322.003 149.622 321.938 149.861C321.875 150.081 321.838 150.307 321.829 150.536C321.841 150.797 321.95 151.045 322.134 151.232C322.251 151.36 322.398 151.459 322.561 151.519C322.724 151.58 322.9 151.601 323.073 151.58C324.128 151.657 325.185 151.471 326.15 151.038C327.114 150.605 327.955 149.939 328.595 149.1C329.807 147.45 330.77 145.632 331.454 143.704C331.585 143.248 331.695 142.834 331.826 142.464L332.218 141.333L341.168 144.27L338.985 150.797H349.156L346.122 160.325Z" fill="#8CC4F4"/>
<path d="M369.236 145.597H348.304L351.36 136.221H372.379L369.236 145.597Z" fill="#8CC4F4"/>
<path d="M402.916 160.326H382.18C380.516 160.346 378.87 159.973 377.378 159.238C375.885 158.522 374.661 157.348 373.886 155.888C373.505 155.166 373.219 154.398 373.035 153.603C372.843 152.79 372.748 151.958 372.751 151.123C372.751 150.949 372.751 150.732 372.751 150.514C372.774 150.275 372.774 150.035 372.751 149.796C372.886 148.495 373.157 147.212 373.559 145.967C373.973 144.662 374.41 143.487 374.846 142.399C376.015 139.616 377.679 137.066 379.758 134.872C381.488 133.025 383.536 131.5 385.804 130.369C386.628 129.872 387.507 129.471 388.423 129.172C389.241 128.9 390.081 128.696 390.933 128.563L392.09 128.411H393.312C395.807 128.373 398.248 129.136 400.275 130.586C401.252 131.262 402.042 132.173 402.573 133.234C403.103 134.295 403.356 135.472 403.309 136.656C403.309 137.181 403.265 137.705 403.178 138.222C403.052 138.823 402.877 139.412 402.654 139.985C401.939 141.89 400.873 143.647 399.511 145.162C397.526 147.364 395.284 149.322 392.832 150.993H405.928L402.916 160.326ZM387.637 140.224C386.014 141.753 384.722 143.596 383.839 145.641C383.856 145.683 383.856 145.729 383.839 145.771C383.829 145.795 383.824 145.821 383.824 145.848C383.824 145.874 383.829 145.9 383.839 145.924C386.232 144.584 388.484 143.01 390.562 141.225C391.795 140.165 392.868 138.934 393.749 137.57C391.434 137.646 389.234 138.594 387.594 140.224H387.637Z" fill="#8CC4F4"/>
<path d="M425.093 156.344C423.735 157.687 422.113 158.734 420.328 159.419C418.544 160.105 416.636 160.413 414.725 160.326H405.121L408.155 150.949H414.703C415.364 151.004 416.029 150.927 416.658 150.721C417.288 150.516 417.87 150.186 418.37 149.753C418.804 149.237 419.132 148.641 419.334 147.999C419.536 147.357 419.609 146.681 419.549 146.011C419.557 145.161 419.461 144.314 419.265 143.487C419.108 142.731 418.852 142 418.501 141.312L415.424 145.532C414.958 146.122 414.527 146.74 414.136 147.381L406.518 141.877C409.254 138.092 411.473 135.061 413.175 132.784C414.769 130.499 416.253 128.433 417.541 126.518C418.829 124.604 419.724 123.646 419.724 123.581L428.193 127.758C428.193 127.758 427.756 128.346 427.058 129.368C426.359 130.39 425.464 131.544 424.395 133.066C425.866 134.864 427.011 136.903 427.778 139.092C428.559 141.301 428.957 143.626 428.956 145.967C429.044 147.867 428.748 149.765 428.084 151.548C427.42 153.33 426.403 154.962 425.093 156.344Z" fill="#8CC4F4"/>
</g>
</g>
<g filter="url(#filter2_d)">
<path d="M444.424 66.0192C442.084 80.3073 428.603 89.9932 414.315 87.653C400.029 85.313 390.341 71.8324 392.682 57.5443C395.022 43.2577 408.504 33.5705 422.79 35.9105C437.078 38.2507 446.764 51.7325 444.424 66.0192Z" fill="#FFCC4D"/>
<path d="M402.483 51.7706C401.69 51.6406 401.151 50.8912 401.281 50.0979C401.411 49.3059 402.156 48.7682 402.948 48.895C403.173 48.9289 408.098 49.6116 412.714 45.1815C413.293 44.627 414.215 44.6422 414.773 45.2236C415.331 45.8034 415.311 46.7256 414.731 47.2829C409.017 52.767 402.748 51.8139 402.483 51.7706ZM436.978 57.4205C436.714 57.3771 430.469 56.2805 426.803 49.2602C426.43 48.5467 426.707 47.6667 427.42 47.295C428.132 46.9202 429.011 47.1984 429.384 47.9118C432.351 53.5943 437.248 54.5115 437.456 54.5471C438.245 54.6852 438.777 55.4365 438.644 56.2248C438.511 57.0163 437.769 57.5499 436.978 57.4205ZM400.366 64.7064C399.929 64.6348 399.53 64.3659 399.309 63.9429C398.935 63.2309 399.212 62.3509 399.926 61.9792C400.156 61.8591 404.681 59.5363 410.47 59.3777C407.205 57.0113 403.263 56.3259 403.213 56.3176C402.42 56.1848 401.883 55.4357 402.014 54.6425C402.144 53.8506 402.892 53.3133 403.685 53.4433C404.003 53.4953 411.512 54.7813 415.424 60.226C415.768 60.7044 415.79 61.3427 415.48 61.8437C415.169 62.3448 414.587 62.6081 414.006 62.513C407.376 61.4271 401.334 64.5284 401.274 64.56C400.983 64.7116 400.665 64.7554 400.366 64.7064ZM434.858 70.3544C434.559 70.3054 434.273 70.164 434.045 69.929C433.998 69.8784 429.227 65.006 422.63 63.9255C422.049 63.8304 421.581 63.395 421.447 62.8212C421.313 62.2471 421.537 61.6493 422.016 61.3056C427.462 57.3937 434.988 58.5703 435.305 58.6223C436.099 58.7523 436.635 59.4997 436.506 60.2919C436.378 61.0855 435.63 61.6242 434.838 61.4974C434.786 61.4889 430.831 60.881 426.982 62.0821C432.418 64.0793 435.965 67.7227 436.144 67.9114C436.7 68.491 436.682 69.4105 436.104 69.968C435.761 70.297 435.297 70.4262 434.858 70.3544ZM415.729 79.0294C415.292 78.9579 414.912 78.692 414.694 78.3066L411.043 71.817L407.147 75.5577C406.842 75.8502 406.426 75.996 406.006 75.9567C405.584 75.9186 405.201 75.6994 404.956 75.3567L403.754 73.684C403.284 73.03 403.433 72.1216 404.087 71.6517C404.741 71.1817 405.649 71.3305 406.119 71.9846L406.342 72.294L410.383 68.4134C410.709 68.1007 411.159 67.956 411.604 68.023C412.031 68.0781 412.44 68.3561 412.66 68.7494L416.341 75.2911L421.915 70.2652C422.249 69.9642 422.699 69.8401 423.149 69.9138C423.593 69.994 423.974 70.2733 424.181 70.6733L426.776 75.6394L427.085 75.4171C427.739 74.9471 428.648 75.0959 429.117 75.7499C429.587 76.404 429.439 77.3123 428.785 77.7823L427.112 78.9841C426.769 79.2305 426.35 79.3227 425.925 79.2178C425.515 79.1196 425.167 78.85 424.971 78.4756L422.47 73.6871L416.941 78.6731C416.611 78.9702 416.166 79.101 415.729 79.0294Z" fill="#664500"/>
</g>
<g filter="url(#filter3_d)">
<path d="M195.81 207.111C198.373 220.29 189.767 233.052 176.588 235.615C163.41 238.178 150.648 229.572 148.085 216.393C145.522 203.214 154.128 190.453 167.307 187.89C180.485 185.327 193.247 193.933 195.81 207.111Z" fill="#FFCC4D"/>
<path d="M179.57 222.652C180.283 226.315 177.97 227.091 175.041 227.66C172.111 228.23 169.677 228.377 168.965 224.714C168.253 221.054 169.791 216.299 172.721 215.729C175.649 215.159 178.859 218.992 179.57 222.652ZM187.082 204.681C186.918 204.713 186.745 204.715 186.572 204.681C179.101 203.257 175.447 199.634 175.295 199.481C174.77 198.95 174.774 198.095 175.305 197.571C175.834 197.047 176.685 197.049 177.211 197.577C177.244 197.608 180.488 200.771 187.076 202.027C187.809 202.168 188.291 202.873 188.151 203.606C188.044 204.167 187.607 204.579 187.082 204.681ZM155.266 210.869C154.739 210.971 154.181 210.752 153.872 210.274C153.468 209.647 153.648 208.811 154.275 208.407C159.914 204.774 161.736 200.625 161.754 200.584C162.045 199.9 162.837 199.58 163.523 199.869C164.209 200.159 164.532 200.945 164.245 201.631C164.161 201.83 162.132 206.559 155.74 210.679C155.591 210.774 155.43 210.837 155.266 210.869Z" fill="#664500"/>
<path d="M179.387 207.554L184.689 206.522L189.588 231.71L184.273 232.681L179.387 207.554ZM163.074 236.867L168.365 235.774L163.479 210.647L158.176 211.679L163.074 236.867Z" fill="#5DADEC"/>
<path d="M167.97 212.526C167.771 212.565 167.559 212.559 167.351 212.502C162.243 211.08 157.974 214.301 157.933 214.334C157.341 214.792 156.493 214.677 156.038 214.087C155.583 213.496 155.694 212.648 156.285 212.193C156.503 212.027 161.681 208.121 168.077 209.9C168.795 210.1 169.215 210.845 169.015 211.564C168.872 212.073 168.456 212.432 167.97 212.526ZM186.529 208.917C186.33 208.955 186.119 208.95 185.911 208.893C180.801 207.47 176.534 210.692 176.492 210.724C175.901 211.181 175.054 211.069 174.598 210.478C174.143 209.887 174.253 209.038 174.844 208.584C175.062 208.417 180.245 204.512 186.636 206.29C187.355 206.49 187.775 207.235 187.575 207.954C187.432 208.463 187.016 208.822 186.529 208.917Z" fill="#664500"/>
<path d="M176.589 235.615C189.768 233.052 200.22 229.787 199.935 228.323C199.651 226.858 188.736 227.749 175.558 230.312C162.379 232.875 151.926 236.14 152.211 237.604C152.496 239.069 163.41 238.178 176.589 235.615Z" fill="#5DADEC"/>
<path d="M174.784 226.335C176.98 225.908 178.53 224.374 178.245 222.91C177.96 221.446 175.949 220.605 173.752 221.032C171.556 221.459 170.006 222.993 170.291 224.457C170.576 225.921 172.587 226.762 174.784 226.335Z" fill="#E75A70"/>
</g>
</g>
<defs>
<filter id="filter0_dddd" x="0.0973177" y="0.698906" width="556.766" height="405.534" filterUnits="userSpaceOnUse" color-interpolation-filters="sRGB">
<feFlood flood-opacity="0" result="BackgroundImageFix"/>
<feColorMatrix in="SourceAlpha" type="matrix" values="0 0 0 0 0 0 0 0 0 0 0 0 0 0 0 0 0 0 127 0" result="hardAlpha"/>
<feOffset dx="0.148069" dy="2.44552"/>
<feGaussianBlur stdDeviation="2.3125"/>
<feColorMatrix type="matrix" values="0 0 0 0 0.380392 0 0 0 0 0.47451 0 0 0 0 0.545098 0 0 0 0.02275 0"/>
<feBlend mode="normal" in2="BackgroundImageFix" result="effect1_dropShadow"/>
<feColorMatrix in="SourceAlpha" type="matrix" values="0 0 0 0 0 0 0 0 0 0 0 0 0 0 0 0 0 0 127 0" result="hardAlpha"/>
<feOffset dx="0.676885" dy="11.1795"/>
<feGaussianBlur stdDeviation="6.5"/>
<feColorMatrix type="matrix" values="0 0 0 0 0.380392 0 0 0 0 0.47451 0 0 0 0 0.545098 0 0 0 0.035 0"/>
<feBlend mode="normal" in2="effect1_dropShadow" result="effect2_dropShadow"/>
<feColorMatrix in="SourceAlpha" type="matrix" values="0 0 0 0 0 0 0 0 0 0 0 0 0 0 0 0 0 0 127 0" result="hardAlpha"/>
<feOffset dx="1.71337" dy="28.2982"/>
<feGaussianBlur stdDeviation="17.4375"/>
<feColorMatrix type="matrix" values="0 0 0 0 0.380392 0 0 0 0 0.47451 0 0 0 0 0.545098 0 0 0 0.04725 0"/>
<feBlend mode="normal" in2="effect2_dropShadow" result="effect3_dropShadow"/>
<feColorMatrix in="SourceAlpha" type="matrix" values="0 0 0 0 0 0 0 0 0 0 0 0 0 0 0 0 0 0 127 0" result="hardAlpha"/>
<feOffset dx="3.38443" dy="55.8976"/>
<feGaussianBlur stdDeviation="40"/>
<feColorMatrix type="matrix" values="0 0 0 0 0.380392 0 0 0 0 0.47451 0 0 0 0 0.545098 0 0 0 0.07 0"/>
<feBlend mode="normal" in2="effect3_dropShadow" result="effect4_dropShadow"/>
<feBlend mode="normal" in="SourceGraphic" in2="effect4_dropShadow" result="shape"/>
</filter>
<filter id="filter1_i" x="76.7129" y="24.8013" width="396.766" height="245.534" filterUnits="userSpaceOnUse" color-interpolation-filters="sRGB">
<feFlood flood-opacity="0" result="BackgroundImageFix"/>
<feBlend mode="normal" in="SourceGraphic" in2="BackgroundImageFix" result="shape"/>
<feColorMatrix in="SourceAlpha" type="matrix" values="0 0 0 0 0 0 0 0 0 0 0 0 0 0 0 0 0 0 127 0" result="hardAlpha"/>
<feOffset dx="5" dy="-6"/>
<feComposite in2="hardAlpha" operator="arithmetic" k2="-1" k3="1"/>
<feColorMatrix type="matrix" values="0 0 0 0 0.779167 0 0 0 0 0.894 0 0 0 0 1 0 0 0 1 0"/>
<feBlend mode="normal" in2="shape" result="effect1_innerShadow"/>
</filter>
<filter id="filter2_d" x="386.333" y="33.562" width="64.4398" height="64.4398" filterUnits="userSpaceOnUse" color-interpolation-filters="sRGB">
<feFlood flood-opacity="0" result="BackgroundImageFix"/>
<feColorMatrix in="SourceAlpha" type="matrix" values="0 0 0 0 0 0 0 0 0 0 0 0 0 0 0 0 0 0 127 0" result="hardAlpha"/>
<feOffset dy="4"/>
<feGaussianBlur stdDeviation="3"/>
<feColorMatrix type="matrix" values="0 0 0 0 0.4 0 0 0 0 0.458824 0 0 0 0 0.498039 0 0 0 0.1 0"/>
<feBlend mode="normal" in2="BackgroundImageFix" result="effect1_dropShadow"/>
<feBlend mode="normal" in="SourceGraphic" in2="effect1_dropShadow" result="shape"/>
</filter>
<filter id="filter3_d" x="141.634" y="185.438" width="64.3072" height="62.8708" filterUnits="userSpaceOnUse" color-interpolation-filters="sRGB">
<feFlood flood-opacity="0" result="BackgroundImageFix"/>
<feColorMatrix in="SourceAlpha" type="matrix" values="0 0 0 0 0 0 0 0 0 0 0 0 0 0 0 0 0 0 127 0" result="hardAlpha"/>
<feOffset dy="4"/>
<feGaussianBlur stdDeviation="3"/>
<feColorMatrix type="matrix" values="0 0 0 0 0.4 0 0 0 0 0.458824 0 0 0 0 0.498039 0 0 0 0.1 0"/>
<feBlend mode="normal" in2="BackgroundImageFix" result="effect1_dropShadow"/>
<feBlend mode="normal" in="SourceGraphic" in2="effect1_dropShadow" result="shape"/>
</filter>
<clipPath id="clip0">
<rect width="280" height="59" fill="white" transform="translate(149 102)"/>
</clipPath>
</defs>
</svg>
