<svg width="20" height="20" viewBox="0 0 20 20" fill="none" xmlns="http://www.w3.org/2000/svg">
<path d="M8.575 3.21659L1.51666 14.9999C1.37114 15.2519 1.29414 15.5377 1.29332 15.8287C1.29251 16.1197 1.36791 16.4059 1.51202 16.6587C1.65613 16.9115 1.86393 17.1222 2.11475 17.2698C2.36557 17.4174 2.65066 17.4967 2.94166 17.4999H17.0583C17.3493 17.4967 17.6344 17.4174 17.8852 17.2698C18.1361 17.1222 18.3439 16.9115 18.488 16.6587C18.6321 16.4059 18.7075 16.1197 18.7067 15.8287C18.7059 15.5377 18.6289 15.2519 18.4833 14.9999L11.425 3.21659C11.2764 2.97168 11.0673 2.76919 10.8177 2.62866C10.5681 2.48813 10.2864 2.41431 10 2.41431C9.71355 2.41431 9.43194 2.48813 9.18233 2.62866C8.93273 2.76919 8.72356 2.97168 8.575 3.21659V3.21659Z" stroke="#E01A4F" stroke-width="2" stroke-linecap="round" stroke-linejoin="round"/>
<path d="M10 7.5V10.8333" stroke="#E01A4F" stroke-width="2" stroke-linecap="round" stroke-linejoin="round"/>
<path d="M10 14.1667H10.0083" stroke="#E01A4F" stroke-width="2" stroke-linecap="round" stroke-linejoin="round"/>
</svg>
