<svg width="24" height="24" viewBox="0 0 24 24" fill="none" xmlns="http://www.w3.org/2000/svg">
<path d="M0 8C0 4.22876 0 2.34315 1.17157 1.17157C2.34315 0 4.22876 0 8 0H16C19.7712 0 21.6569 0 22.8284 1.17157C24 2.34315 24 4.22876 24 8V16C24 19.7712 24 21.6569 22.8284 22.8284C21.6569 24 19.7712 24 16 24H8C4.22876 24 2.34315 24 1.17157 22.8284C0 21.6569 0 19.7712 0 16V8Z" fill="#1889E9"/>
<path d="M5 11.224L10.1989 18L19 7" stroke="white" stroke-width="2" stroke-linecap="round"/>
<path d="M1.17157 22.8284L2.23223 21.7678L1.17157 22.8284ZM22.8284 22.8284L23.8891 23.8891L22.8284 22.8284ZM22.8284 1.17157L21.7678 2.23223L22.8284 1.17157ZM8 1.5H16V-1.5H8V1.5ZM22.5 8V16H25.5V8H22.5ZM16 22.5H8V25.5H16V22.5ZM1.5 16V8H-1.5V16H1.5ZM8 22.5C6.07198 22.5 4.77686 22.4968 3.81078 22.3669C2.88786 22.2428 2.49287 22.0284 2.23223 21.7678L0.110913 23.8891C1.02185 24.8 2.15545 25.1714 3.41104 25.3402C4.62348 25.5032 6.15679 25.5 8 25.5V22.5ZM-1.5 16C-1.5 17.8432 -1.50319 19.3765 -1.34018 20.589C-1.17137 21.8445 -0.800027 22.9781 0.110913 23.8891L2.23223 21.7678C1.9716 21.5071 1.75715 21.1121 1.63307 20.1892C1.50319 19.2231 1.5 17.928 1.5 16H-1.5ZM22.5 16C22.5 17.928 22.4968 19.2231 22.3669 20.1892C22.2428 21.1121 22.0284 21.5071 21.7678 21.7678L23.8891 23.8891C24.8 22.9781 25.1714 21.8445 25.3402 20.589C25.5032 19.3765 25.5 17.8432 25.5 16H22.5ZM16 25.5C17.8432 25.5 19.3765 25.5032 20.589 25.3402C21.8445 25.1714 22.9781 24.8 23.8891 23.8891L21.7678 21.7678C21.5071 22.0284 21.1121 22.2428 20.1892 22.3669C19.2231 22.4968 17.928 22.5 16 22.5V25.5ZM16 1.5C17.928 1.5 19.2231 1.50319 20.1892 1.63307C21.1121 1.75715 21.5071 1.9716 21.7678 2.23223L23.8891 0.110913C22.9781 -0.800027 21.8445 -1.17137 20.589 -1.34018C19.3765 -1.50319 17.8432 -1.5 16 -1.5V1.5ZM25.5 8C25.5 6.15679 25.5032 4.62348 25.3402 3.41104C25.1714 2.15545 24.8 1.02185 23.8891 0.110913L21.7678 2.23223C22.0284 2.49287 22.2428 2.88786 22.3669 3.81078C22.4968 4.77686 22.5 6.07198 22.5 8H25.5ZM8 -1.5C6.15679 -1.5 4.62348 -1.50319 3.41104 -1.34018C2.15545 -1.17137 1.02185 -0.800027 0.110913 0.110913L2.23223 2.23223C2.49287 1.9716 2.88786 1.75715 3.81078 1.63307C4.77686 1.50319 6.07198 1.5 8 1.5V-1.5ZM1.5 8C1.5 6.07198 1.50319 4.77686 1.63307 3.81078C1.75715 2.88786 1.9716 2.49287 2.23223 2.23223L0.110913 0.110913C-0.800027 1.02185 -1.17137 2.15545 -1.34018 3.41104C-1.50319 4.62348 -1.5 6.15679 -1.5 8H1.5Z" fill="#1889E9"/>
</svg>
