<svg width="40" height="41" viewBox="0 0 40 41" fill="none" xmlns="http://www.w3.org/2000/svg">
<path d="M5.40778 10.6284C6.45345 9.89754 8.02973 10.0377 8.96861 10.813L7.89179 9.24789C7.02523 8.012 7.33559 6.67489 8.57259 5.80721C9.80959 4.94287 13.3148 7.26669 13.3148 7.26669C12.4404 6.01857 12.604 4.43672 13.8521 3.56126C15.1002 2.68913 16.8222 2.99059 17.6966 4.24094L29.2879 20.6156L27.8106 34.9379L15.4818 30.4415L4.7281 14.4973C3.84596 13.2414 4.15076 11.5094 5.40778 10.6284Z" fill="#EF9645"/>
<path d="M2.99826 19.738C2.99826 19.738 1.73902 17.9025 3.5756 16.6443C5.40997 15.3862 6.6681 17.2206 6.6681 17.2206L12.5094 25.7394C12.7107 25.4035 12.931 25.072 13.1768 24.7449L5.06957 12.9233C5.06957 12.9233 3.81143 11.089 5.64691 9.83084C7.48127 8.57271 8.73941 10.4071 8.73941 10.4071L16.365 21.5278C16.6486 21.2964 16.939 21.0639 17.2382 20.8359L8.3979 7.94197C8.3979 7.94197 7.13976 6.10761 8.97524 4.84947C10.8096 3.59134 12.0677 5.4257 12.0677 5.4257L20.9081 18.3174C21.2329 18.1183 21.5544 17.9459 21.877 17.7634L13.614 5.71382C13.614 5.71382 12.3558 3.87945 14.1902 2.62132C16.0246 1.36318 17.2827 3.19755 17.2827 3.19755L26.0196 15.9391L27.3478 17.8769C21.8436 21.6524 21.3196 28.7551 24.4644 33.3416C25.0929 34.2593 26.0107 33.6308 26.0107 33.6308C22.2363 28.1255 23.3887 21.9394 28.894 18.165L27.271 10.0422C27.271 10.0422 26.6648 7.90192 28.8039 7.29455C30.9442 6.68829 31.5516 8.82856 31.5516 8.82856L33.426 14.3951C34.1691 16.6021 34.96 18.8013 36.0068 20.8815C38.9625 26.755 37.1971 34.0547 31.6239 37.878C25.5446 42.0462 17.2338 40.4966 13.0645 34.4184L2.99826 19.738Z" fill="#FFDC5D"/>
<path d="M13.3485 36.0972C8.89891 36.0972 4.40255 31.6009 4.40255 27.1512C4.40255 26.5361 3.95203 26.0388 3.33686 26.0388C2.7217 26.0388 2.17773 26.5361 2.17773 27.1512C2.17773 33.8257 6.67409 38.322 13.3485 38.322C13.9637 38.322 14.461 37.7781 14.461 37.1629C14.461 36.5477 13.9637 36.0972 13.3485 36.0972Z" fill="#1889E9"/>
<path d="M7.78686 38.2751C4.44964 38.2751 2.22482 36.0502 2.22482 32.713C2.22482 32.0979 1.72757 31.6006 1.11241 31.6006C0.497247 31.6006 0 32.0979 0 32.713C0 37.1627 3.33723 40.4999 7.78686 40.4999C8.40203 40.4999 8.89927 40.0026 8.89927 39.3875C8.89927 38.7723 8.40203 38.2751 7.78686 38.2751ZM26.6978 2.67798C26.0838 2.67798 25.5854 3.17634 25.5854 3.79039C25.5854 4.40444 26.0838 4.9028 26.6978 4.9028C31.1475 4.9028 35.5971 8.89523 35.5971 13.8021C35.5971 14.4161 36.0954 14.9145 36.7095 14.9145C37.3235 14.9145 37.8219 14.4161 37.8219 13.8021C37.8219 7.66825 33.3723 2.67798 26.6978 2.67798Z" fill="#1889E9"/>
<path d="M32.2599 0.5C31.6458 0.5 31.1475 0.951638 31.1475 1.56569C31.1475 2.17974 31.6458 2.72482 32.2599 2.72482C35.5971 2.72482 37.7752 5.19993 37.7752 8.24014C37.7752 8.85419 38.3192 9.35255 38.9343 9.35255C39.5495 9.35255 40 8.85419 40 8.24014C40 3.97183 36.7095 0.5 32.2599 0.5Z" fill="#1889E9"/>
</svg>
