<svg width="115" height="66" viewBox="0 0 115 66" fill="none" xmlns="http://www.w3.org/2000/svg">
<g clip-path="url(#clip0)">
<path d="M21.5535 55.8784C21.5835 55.7716 21.5889 55.6593 21.5691 55.5501C21.5493 55.4409 21.505 55.3377 21.4394 55.2482C21.3738 55.1588 21.2888 55.0856 21.1908 55.0341C21.0927 54.9827 20.9842 54.9543 20.8736 54.9512L11.8034 54.9853C11.7636 54.986 11.7242 54.9772 11.6884 54.9597C11.6526 54.9422 11.6215 54.9164 11.5976 54.8844C11.5737 54.8525 11.5577 54.8153 11.5509 54.7759C11.5441 54.7366 11.5468 54.6961 11.5586 54.658L14.9923 43.1084L18.3239 32.1996C18.3639 32.093 18.3766 31.9781 18.3608 31.8652C18.3451 31.7524 18.3015 31.6453 18.2338 31.5538C18.1662 31.4623 18.0768 31.3892 17.9737 31.3412C17.8707 31.2932 17.7573 31.2719 17.6439 31.2792H8.30861C8.13171 31.2781 7.95911 31.3338 7.81599 31.4381C7.67287 31.5423 7.56676 31.6897 7.51311 31.8587L1.07425 52.1626C0.18355 54.6853 -0.564375 57.617 0.679882 60.3919C2.93042 65.4781 6.87397 65.6486 13.7072 65.6145C19.2825 65.4917 20.0237 61.1351 21.5535 55.8784Z" fill="url(#paint0_linear)"/>
<path d="M62.0089 45.5561L69.4269 50.5605C69.567 50.6601 69.7396 50.7028 69.9099 50.68C70.0801 50.6572 70.2355 50.5707 70.3447 50.4377C71.4938 49.0741 74.6146 45.3106 74.941 44.9834C76.2057 46.5379 76.8312 51.5695 75.281 53.799C75.0821 54.069 74.8244 54.2898 74.5274 54.4446C74.2305 54.5994 73.9022 54.6841 73.5676 54.6922L64.6198 55.1081C64.3854 55.1195 64.1599 55.2018 63.973 55.3442C63.7861 55.4866 63.6466 55.6823 63.5727 55.9057L60.5335 65.1236C60.5119 65.186 60.5054 65.2525 60.5146 65.3179C60.5237 65.3832 60.5482 65.4454 60.5861 65.4994C60.624 65.5533 60.6741 65.5975 60.7323 65.6282C60.7906 65.6589 60.8552 65.6752 60.921 65.6759C70.5691 65.9077 81.7606 66.644 85.5682 56.0762C88.4443 48.0924 85.2622 42.6516 82.2638 36.3518C82.1218 36.0542 82.0556 35.7259 82.0711 35.3964C82.0865 35.0668 82.1831 34.7463 82.3522 34.4633L85.201 29.6907C85.2382 29.6275 85.2617 29.5572 85.2701 29.4844C85.2786 29.4115 85.2716 29.3377 85.2499 29.2677C85.2281 29.1977 85.1919 29.133 85.1437 29.0779C85.0955 29.0227 85.0362 28.9783 84.9699 28.9475L77.178 25.2931C76.9701 25.1966 76.7354 25.1751 76.5136 25.2323C76.2918 25.2894 76.0965 25.4217 75.9609 25.6067C72.3165 30.6861 63.5727 42.6516 61.8933 44.9629C61.8386 45.0593 61.8203 45.1722 61.8415 45.281C61.8627 45.3898 61.9221 45.4874 62.0089 45.5561Z" fill="url(#paint1_linear)"/>
<path d="M90.0489 45.0368L97.4668 50.0412C97.607 50.1408 97.7796 50.1835 97.9499 50.1607C98.1201 50.138 98.2755 50.0514 98.3847 49.9184C99.527 48.5549 102.648 44.7913 102.974 44.4641C104.239 46.0186 104.864 51.0503 103.314 53.2797C103.116 53.5501 102.858 53.7711 102.561 53.926C102.264 54.0808 101.935 54.1653 101.601 54.1729L92.653 54.5888C92.4186 54.6002 92.1931 54.6826 92.0062 54.8249C91.8193 54.9673 91.6798 55.1631 91.6059 55.3865L88.5667 64.6044C88.5451 64.6667 88.5386 64.7332 88.5478 64.7986C88.5569 64.8639 88.5814 64.9261 88.6193 64.9801C88.6572 65.034 88.7073 65.0782 88.7655 65.1089C88.8237 65.1396 88.8884 65.1559 88.9542 65.1566C98.6023 65.3884 109.794 66.1247 113.601 55.5569C116.477 47.5731 113.295 42.1324 110.297 35.8326C110.159 35.5339 110.095 35.2062 110.11 34.8774C110.126 34.5486 110.22 34.2284 110.385 33.944L113.234 29.1714C113.272 29.1086 113.295 29.0388 113.304 28.9662C113.313 28.8937 113.307 28.8201 113.286 28.7501C113.265 28.6801 113.229 28.6154 113.182 28.56C113.134 28.5045 113.076 28.4597 113.01 28.4283L105.211 24.7738C105.003 24.6773 104.769 24.6558 104.547 24.713C104.325 24.7701 104.13 24.9024 103.994 25.0874C100.35 30.1668 91.6059 42.1324 89.9265 44.4436C89.8726 44.5408 89.8553 44.6541 89.8777 44.763C89.9002 44.8719 89.9609 44.9691 90.0489 45.0368Z" fill="url(#paint2_linear)"/>
<path d="M20.0101 24.7067C27.2105 18.3319 18.3783 7.69595 10.9739 13.6548C3.36562 19.941 13.2177 30.4952 20.0101 24.7067Z" fill="url(#paint3_linear)"/>
<path d="M37.6541 53.8467C42.8487 60.3443 38.5312 64.8101 54.6521 65.5123C54.8856 65.5267 55.1172 65.4629 55.3104 65.3308C55.5037 65.1987 55.6476 65.0059 55.7196 64.7828L58.5821 55.8512C58.6097 55.7533 58.6151 55.6504 58.5979 55.5501C58.5806 55.4498 58.5412 55.3547 58.4826 55.2716C58.4239 55.1886 58.3474 55.1198 58.2587 55.0702C58.1701 55.0207 58.0715 54.9917 57.9702 54.9854L51.2117 54.8422C50.7767 54.8369 50.3525 54.7053 49.9905 54.4633C49.6284 54.2213 49.3441 53.8793 49.172 53.4786L47.1322 48.706C47.4314 48.4401 47.513 48.4129 47.9073 48.1129L61.2202 38.0359C61.4749 37.8412 61.6422 37.5532 61.6856 37.235C61.7289 36.9167 61.6447 36.5943 61.4514 36.3382L56.5083 29.7589C56.3744 29.5809 56.1762 29.4627 55.9563 29.4296C55.7364 29.3964 55.5123 29.451 55.3321 29.5816C52.9999 31.2384 45.5208 36.6928 42.5019 39.0927C42.4475 37.7291 45.9355 27.3863 46.7718 24.8636L54.2034 0.557583C54.2127 0.524528 54.2144 0.48977 54.2083 0.455963C54.2022 0.422155 54.1884 0.390186 54.1681 0.36254C54.1477 0.334895 54.1213 0.312288 54.0909 0.296458C54.0605 0.280628 54.0269 0.272018 53.9926 0.27124L44.4737 0.346228C44.248 0.346701 44.0284 0.419824 43.8473 0.554836C43.6661 0.689849 43.533 0.879602 43.4674 1.09619C38.7488 16.6684 28.2508 47.3561 23.165 64.6737C23.132 64.7784 23.1247 64.8895 23.1438 64.9976C23.1629 65.1058 23.2077 65.2076 23.2744 65.2947C23.3412 65.3817 23.4279 65.4513 23.5272 65.4975C23.6265 65.5437 23.7355 65.5651 23.8449 65.56H32.9558C33.1712 65.5592 33.3814 65.4938 33.5595 65.3723C33.7376 65.2508 33.8754 65.0788 33.9553 64.8783C34.914 62.3488 36.9266 56.008 37.6541 53.8467Z" fill="url(#paint4_linear)"/>
</g>
<defs>
<linearGradient id="paint0_linear" x1="10.7786" y1="31.2778" x2="10.7786" y2="65.6036" gradientUnits="userSpaceOnUse">
<stop stop-color="#1889E9"/>
<stop offset="1" stop-color="#056FCA"/>
</linearGradient>
<linearGradient id="paint1_linear" x1="73.5751" y1="25.2009" x2="73.5751" y2="65.7654" gradientUnits="userSpaceOnUse">
<stop stop-color="#1889E9"/>
<stop offset="1" stop-color="#056FCA"/>
</linearGradient>
<linearGradient id="paint2_linear" x1="101.608" y1="24.6816" x2="101.608" y2="65.2461" gradientUnits="userSpaceOnUse">
<stop stop-color="#1889E9"/>
<stop offset="1" stop-color="#056FCA"/>
</linearGradient>
<linearGradient id="paint3_linear" x1="15.435" y1="11.9026" x2="15.435" y2="26.3781" gradientUnits="userSpaceOnUse">
<stop stop-color="#1889E9"/>
<stop offset="1" stop-color="#056FCA"/>
</linearGradient>
<linearGradient id="paint4_linear" x1="42.3733" y1="0.27124" x2="42.3733" y2="65.5345" gradientUnits="userSpaceOnUse">
<stop stop-color="#1889E9"/>
<stop offset="1" stop-color="#056FCA"/>
</linearGradient>
<clipPath id="clip0">
<rect width="114.73" height="65.432" fill="white" transform="translate(0 0.29834)"/>
</clipPath>
</defs>
</svg>
