<svg width="179" height="113" viewBox="0 0 179 113" fill="none" xmlns="http://www.w3.org/2000/svg">
<path d="M7.18373 58.5004C14.1165 56.9261 12.3211 45.1652 4.27805 47.0766C-2.80938 48.767 -0.572112 60.2571 7.18373 58.5004Z" fill="#1889E9"/>
<path d="M179 55.1361C178.608 58.5113 178.613 61.765 177.978 65.0795C175.172 79.6024 165.891 92.0813 156.522 103.223C154.617 105.488 148.816 110.93 145.817 112.029C148.407 105.107 150.087 98.4727 149.28 90.5511C134.918 97.9811 116.428 102.456 96.2488 102.456C50.5534 102.456 13.4977 79.514 13.4977 51.2195C13.5047 48.419 13.8874 45.6321 14.6357 42.9333C11.4924 40.2431 10.2164 36.5862 10.1722 32.1558C10.1545 28.2557 11.6859 24.5081 14.4297 21.7363C17.1735 18.9645 20.9054 17.3952 24.8055 17.3733C26.766 17.3902 28.7037 17.7958 30.5064 18.5665C31.0588 18.793 31.3682 18.898 31.7714 19.1189C46.9406 7.46306 70.1861 0 96.2488 0C141.939 0 178.994 22.9416 178.994 51.2306V55.1416L179 55.1361Z" fill="#1889E9"/>
<path d="M68.0835 64.0259H67.3795H64.6209H59.3497L62.3201 54.0434L65.3649 44.0781H56.1733L50.5988 61.6306C49.849 63.7509 49.2195 66.215 50.2668 68.5416C52.1613 72.8222 55.4808 72.9655 61.2327 72.9368C64.1458 72.9368 65.3935 71.6818 66.1662 69.8767C66.2921 69.5788 66.4065 69.3037 66.5096 68.9771C67.0819 67.3267 67.4825 65.6534 68.0835 63.9858V64.0259Z" fill="white"/>
<path d="M102.143 55.8829L109.16 60.6105C109.287 60.4754 109.406 60.3318 109.514 60.1808L113.366 55.5964C114.608 57.1207 115.118 62.6219 112.84 63.7222L104.009 64.1405L101.09 72.9769C109.314 73.1546 119.044 73.974 122.312 64.9199C124.859 57.8656 121.768 53.1724 119.147 47.5278L122.249 42.2959L114.625 38.7258L106.613 49.6768L105.771 50.8229L105.285 51.4819C104.793 52.1409 104.312 52.8285 103.803 53.5162L103.534 53.8715L102.864 54.817L102.469 55.3614L102.246 55.6938L102.183 55.8027C102.172 55.8268 102.158 55.8498 102.143 55.8714V55.8829Z" fill="white"/>
<path d="M66.5553 38.6056C72.6162 33.2476 65.1817 24.3081 58.949 29.3165C58.3875 29.7264 57.9225 30.2546 57.5868 30.8638C53.8495 36.8693 61.9079 42.7144 66.5553 38.6056Z" fill="white"/>
<path d="M125.803 55.2755L132.82 60.0031C132.945 59.8678 133.062 59.7242 133.169 59.5733L137.021 54.989C138.268 56.5133 138.778 62.0145 136.5 63.1148L127.669 63.5331L124.744 72.3695C132.968 72.5471 142.698 73.3666 145.972 64.3067C148.519 57.2582 145.428 52.5649 142.801 46.9204L145.909 41.6885L138.285 38.1184L130.273 49.0694L129.437 50.2154L128.951 50.8745C128.459 51.5335 127.978 52.2211 127.463 52.9088L127.199 53.2641L126.53 54.2096L126.135 54.754L125.912 55.0864L125.849 55.1952C125.833 55.2169 125.82 55.2399 125.809 55.264L125.803 55.2755Z" fill="white"/>
<path d="M81.4074 63.0976C85.8544 68.6447 82.0255 72.4325 96.3795 72.9254L99.2412 64.066L96.0075 63.9973L91.5834 63.9113L89.3799 58.7539L89.6604 58.5247C89.7233 58.4731 89.8378 58.4158 90.0324 58.2611L102.051 49.1782L96.8546 42.273L96.6828 42.3876L94.2562 44.1698L92.3389 45.5852L91.9554 45.8603L91.2343 46.3646C90.8107 46.6683 90.3815 46.9777 89.9694 47.2872L88.8248 48.1468C87.3596 49.2527 86.1405 50.2613 85.4995 50.7083C85.4537 49.5622 88.3898 40.8748 89.0937 38.7545L95.4237 18.1248H94.4679L90.9595 18.1534L86.524 18.1878C85.4652 22.9613 78.2252 42.8919 76.1419 50.2097L69.0164 72.9999H78.0764C78.7231 71.5214 80.7377 65.1663 81.4188 63.1492L81.4074 63.0976Z" fill="white"/>
</svg>
