<svg width="286" height="108" viewBox="0 0 286 108" fill="none" xmlns="http://www.w3.org/2000/svg">
<rect x="0.730042" y="107.794" width="107.559" height="285.032" rx="4" transform="rotate(-90 0.730042 107.794)" fill="#1889E9"/>
<g clip-path="url(#clip0)">
<path d="M107.435 75.534C107.465 75.4271 107.47 75.3148 107.451 75.2056C107.431 75.0964 107.386 74.9932 107.321 74.9038C107.255 74.8143 107.17 74.7411 107.072 74.6897C106.974 74.6382 106.866 74.6098 106.755 74.6067L97.6848 74.6408C97.645 74.6415 97.6056 74.6327 97.5698 74.6152C97.534 74.5977 97.5029 74.5719 97.479 74.5399C97.4551 74.508 97.4391 74.4708 97.4323 74.4314C97.4256 74.3921 97.4282 74.3516 97.4401 74.3135L100.874 62.7639L104.205 51.8552C104.245 51.7485 104.258 51.6336 104.242 51.5208C104.227 51.4079 104.183 51.3009 104.115 51.2093C104.048 51.1178 103.958 51.0447 103.855 50.9967C103.752 50.9487 103.639 50.9275 103.525 50.9347H94.19C94.0131 50.9337 93.8405 50.9893 93.6974 51.0936C93.5543 51.1978 93.4482 51.3452 93.3945 51.5143L86.9557 71.8182C86.065 74.3408 85.3171 77.2725 86.5613 80.0474C88.8119 85.1336 92.7554 85.3041 99.5886 85.27C105.164 85.1473 105.905 80.7906 107.435 75.534Z" fill="white"/>
<path d="M147.89 65.2116L155.308 70.216C155.448 70.3156 155.621 70.3583 155.791 70.3355C155.962 70.3128 156.117 70.2262 156.226 70.0932C157.375 68.7297 160.496 64.9661 160.822 64.6389C162.087 66.1934 162.713 71.2251 161.162 73.4545C160.964 73.7245 160.706 73.9453 160.409 74.1001C160.112 74.2549 159.784 74.3396 159.449 74.3477L150.501 74.7636C150.267 74.775 150.041 74.8574 149.854 74.9997C149.668 75.1421 149.528 75.3379 149.454 75.5613L146.415 84.7792C146.393 84.8415 146.387 84.908 146.396 84.9734C146.405 85.0387 146.43 85.1009 146.468 85.1549C146.505 85.2088 146.555 85.253 146.614 85.2837C146.672 85.3144 146.737 85.3307 146.802 85.3314C156.451 85.5632 167.642 86.2995 171.45 75.7317C174.326 67.7479 171.144 62.3072 168.145 56.0074C168.003 55.7097 167.937 55.3815 167.952 55.0519C167.968 54.7224 168.064 54.4018 168.234 54.1188L171.082 49.3462C171.12 49.283 171.143 49.2127 171.152 49.1399C171.16 49.067 171.153 48.9932 171.131 48.9232C171.11 48.8532 171.073 48.7885 171.025 48.7334C170.977 48.6783 170.918 48.6339 170.851 48.6031L163.059 44.9486C162.852 44.8521 162.617 44.8306 162.395 44.8878C162.173 44.9449 161.978 45.0772 161.842 45.2622C158.198 50.3416 149.454 62.3072 147.775 64.6184C147.72 64.7148 147.702 64.8277 147.723 64.9365C147.744 65.0453 147.803 65.1429 147.89 65.2116Z" fill="white"/>
<path d="M175.93 64.6923L183.348 69.6967C183.488 69.7963 183.661 69.839 183.831 69.8162C184.002 69.7935 184.157 69.7069 184.266 69.574C185.408 68.2104 188.529 64.4469 188.856 64.1196C190.12 65.6741 190.746 70.7058 189.196 72.9353C188.997 73.2056 188.739 73.4266 188.442 73.5815C188.145 73.7363 187.817 73.8208 187.482 73.8284L178.534 74.2443C178.3 74.2557 178.074 74.3381 177.888 74.4804C177.701 74.6228 177.561 74.8186 177.487 75.042L174.448 84.2599C174.427 84.3222 174.42 84.3888 174.429 84.4541C174.438 84.5194 174.463 84.5816 174.501 84.6356C174.539 84.6896 174.589 84.7337 174.647 84.7644C174.705 84.7951 174.77 84.8115 174.836 84.8121C184.484 85.0439 195.675 85.7803 199.483 75.2124C202.359 67.2286 199.177 61.7879 196.178 55.4881C196.04 55.1894 195.977 54.8617 195.992 54.5329C196.007 54.2041 196.102 53.8839 196.267 53.5995L199.116 48.8269C199.153 48.7642 199.177 48.6943 199.186 48.6218C199.195 48.5492 199.188 48.4756 199.167 48.4056C199.146 48.3357 199.111 48.2709 199.063 48.2155C199.016 48.1601 198.957 48.1152 198.891 48.0838L191.093 44.4294C190.885 44.3328 190.65 44.3113 190.428 44.3685C190.206 44.4256 190.011 44.5579 189.876 44.743C186.231 49.8223 177.487 61.7879 175.808 64.0992C175.754 64.1963 175.737 64.3097 175.759 64.4185C175.782 64.5274 175.842 64.6246 175.93 64.6923Z" fill="white"/>
<path d="M105.892 44.3623C113.092 37.9875 104.26 27.3515 96.8554 33.3104C89.247 39.5965 99.0991 50.1507 105.892 44.3623Z" fill="white"/>
<path d="M123.536 73.5023C128.73 79.9998 124.413 84.4656 140.534 85.1678C140.767 85.1822 140.999 85.1184 141.192 84.9863C141.385 84.8542 141.529 84.6614 141.601 84.4383L144.464 75.5067C144.491 75.4088 144.496 75.3059 144.479 75.2056C144.462 75.1053 144.423 75.0102 144.364 74.9272C144.305 74.8441 144.229 74.7753 144.14 74.7257C144.051 74.6762 143.953 74.6472 143.852 74.6409L137.093 74.4977C136.658 74.4925 136.234 74.3609 135.872 74.1189C135.51 73.8768 135.226 73.5348 135.053 73.1341L133.014 68.3615C133.313 68.0956 133.394 68.0684 133.789 67.7684L147.102 57.6914C147.356 57.4967 147.524 57.2087 147.567 56.8905C147.61 56.5723 147.526 56.2498 147.333 55.9937L142.39 49.4144C142.256 49.2365 142.058 49.1182 141.838 49.0851C141.618 49.0519 141.394 49.1065 141.213 49.2372C138.881 50.8939 131.402 56.3483 128.383 58.7482C128.329 57.3846 131.817 47.0418 132.653 44.5191L140.085 20.2131C140.094 20.18 140.096 20.1453 140.09 20.1115C140.084 20.0777 140.07 20.0457 140.049 20.0181C140.029 19.9904 140.003 19.9678 139.972 19.952C139.942 19.9361 139.908 19.9275 139.874 19.9268L130.355 20.0017C130.129 20.0022 129.91 20.0753 129.729 20.2104C129.548 20.3454 129.414 20.5351 129.349 20.7517C124.63 36.3239 114.132 67.0116 109.046 84.3292C109.013 84.4339 109.006 84.545 109.025 84.6532C109.044 84.7613 109.089 84.8632 109.156 84.9502C109.223 85.0372 109.309 85.1068 109.409 85.153C109.508 85.1992 109.617 85.2207 109.726 85.2156H118.837C119.053 85.2147 119.263 85.1493 119.441 85.0278C119.619 84.9063 119.757 84.7343 119.837 84.5338C120.795 82.0043 122.808 75.6636 123.536 73.5023Z" fill="white"/>
</g>
<defs>
<clipPath id="clip0">
<rect width="114.73" height="65.432" fill="white" transform="translate(85.8814 19.9539)"/>
</clipPath>
</defs>
</svg>
