<svg width="84" height="48" viewBox="0 0 84 48" fill="none" xmlns="http://www.w3.org/2000/svg">
<g clip-path="url(#clip0)">
<path d="M15.7805 40.7728C15.8025 40.6944 15.8064 40.6121 15.7919 40.5319C15.7775 40.4518 15.745 40.3761 15.697 40.3105C15.649 40.2449 15.5867 40.1912 15.5149 40.1534C15.4431 40.1157 15.3637 40.0949 15.2827 40.0926L8.64195 40.1176C8.61279 40.1181 8.58393 40.1117 8.55773 40.0988C8.53153 40.086 8.50873 40.067 8.49123 40.0436C8.47373 40.0202 8.46204 39.9929 8.45708 39.964C8.45213 39.9351 8.45406 39.9055 8.46273 39.8775L10.9767 31.4049L13.4159 23.4024C13.4452 23.3241 13.4545 23.2398 13.443 23.157C13.4315 23.0743 13.3995 22.9957 13.35 22.9286C13.3005 22.8614 13.235 22.8078 13.1596 22.7726C13.0841 22.7374 13.0011 22.7218 12.9181 22.7272H6.08321C5.9537 22.7264 5.82733 22.7672 5.72254 22.8437C5.61776 22.9202 5.54007 23.0283 5.50079 23.1523L0.786552 38.0469C0.134425 39.8975 -0.413172 42.0482 0.497816 44.0838C2.14556 47.815 5.03284 47.94 10.0358 47.915C14.1178 47.825 14.6604 44.629 15.7805 40.7728Z" fill="white"/>
<path d="M45.4 33.2004L50.8311 36.8715C50.9337 36.9446 51.0601 36.9759 51.1847 36.9592C51.3094 36.9425 51.4232 36.879 51.5031 36.7815C52.3444 35.7812 54.6294 33.0203 54.8683 32.7802C55.7942 33.9206 56.2522 37.6118 55.1172 39.2473C54.9716 39.4453 54.7829 39.6073 54.5655 39.7208C54.3481 39.8344 54.1077 39.8965 53.8627 39.9025L47.3116 40.2076C47.14 40.216 46.9749 40.2764 46.838 40.3808C46.7012 40.4852 46.599 40.6288 46.545 40.7927L44.3198 47.5549C44.304 47.6006 44.2992 47.6494 44.3059 47.6973C44.3126 47.7453 44.3306 47.7909 44.3583 47.8305C44.386 47.8701 44.4227 47.9024 44.4654 47.925C44.508 47.9475 44.5554 47.9595 44.6035 47.96C51.6674 48.13 59.8613 48.6702 62.649 40.9178C64.7548 35.0609 62.425 31.0697 60.2297 26.4483C60.1258 26.2299 60.0773 25.9891 60.0886 25.7474C60.0999 25.5056 60.1706 25.2704 60.2944 25.0628L62.3802 21.5617C62.4074 21.5154 62.4247 21.4638 62.4308 21.4104C62.437 21.3569 62.4319 21.3028 62.416 21.2514C62.4 21.2 62.3736 21.1526 62.3383 21.1122C62.3029 21.0717 62.2596 21.0392 62.211 21.0166L56.5061 18.3357C56.354 18.2649 56.1821 18.2491 56.0197 18.2911C55.8573 18.333 55.7143 18.4301 55.615 18.5658C52.9468 22.292 46.545 31.0697 45.3154 32.7652C45.2754 32.8359 45.2619 32.9187 45.2774 32.9986C45.293 33.0784 45.3365 33.15 45.4 33.2004Z" fill="white"/>
<path d="M65.9296 32.8194L71.3607 36.4906C71.4633 36.5636 71.5897 36.5949 71.7144 36.5782C71.839 36.5615 71.9528 36.498 72.0328 36.4005C72.8691 35.4002 75.154 32.6393 75.393 32.3993C76.3189 33.5396 76.7769 37.2308 75.6419 38.8663C75.4965 39.0646 75.3079 39.2268 75.0904 39.3404C74.8729 39.454 74.6324 39.5159 74.3874 39.5215L67.8363 39.8266C67.6646 39.835 67.4995 39.8954 67.3627 39.9998C67.2259 40.1043 67.1237 40.2479 67.0696 40.4118L64.8444 47.1739C64.8286 47.2196 64.8239 47.2684 64.8306 47.3164C64.8373 47.3643 64.8552 47.41 64.883 47.4495C64.9107 47.4891 64.9474 47.5215 64.99 47.544C65.0327 47.5665 65.08 47.5785 65.1282 47.579C72.1921 47.7491 80.386 48.2892 83.1737 40.5368C85.2794 34.68 82.9497 30.6887 80.7543 26.0673C80.6534 25.8482 80.6065 25.6078 80.6178 25.3666C80.6291 25.1254 80.6981 24.8905 80.8191 24.6819L82.9049 21.1808C82.9322 21.1347 82.9497 21.0835 82.9562 21.0303C82.9627 20.9771 82.9581 20.923 82.9426 20.8717C82.9272 20.8204 82.9012 20.7729 82.8664 20.7322C82.8316 20.6916 82.7888 20.6587 82.7406 20.6356L77.0308 17.9548C76.8786 17.884 76.7068 17.8682 76.5444 17.9101C76.382 17.9521 76.239 18.0491 76.1397 18.1848C73.4714 21.911 67.0696 30.6888 65.84 32.3843C65.8006 32.4556 65.7879 32.5387 65.8043 32.6186C65.8208 32.6985 65.8653 32.7697 65.9296 32.8194Z" fill="white"/>
<path d="M14.6505 17.9056C19.9223 13.2291 13.4557 5.4267 8.03463 9.79807C2.46416 14.4095 9.6774 22.1519 14.6505 17.9056Z" fill="white"/>
<path d="M27.5686 39.2823C31.3719 44.0488 28.2108 47.3248 40.0138 47.84C40.1847 47.8506 40.3543 47.8037 40.4958 47.7068C40.6373 47.61 40.7427 47.4685 40.7954 47.3048L42.8911 40.7528C42.9113 40.6809 42.9153 40.6054 42.9027 40.5319C42.8901 40.4583 42.8612 40.3885 42.8183 40.3276C42.7753 40.2667 42.7193 40.2162 42.6544 40.1798C42.5895 40.1435 42.5173 40.1222 42.4431 40.1176L37.4949 40.0125C37.1764 40.0087 36.8658 39.9122 36.6007 39.7346C36.3357 39.5571 36.1275 39.3062 36.0015 39.0122L34.5081 35.5111C34.7271 35.3161 34.7868 35.2961 35.0756 35.076L44.8226 27.6837C45.0091 27.5408 45.1316 27.3296 45.1634 27.0961C45.1951 26.8627 45.1334 26.6261 44.9919 26.4383L41.3728 21.6118C41.2747 21.4812 41.1296 21.3945 40.9686 21.3702C40.8076 21.3459 40.6436 21.3859 40.5116 21.4818C38.8041 22.6971 33.3283 26.6984 31.118 28.4589C31.0782 27.4586 33.6319 19.8713 34.2442 18.0207L39.6853 0.190099C39.6921 0.16585 39.6933 0.140352 39.6889 0.115551C39.6844 0.0907508 39.6743 0.0672984 39.6594 0.047018C39.6445 0.0267377 39.6252 0.0101537 39.6029 -0.00145906C39.5806 -0.0130718 39.556 -0.0193882 39.5309 -0.0199585L32.5616 0.0350514C32.3964 0.0353985 32.2356 0.0890402 32.103 0.188084C31.9703 0.287127 31.8729 0.426328 31.8249 0.585211C28.3701 12.0088 20.6839 34.5208 16.9604 47.2248C16.9362 47.3016 16.9309 47.3831 16.9449 47.4624C16.9588 47.5418 16.9916 47.6165 17.0405 47.6803C17.0894 47.7442 17.1529 47.7952 17.2256 47.8291C17.2983 47.863 17.3781 47.8788 17.4582 47.875H24.1288C24.2865 47.8744 24.4404 47.8264 24.5707 47.7373C24.7011 47.6482 24.802 47.522 24.8606 47.3749C25.5625 45.5193 27.036 40.8678 27.5686 39.2823Z" fill="white"/>
</g>
<defs>
<clipPath id="clip0">
<rect width="84" height="48" fill="white"/>
</clipPath>
</defs>
</svg>
