<svg width="232" height="232" viewBox="0 0 232 232" fill="none" xmlns="http://www.w3.org/2000/svg">
<g clip-path="url(#clip0)">
<g filter="url(#filter0_di)">
<path fill-rule="evenodd" clip-rule="evenodd" d="M0.182281 117.699C-0.224915 114.836 -0.433578 111.931 -0.433578 108.991C-0.433578 62.5614 51.5984 24.9226 115.783 24.9226C179.968 24.9226 232 62.5614 232 108.991C232 155.421 179.968 193.06 115.783 193.06C87.5343 193.06 61.6395 185.769 41.4985 173.647C40.5034 183.243 40.9112 195.989 45.8816 207.659C30.7229 197.279 3.98773 156.808 0.182281 117.699Z" fill="#E8F3FD"/>
</g>
<g filter="url(#filter1_dd)">
<path d="M77.0025 65.875L95.5455 66.1443C98.9574 66.1939 101.351 65.9071 101.301 69.3191L101.391 63.1381C101.441 59.7262 99.092 56.9224 95.6801 56.8728L70.9562 56.5138C64.7752 56.424 59.7876 62.9203 61.4603 71.8316C61.4603 71.8316 66.5746 100.885 66.9379 102.693C67.8978 107.473 73.3655 112.189 79.29 112.275L100.794 112.588C104.209 112.637 100.758 106.726 100.808 103.314L100.898 97.1335C100.848 100.545 98.4188 103.28 95.0069 103.23L82.6449 103.051C79.233 103.001 77.0268 99.7481 76.5537 96.7799C76.0806 93.8117 71.9875 74.0463 71.9875 74.0463C71.0444 68.1069 73.5876 65.8254 77.0025 65.875ZM156.774 67.0335L138.231 66.7642C134.819 66.7147 129.165 66.3111 129.116 69.723L129.206 63.542C129.255 60.1301 134.954 57.4432 138.366 57.4928L163.09 57.8518C169.271 57.9416 174.071 64.58 172.137 73.4389C172.137 73.4389 166.667 102.475 166.215 104.264C165.054 108.884 159.769 113.444 153.718 113.356L131.634 113.036C128.222 112.986 128.573 107.13 128.622 103.718L128.712 97.5374C128.662 100.949 134.281 103.801 137.693 103.85L150.055 104.03C153.467 104.079 155.769 100.892 156.325 97.9384C156.881 94.9852 161.55 75.3469 161.55 75.3469C162.662 69.4374 160.189 67.0831 156.774 67.0335ZM124.788 119.118C125.1 97.6148 116.416 118.997 116.416 118.997C116.416 118.997 107.457 97.3585 107.144 118.862C106.832 140.366 96.5248 149.619 96.5248 149.619L134.513 150.171C134.51 150.171 124.476 140.622 124.788 119.118Z" fill="#8CC4F4"/>
<path d="M151.103 71.8258C150.799 92.7638 129.364 127.744 116.291 127.554C103.216 127.364 82.8085 91.7764 83.1126 70.8384C83.3458 54.7833 86.4867 51.3544 92.6677 51.4442C96.914 51.5059 111.289 51.6312 117.393 51.7198L139.026 52.0309C148.041 52.1587 151.358 54.3243 151.103 71.8258Z" fill="#BADCF8"/>
<path d="M143.356 153.391C143.307 156.803 143.968 159.582 140.556 159.532L91.1085 158.814C87.6935 158.765 87.6781 155.995 87.7277 152.583L87.7725 149.492C87.8221 146.08 91.4596 143.364 94.6799 143.41L137.69 144.035C140.911 144.082 143.451 146.888 143.401 150.3L143.356 153.391Z" fill="#BADCF8"/>
<path d="M149.464 158.502C149.43 160.851 149.912 162.759 145.533 162.696L86.0413 161.832C82.0484 161.774 81.4393 159.864 81.4735 157.515L81.4847 156.742C81.5188 154.394 83.8272 152.526 86.1759 152.56L145.668 153.424C148.014 153.458 149.51 155.381 149.475 157.73L149.464 158.502Z" fill="#BADCF8"/>
</g>
<g filter="url(#filter2_dd)">
<path d="M118.395 62.9412L108.677 51.4877L93.1357 51.2512L112.55 75.5711L128.93 69.1076L118.395 62.9412Z" fill="#A3D0F6"/>
<path d="M128.457 51.7877L118.395 62.9402L125.854 73.387L127.619 71.3096L143.999 52.0242L128.457 51.7877Z" fill="#A3D0F6"/>
<path d="M125.577 74.392C125.695 74.0872 125.772 73.7619 125.777 73.4157C125.801 71.8559 124.554 70.5707 122.994 70.547L113.574 70.4036C112.013 70.3799 110.729 71.6266 110.706 73.1864C110.7 73.5325 110.766 73.86 110.876 74.1683C106.234 76.6782 103.042 81.5489 102.956 87.2004C102.828 95.5236 109.473 102.374 117.796 102.501C126.119 102.628 132.97 95.9823 133.097 87.6591C133.183 82.0076 130.141 77.042 125.577 74.392Z" fill="#8CC4F4"/>
<path d="M120.151 77.947L117.72 77.91L113.817 80.8635C113.736 80.9414 113.654 81.1522 113.652 81.2567L113.627 82.9211C113.623 83.1839 113.831 83.4245 114.096 83.4285L116.632 83.4671L116.451 95.355C116.447 95.6206 116.655 95.8598 116.945 95.8642L119.878 95.9088C120.141 95.9128 120.356 95.6787 120.36 95.4145L120.618 78.4544C120.622 78.1916 120.415 77.951 120.151 77.947Z" fill="#BADCF8"/>
</g>
<g filter="url(#filter3_d)">
<path d="M28.4079 64.4073C36.7688 69.4923 47.6689 66.8366 52.7539 58.4756C57.8389 50.1146 55.1832 39.2145 46.8222 34.1295C38.4613 29.0446 27.5612 31.7003 22.4762 40.0612C17.3912 48.4222 20.0469 59.3223 28.4079 64.4073Z" fill="#F4900C"/>
<path d="M53.2654 57.6345L45.712 53.0407C48.6865 48.506 52.1006 46.217 55.1299 46.618C55.0273 45.9438 54.8764 45.2806 54.6982 44.6227C51.5109 44.5023 47.6738 46.4258 44.0321 52.0178L38.9681 48.938L47.6633 34.6411L45.9812 33.618L37.2855 47.9159L32.2216 44.8361C35.5126 39.0307 35.4556 34.7389 33.8826 31.9642C33.2169 32.1077 32.5578 32.2783 31.9128 32.4978C33.6623 35.0032 33.1994 39.0871 30.5411 43.8141L22.9877 39.2202L21.9647 40.9023L29.5181 45.4962C26.5436 50.0308 23.1303 52.3204 20.101 51.9193C20.2037 52.5935 20.3545 53.2567 20.5327 53.9147C23.7209 54.0356 27.5571 52.1115 31.1985 46.5182L36.2625 49.598L27.5668 63.8958L29.2489 64.9188L37.9446 50.621L43.0085 53.7008C39.7183 59.5066 39.7745 63.7979 41.3478 66.574C42.0135 66.4305 42.6731 66.259 43.3181 66.0395C41.5686 63.5342 42.0315 59.4503 44.689 54.7228L52.2424 59.3166L53.2654 57.6345Z" fill="#231F20"/>
</g>
<g filter="url(#filter4_d)">
<path d="M200.781 135.785C198.602 143.912 189.3 158.995 179.49 156.365C169.68 153.734 169.171 136.022 171.35 127.894C173.925 118.289 183.702 125.948 187.381 126.934C191.009 127.907 203.37 126.129 200.781 135.785Z" fill="#A6D388"/>
<path d="M176.078 139.677C181.222 144.999 184.901 145.985 190.793 143.622C195.129 142.156 186.039 151.549 181.134 150.234C176.228 148.918 173.056 136.238 176.078 139.677ZM174.939 134.115C174.754 134.065 174.578 133.973 174.425 133.838C173.902 133.373 173.853 132.57 174.319 132.046C175.626 130.572 177.676 129.863 179.54 130.24C180.679 130.478 182.772 131.329 183.829 134.455C184.053 135.118 183.697 135.839 183.033 136.064C182.366 136.288 181.647 135.932 181.424 135.268C180.936 133.825 180.104 132.944 179.036 132.729C178.043 132.528 176.937 132.921 176.219 133.732C175.889 134.102 175.389 134.235 174.939 134.115ZM194.561 139.375C194.112 139.255 193.745 138.89 193.646 138.403C193.429 137.342 192.669 136.449 191.709 136.126C190.686 135.791 189.517 136.124 188.371 137.129C187.842 137.593 187.042 137.54 186.58 137.013C186.117 136.486 186.169 135.684 186.696 135.222C189.173 133.042 191.401 133.349 192.518 133.718C194.32 134.323 195.74 135.963 196.135 137.893C196.276 138.58 195.832 139.25 195.145 139.391C194.944 139.434 194.746 139.425 194.561 139.375Z" fill="#5C913B"/>
<path d="M214.818 158.304C212.64 166.429 203.337 181.514 193.527 178.884C183.718 176.254 183.209 158.539 185.388 150.413C187.963 140.807 197.739 148.467 201.418 149.453C205.047 150.426 217.407 148.647 214.818 158.304Z" fill="#CBB7EA"/>
<path d="M201.645 172.673C197.735 168.54 195.059 167.823 189.605 169.445C185.269 170.911 192.304 163.835 197.21 165.15C202.115 166.465 204.667 176.111 201.645 172.673ZM187.877 157.175C187.692 157.125 187.516 157.034 187.363 156.898C186.838 156.433 186.791 155.63 187.256 155.105C188.694 153.485 191.365 152.637 193.604 153.091C195.632 153.492 197.16 154.883 197.866 156.974C198.091 157.639 197.734 158.358 197.07 158.584C196.406 158.809 195.686 158.453 195.461 157.789C195.043 156.555 194.247 155.817 193.101 155.58C191.576 155.27 189.898 155.953 189.154 156.792C188.825 157.162 188.325 157.295 187.877 157.175ZM209.282 162.914C208.831 162.793 208.466 162.428 208.366 161.94C208.144 160.843 207.031 159.414 205.557 158.918C204.447 158.553 203.385 158.789 202.407 159.649C201.881 160.112 201.077 160.06 200.615 159.533C200.153 159.006 200.205 158.204 200.732 157.741C202.39 156.284 204.379 155.838 206.366 156.511C208.533 157.24 210.422 159.31 210.855 161.433C210.995 162.118 210.551 162.789 209.864 162.929C209.664 162.972 209.467 162.963 209.282 162.914Z" fill="#9266CC"/>
</g>
</g>
<defs>
<filter id="filter0_di" x="-19.6303" y="12.1248" width="270.827" height="221.129" filterUnits="userSpaceOnUse" color-interpolation-filters="sRGB">
<feFlood flood-opacity="0" result="BackgroundImageFix"/>
<feColorMatrix in="SourceAlpha" type="matrix" values="0 0 0 0 0 0 0 0 0 0 0 0 0 0 0 0 0 0 127 0" result="hardAlpha"/>
<feOffset dy="6.39891"/>
<feGaussianBlur stdDeviation="9.59836"/>
<feColorMatrix type="matrix" values="0 0 0 0 0.380392 0 0 0 0 0.47451 0 0 0 0 0.545098 0 0 0 0.1 0"/>
<feBlend mode="normal" in2="BackgroundImageFix" result="effect1_dropShadow"/>
<feBlend mode="normal" in="SourceGraphic" in2="effect1_dropShadow" result="shape"/>
<feColorMatrix in="SourceAlpha" type="matrix" values="0 0 0 0 0 0 0 0 0 0 0 0 0 0 0 0 0 0 127 0" result="hardAlpha"/>
<feOffset dx="-4.79918" dy="-6.39891"/>
<feComposite in2="hardAlpha" operator="arithmetic" k2="-1" k3="1"/>
<feColorMatrix type="matrix" values="0 0 0 0 0.779167 0 0 0 0 0.894 0 0 0 0 1 0 0 0 1 0"/>
<feBlend mode="normal" in2="shape" result="effect2_innerShadow"/>
</filter>
<filter id="filter1_dd" x="33.4459" y="44.5944" width="165.809" height="164.558" filterUnits="userSpaceOnUse" color-interpolation-filters="sRGB">
<feFlood flood-opacity="0" result="BackgroundImageFix"/>
<feColorMatrix in="SourceAlpha" type="matrix" values="0 0 0 0 0 0 0 0 0 0 0 0 0 0 0 0 0 0 127 0" result="hardAlpha"/>
<feOffset dy="19.8857"/>
<feGaussianBlur stdDeviation="13.2571"/>
<feColorMatrix type="matrix" values="0 0 0 0 0.829167 0 0 0 0 0.829167 0 0 0 0 0.829167 0 0 0 0.2 0"/>
<feBlend mode="normal" in2="BackgroundImageFix" result="effect1_dropShadow"/>
<feColorMatrix in="SourceAlpha" type="matrix" values="0 0 0 0 0 0 0 0 0 0 0 0 0 0 0 0 0 0 127 0" result="hardAlpha"/>
<feOffset dy="1.65714"/>
<feGaussianBlur stdDeviation="3.31429"/>
<feColorMatrix type="matrix" values="0 0 0 0 0.827451 0 0 0 0 0.827451 0 0 0 0 0.827451 0 0 0 0.3 0"/>
<feBlend mode="normal" in2="effect1_dropShadow" result="effect2_dropShadow"/>
<feBlend mode="normal" in="SourceGraphic" in2="effect2_dropShadow" result="shape"/>
</filter>
<filter id="filter2_dd" x="66.256" y="44.6226" width="104.258" height="104.508" filterUnits="userSpaceOnUse" color-interpolation-filters="sRGB">
<feFlood flood-opacity="0" result="BackgroundImageFix"/>
<feColorMatrix in="SourceAlpha" type="matrix" values="0 0 0 0 0 0 0 0 0 0 0 0 0 0 0 0 0 0 127 0" result="hardAlpha"/>
<feOffset dy="19.8857"/>
<feGaussianBlur stdDeviation="13.2571"/>
<feColorMatrix type="matrix" values="0 0 0 0 0.829167 0 0 0 0 0.829167 0 0 0 0 0.829167 0 0 0 0.2 0"/>
<feBlend mode="normal" in2="BackgroundImageFix" result="effect1_dropShadow"/>
<feColorMatrix in="SourceAlpha" type="matrix" values="0 0 0 0 0 0 0 0 0 0 0 0 0 0 0 0 0 0 127 0" result="hardAlpha"/>
<feOffset dy="1.65714"/>
<feGaussianBlur stdDeviation="3.31429"/>
<feColorMatrix type="matrix" values="0 0 0 0 0.827451 0 0 0 0 0.827451 0 0 0 0 0.827451 0 0 0 0.3 0"/>
<feBlend mode="normal" in2="effect1_dropShadow" result="effect2_dropShadow"/>
<feBlend mode="normal" in="SourceGraphic" in2="effect2_dropShadow" result="shape"/>
</filter>
<filter id="filter3_d" x="7.26904" y="22.9224" width="60.6921" height="60.6921" filterUnits="userSpaceOnUse" color-interpolation-filters="sRGB">
<feFlood flood-opacity="0" result="BackgroundImageFix"/>
<feColorMatrix in="SourceAlpha" type="matrix" values="0 0 0 0 0 0 0 0 0 0 0 0 0 0 0 0 0 0 127 0" result="hardAlpha"/>
<feOffset dy="4"/>
<feGaussianBlur stdDeviation="3"/>
<feColorMatrix type="matrix" values="0 0 0 0 0.4 0 0 0 0 0.458824 0 0 0 0 0.498039 0 0 0 0.1 0"/>
<feBlend mode="normal" in2="BackgroundImageFix" result="effect1_dropShadow"/>
<feBlend mode="normal" in="SourceGraphic" in2="effect1_dropShadow" result="shape"/>
</filter>
<filter id="filter4_d" x="158.775" y="119.82" width="62.3968" height="69.3672" filterUnits="userSpaceOnUse" color-interpolation-filters="sRGB">
<feFlood flood-opacity="0" result="BackgroundImageFix"/>
<feColorMatrix in="SourceAlpha" type="matrix" values="0 0 0 0 0 0 0 0 0 0 0 0 0 0 0 0 0 0 127 0" result="hardAlpha"/>
<feOffset dy="4"/>
<feGaussianBlur stdDeviation="3"/>
<feColorMatrix type="matrix" values="0 0 0 0 0.4 0 0 0 0 0.458824 0 0 0 0 0.498039 0 0 0 0.1 0"/>
<feBlend mode="normal" in2="BackgroundImageFix" result="effect1_dropShadow"/>
<feBlend mode="normal" in="SourceGraphic" in2="effect1_dropShadow" result="shape"/>
</filter>
<clipPath id="clip0">
<rect width="232" height="232" fill="white"/>
</clipPath>
</defs>
</svg>
