<svg width="232" height="232" viewBox="0 0 232 232" fill="none" xmlns="http://www.w3.org/2000/svg">
<g clip-path="url(#clip0)">
<g filter="url(#filter0_i)">
<path d="M232 103.421C232 147.367 182.995 182.993 122.545 182.993C62.0946 182.993 13.0898 147.367 13.0898 103.421C13.0898 59.474 62.0946 23.8481 122.545 23.8481C182.995 23.8481 232 59.474 232 103.421Z" fill="#EAF5FF"/>
</g>
<g filter="url(#filter1_i)">
<ellipse cx="29.9197" cy="180.134" rx="18.6995" ry="19.0593" fill="#EAF5FF"/>
</g>
<g filter="url(#filter2_i)">
<ellipse cx="9.34974" cy="211.106" rx="9.34974" ry="9.05316" fill="#EAF5FF"/>
</g>
<path d="M103.76 30.9616C104.567 32.9004 106.437 34.0742 108.41 34.0909L110.55 39.2217C110.985 40.2718 110.489 41.4777 109.435 41.917L80.9034 53.796C79.8496 54.2318 78.6458 53.7338 78.2055 52.6851L76.0733 47.5562C77.4473 46.14 77.931 43.9876 77.126 42.0497C76.3159 40.1097 74.448 38.9381 72.4747 38.92L71.0786 35.5676C70.6393 34.5194 71.1349 33.31 72.1891 32.8707L100.719 20.9875C101.769 20.549 102.974 21.044 103.414 22.0995L104.812 25.4537C103.433 26.8668 102.954 29.0208 103.76 30.9616Z" fill="#EA596E"/>
<path d="M77.935 32.7099L74.8824 33.9811C73.8325 34.4185 73.3333 35.6253 73.7689 36.6767L74.0902 37.4457C76.2074 37.7231 78.1219 39.0846 78.9986 41.1944C79.8803 43.3064 79.495 45.6228 78.2038 47.3179L79.3135 49.9909C79.753 51.0416 80.9606 51.5388 82.0133 51.1002L85.1223 49.8063L77.935 32.7099ZM87.1577 48.9591L101.586 42.9518L94.3959 25.8541L79.9714 31.863L87.1577 48.9591ZM94.9581 35.7022C96.2941 38.8745 95.5012 42.2294 93.1904 43.1998C90.8756 44.171 87.9214 42.385 86.5906 39.2172C85.2606 36.0474 86.0553 32.6909 88.3662 31.7205C90.6768 30.7535 93.6277 32.5334 94.9581 35.7022ZM107.854 38.1118L106.74 35.4396C104.625 35.1606 102.708 33.8042 101.831 31.6905C100.948 29.5806 101.33 27.258 102.624 25.5627L102.305 24.7891C101.865 23.7429 100.658 23.2457 99.6093 23.6825L96.4327 25.0062L103.624 42.1033L106.744 40.8043C107.794 40.3693 108.291 39.1627 107.854 38.1118Z" fill="#BE1931"/>
<path d="M69.1246 114.469V131.478C69.1246 131.478 69.1246 135.491 65.1107 135.491H37.0138C33 135.491 33 131.478 33 131.478V129.471C33 129.471 49.0132 122.572 69.1246 114.469Z" fill="#E1E8ED"/>
<path d="M45.7521 125.66C45.6126 125.66 45.4741 125.627 45.3487 125.559C45.1189 125.44 44.9553 125.225 44.9011 124.972C44.6884 123.994 44.5459 123.219 44.5459 122.613C44.5459 122.389 44.6312 122.175 44.7847 122.013C46.4174 120.292 48.4865 118.518 49.8602 117.389C48.5477 115.195 45.4821 110.137 44.8048 109.041C44.564 108.651 44.6663 108.14 45.0396 107.873C46.0551 107.149 51.8952 103.231 52.1431 103.065C52.5184 102.812 53.0231 102.89 53.3061 103.241C53.9473 104.035 55.6632 106.871 57.4805 109.873C58.3475 111.306 59.1984 112.711 59.8708 113.79C59.9169 113.863 59.951 113.943 59.9731 114.028C59.9831 114.067 61.0057 117.969 61.0057 118.891C61.0057 119.257 60.7769 119.583 60.4347 119.709C59.0871 120.205 46.2147 125.538 46.0842 125.591C45.9788 125.638 45.8655 125.66 45.7521 125.66Z" fill="#55ACEE"/>
<path d="M44.7906 126.831C44.4504 126.831 44.1273 126.631 43.9868 126.298C43.7992 125.854 44.0069 125.343 44.4504 125.155L51.6834 122.102C52.1299 121.918 52.6387 122.123 52.8253 122.567C53.0119 123.011 52.8042 123.522 52.3607 123.71L45.1278 126.762C45.0184 126.809 44.904 126.831 44.7906 126.831ZM56.9164 121.73C56.5803 121.73 56.2602 121.534 56.1167 121.206C55.925 120.764 56.1277 120.251 56.5682 120.058L61.3758 117.968C61.8163 117.777 62.3301 117.977 62.5238 118.42C62.7154 118.862 62.5127 119.375 62.0722 119.568L57.2646 121.659C57.1502 121.707 57.0328 121.73 56.9164 121.73Z" fill="#226699"/>
<path d="M38.6134 131.133C38.4046 131.133 38.2009 131.119 38.0013 131.091C36.7329 130.91 35.7344 130.157 35.1133 128.916C34.8654 128.42 35.0661 127.817 35.5618 127.569C36.0586 127.322 36.6606 127.522 36.9085 128.018C37.5427 129.288 38.7789 129.473 40.5791 128.572C41.8134 127.955 48.2626 125.258 55.0912 122.403C59.5024 120.559 63.9146 118.713 66.7233 117.51C67.2281 117.291 67.8221 117.527 68.0399 118.037C68.2586 118.546 68.0228 119.136 67.513 119.355C64.7013 120.56 60.2831 122.407 55.8649 124.256C49.3685 126.972 42.6503 129.782 41.4762 130.369C40.4577 130.877 39.4974 131.133 38.6134 131.133Z" fill="#BE1931"/>
<path d="M59.9748 114.028C59.9528 113.944 59.9176 113.864 59.8725 113.791C59.2002 112.712 58.3492 111.307 57.4822 109.874C55.676 106.891 53.9721 104.075 53.3219 103.262C53.3149 103.365 53.3108 103.465 53.3068 103.56C53.2557 104.684 53.1874 106.224 50.2974 108.275C49.4285 108.854 49.6131 109.753 51.34 113.335C52.2432 115.209 53.3399 117.273 53.8377 118.111C54.0223 118.422 54.3534 118.602 54.6996 118.602C54.8 118.602 54.9013 118.586 55.0007 118.555C56.3363 118.136 58.1716 117.415 59.7912 116.779L60.5739 116.473C60.2939 115.248 59.9798 114.051 59.9748 114.028Z" fill="#3B88C3"/>
<path d="M49.7477 113.946C49.4627 113.946 49.1837 113.807 49.0172 113.551C48.7543 113.147 48.8677 112.608 49.271 112.345L51.7777 110.71C52.1821 110.446 52.7199 110.561 52.9839 110.964C53.2468 111.367 53.1324 111.907 52.73 112.17L50.2243 113.805C50.0758 113.9 49.9113 113.946 49.7477 113.946ZM51.7436 117.033C51.3221 117.033 50.9518 116.727 50.8836 116.297C50.8083 115.822 51.1325 115.375 51.6081 115.3L54.5854 114.828C55.064 114.753 55.5066 115.077 55.5828 115.553C55.6571 116.028 55.333 116.474 54.8573 116.55L51.88 117.022C51.8349 117.03 51.7887 117.033 51.7436 117.033ZM52.6086 121.52C52.4701 121.52 52.3296 121.487 52.1991 121.417L50.4622 120.489C50.0377 120.261 49.8771 119.733 50.1039 119.309C50.3307 118.884 50.8565 118.724 51.283 118.95L53.02 119.879C53.4444 120.106 53.605 120.634 53.3782 121.059C53.2207 121.353 52.9206 121.52 52.6086 121.52Z" fill="#226699"/>
<path d="M56.6244 104.921C56.3193 104.921 56.0233 104.762 55.8637 104.478C55.6279 104.058 55.7764 103.526 56.1959 103.29L61.8404 100.112C62.2598 99.8757 62.7916 100.025 63.0275 100.445C63.2633 100.864 63.1148 101.396 62.6953 101.632L57.0508 104.809C56.9154 104.886 56.7699 104.921 56.6244 104.921ZM59.133 108.643C58.828 108.643 58.5319 108.483 58.3724 108.198C58.1366 107.779 58.2851 107.247 58.7045 107.011L62.0491 105.13C62.4685 104.894 62.9994 105.042 63.2362 105.463C63.472 105.882 63.3235 106.414 62.904 106.65L59.5595 108.532C59.424 108.607 59.2775 108.643 59.133 108.643ZM61.1399 112.657C60.8309 112.657 60.5328 112.493 60.3743 112.203C60.1435 111.781 60.298 111.251 60.7205 111.02L62.9361 109.808C63.3566 109.576 63.8884 109.732 64.1192 110.154C64.351 110.577 64.1955 111.106 63.773 111.337L61.5574 112.549C61.4249 112.623 61.2814 112.657 61.1399 112.657Z" fill="#BBDDF5"/>
<path d="M14.0904 70.8769L14.0842 70.8759C14.0842 70.8759 16.6021 88.4857 17.3637 90.8985C18.1396 93.3571 20.5787 94.778 22.8122 94.073C23.7288 93.7837 24.4548 93.1722 24.9541 92.3921L34.8547 76.0194L14.0904 70.8769ZM56.8063 57.395L56.8109 57.3906C56.8109 57.3906 64.858 73.2553 65.6195 75.6681C66.3955 78.1267 65.214 80.6903 62.9805 81.3952C62.0639 81.6845 61.1184 81.6005 60.2618 81.2484L42.7562 73.5255L56.8063 57.395Z" fill="#31373D"/>
<path d="M50.1433 73.1268C56.4711 71.1296 59.9817 64.381 57.9846 58.0532C55.9874 51.7255 49.2388 48.2148 42.911 50.212C36.5833 52.2091 33.0726 58.9578 35.0698 65.2855C37.0669 71.6133 43.8156 75.1239 50.1433 73.1268Z" fill="#14171A"/>
<path d="M28.5764 79.9337C34.9042 77.9365 38.4148 71.1879 36.4177 64.8601C34.4205 58.5324 27.6719 55.0217 21.3441 57.0189C15.0164 59.016 11.5057 65.7647 13.5029 72.0924C15.5 78.4202 22.2487 81.9308 28.5764 79.9337Z" fill="#14171A"/>
<path d="M21.3445 57.0188L42.9114 50.2119L50.0883 72.9515L28.5215 79.7584L21.3445 57.0188Z" fill="#14171A"/>
<path d="M34.5633 84.3435C38.2855 83.1687 40.3506 79.1989 39.1758 75.4767C38.001 71.7545 34.0312 69.6894 30.309 70.8642C26.5868 72.039 24.5217 76.0088 25.6965 79.731C26.8713 83.4532 30.8411 85.5183 34.5633 84.3435Z" fill="#14171A"/>
<path d="M47.773 80.1744C51.4952 78.9996 53.5603 75.0298 52.3855 71.3076C51.2107 67.5854 47.2409 65.5203 43.5187 66.6951C39.7965 67.8699 37.7314 71.8397 38.9062 75.5619C40.081 79.2841 44.0508 81.3492 47.773 80.1744Z" fill="#14171A"/>
<path d="M46.922 77.4784C49.1554 76.7735 50.3944 74.3917 49.6896 72.1583C48.9847 69.925 46.6028 68.686 44.3695 69.3908C42.1361 70.0957 40.8971 72.4776 41.602 74.7109C42.3068 76.9442 44.6887 78.1833 46.922 77.4784Z" fill="#67757F"/>
<path d="M33.7126 81.6476C35.9459 80.9427 37.185 78.5608 36.4801 76.3275C35.7752 74.0942 33.3933 72.8551 31.16 73.56C28.9267 74.2649 27.6876 76.6468 28.3925 78.8801C29.0974 81.1134 31.4793 82.3525 33.7126 81.6476Z" fill="#67757F"/>
<path d="M45.0061 57.977C46.1994 57.6004 46.8615 56.3277 46.4849 55.1343C46.1082 53.941 44.8355 53.2789 43.6422 53.6556C42.4488 54.0322 41.7868 55.3049 42.1634 56.4983C42.54 57.6916 43.8128 58.3537 45.0061 57.977Z" fill="#FFCC4D"/>
<path d="M47.7605 66.7036C48.9538 66.3269 49.6159 65.0542 49.2393 63.8609C48.8626 62.6676 47.5899 62.0055 46.3966 62.3821C45.2032 62.7588 44.5412 64.0315 44.9178 65.2248C45.2944 66.4182 46.5672 67.0802 47.7605 66.7036Z" fill="#77B255"/>
<path d="M42.0203 63.7175C43.2136 63.3409 43.8757 62.0681 43.499 60.8748C43.1224 59.6815 41.8497 59.0194 40.6563 59.396C39.463 59.7727 38.8009 61.0454 39.1776 62.2387C39.5542 63.4321 40.8269 64.0941 42.0203 63.7175Z" fill="#50A5E6"/>
<path d="M50.7468 60.9631C51.9402 60.5865 52.6022 59.3138 52.2256 58.1204C51.849 56.9271 50.5762 56.265 49.3829 56.6416C48.1896 57.0183 47.5275 58.291 47.9041 59.4843C48.2808 60.6777 49.5535 61.3397 50.7468 60.9631Z" fill="#DD2E44"/>
<path d="M25.2496 63.8836L24.3272 60.9613C24.2086 60.5852 23.8078 60.3767 23.4317 60.4954L21.3316 61.1582C20.9556 61.2769 20.7471 61.6777 20.8658 62.0538L21.7881 64.9761L24.0655 66.1619L25.2496 63.8836ZM23.3311 69.8695L24.2534 72.7918C24.3721 73.1679 24.7729 73.3764 25.1489 73.2577L27.249 72.5949C27.6251 72.4762 27.8336 72.0754 27.7149 71.6993L26.7925 68.777L24.5151 67.5912L23.3311 69.8695ZM29.1145 63.4493L26.1922 64.3717L25.0067 66.6504L27.2855 67.8358L30.2078 66.9135C30.5839 66.7948 30.792 66.3927 30.6737 66.018L30.0104 63.9165C29.8917 63.5405 29.4905 63.3306 29.1145 63.4493ZM21.2978 65.9164L18.3742 66.8391C17.9981 66.9578 17.79 67.36 17.9083 67.7347L18.5711 69.8348C18.6898 70.2108 19.0906 70.4193 19.4667 70.3006L22.389 69.3783L23.5744 67.0995L21.2978 65.9164Z" fill="#8899A6"/>
<path d="M158.29 38.8179C156.019 40.0965 154.427 36.2084 154.427 36.2084C154.427 36.2084 155.317 34.8871 154.291 34.0636C155.341 32.5106 154.454 32.0057 154.454 32.0057C151.786 30.2038 148.165 30.9048 146.364 33.5717C146.137 33.9077 145.993 34.1977 145.881 34.4699C145.83 34.5819 145.788 34.6945 145.745 34.8074L145.735 34.8414C145.514 35.448 145.39 36.0737 145.377 36.702C145.269 37.1015 145.089 37.5399 144.72 38.0873C143.415 40.0184 138.901 38.3744 136.29 42.2368C136.263 42.2764 136.254 42.3257 136.234 42.3711C136.145 42.488 136.048 42.5946 135.965 42.72C132.902 47.2527 134.526 53.7035 139.594 57.1266C144.406 60.3794 150.59 59.7216 153.822 55.7614C153.882 55.7131 153.943 55.6657 153.987 55.6001C154.052 55.502 154.1 55.412 154.161 55.3171C154.211 55.2493 154.265 55.1865 154.314 55.1178C155.876 52.8046 156.167 50.3313 155.414 48.0069C155.117 46.8892 154.834 46.0228 155.346 45.2648C155.998 44.2993 158.582 44.6385 159.886 42.7074C161.839 39.8106 159.726 38.0103 158.29 38.8179Z" fill="#BB1A34"/>
<path d="M150.097 38.4462L164.251 17.4993L167.148 19.4576L152.994 40.4056L150.097 38.4462Z" fill="#292F33"/>
<path d="M146.656 51.2489C148.978 52.3154 149.667 54.7888 149.836 56.2733C149.905 56.8867 150.628 57.1858 151.097 56.7853C153.707 54.5517 155.523 51.4307 153.978 46.9056C153.688 46.0892 153.636 44.4587 156.045 43.6495C158.453 42.8391 159.166 41.7407 159.386 41.2399C159.513 40.9531 159.534 40.2237 158.84 40.3318C158.148 40.4397 156.543 41.3059 154.663 39.7919C152.783 38.2778 152.386 37.5879 152.28 37.3175C152.174 37.0471 149.85 33.4029 148.978 35.7439C148.254 37.6896 147.736 41.3368 144.1 42.9642C142.619 43.6259 140.811 44.7938 140.456 45.9962C139.859 48.0157 141.586 49.0123 143.028 49.6328C144.472 50.2521 146.656 51.2489 146.656 51.2489Z" fill="#F5F8FA"/>
<path d="M148.017 39.4447L149.322 37.5125L154.15 40.7742L152.846 42.7052L148.017 39.4447ZM143.888 45.555L145.194 43.6237L150.021 46.8855L148.717 48.8166L143.888 45.555Z" fill="#292F33"/>
<path d="M143.245 49.6003L163.371 19.8717L164.095 20.3619L143.97 50.0903L143.245 49.6003ZM144.431 50.401L164.558 20.6735L165.282 21.1637L145.157 50.8932L144.431 50.401Z" fill="#CCD6DD"/>
<path d="M146.264 50.3645C146.795 50.7234 146.936 51.4511 146.577 51.9824C146.218 52.5136 145.491 52.6545 144.959 52.2955L142.062 50.3386C141.53 49.9797 141.39 49.252 141.749 48.7207L141.75 48.7205C142.109 48.1893 142.836 48.0484 143.368 48.4074L146.264 50.3645Z" fill="#292F33"/>
<path d="M150.435 52.2054C151.066 52.083 151.48 51.4716 151.357 50.8397C151.235 50.2078 150.624 49.7946 149.992 49.917C149.36 50.0393 148.947 50.6507 149.069 51.2826C149.191 51.9146 149.803 52.3277 150.435 52.2054Z" fill="#292F33"/>
<path d="M152.349 53.4077C152.433 53.8414 152.15 54.2606 151.716 54.3446C151.283 54.4285 150.864 54.1452 150.78 53.7116C150.696 53.2779 150.979 52.8586 151.413 52.7747C151.846 52.6908 152.266 52.974 152.349 53.4077Z" fill="#292F33"/>
<path d="M169.914 17.5522C170.481 17.9351 170.631 18.7132 170.247 19.2802L165.925 23.7017C165.541 24.2687 164.764 24.4191 164.197 24.0361L161.104 21.945C160.537 21.5621 160.386 20.784 160.771 20.217L163.26 14.5583C163.644 13.9914 164.421 13.841 164.988 14.2239L169.914 17.5522Z" fill="#BB1A34"/>
<path d="M167.737 24.4871C168.132 24.4107 168.39 24.0286 168.313 23.6336C168.237 23.2386 167.855 22.9804 167.46 23.0569C167.065 23.1333 166.807 23.5155 166.883 23.9104C166.959 24.3054 167.342 24.5636 167.737 24.4871Z" fill="#66757F"/>
<path d="M168.989 23.242C169.384 23.1656 169.642 22.7834 169.565 22.3885C169.489 21.9935 169.107 21.7353 168.712 21.8118C168.317 21.8882 168.059 22.2704 168.135 22.6653C168.212 23.0603 168.594 23.3185 168.989 23.242Z" fill="#66757F"/>
<path d="M170.242 21.9959C170.637 21.9195 170.895 21.5373 170.819 21.1424C170.742 20.7474 170.36 20.4892 169.965 20.5657C169.57 20.6421 169.312 21.0243 169.389 21.4192C169.465 21.8142 169.847 22.0724 170.242 21.9959Z" fill="#66757F"/>
<path d="M160.307 19.2882C160.702 19.2117 160.96 18.8296 160.884 18.4346C160.807 18.0397 160.425 17.7815 160.03 17.8579C159.635 17.9344 159.377 18.3165 159.454 18.7115C159.53 19.1064 159.912 19.3646 160.307 19.2882Z" fill="#66757F"/>
<path d="M160.997 17.6827C161.392 17.6063 161.65 17.2241 161.574 16.8292C161.497 16.4342 161.115 16.176 160.72 16.2524C160.325 16.3289 160.067 16.711 160.144 17.106C160.22 17.5009 160.602 17.7591 160.997 17.6827Z" fill="#66757F"/>
<path d="M161.687 16.0785C162.082 16.002 162.34 15.6199 162.264 15.2249C162.188 14.83 161.805 14.5718 161.41 14.6482C161.015 14.7246 160.757 15.1068 160.834 15.5017C160.91 15.8967 161.292 16.1549 161.687 16.0785Z" fill="#66757F"/>
<path d="M158.976 90.4125L173.436 94.9903L162.754 128.73L148.294 124.152L158.976 90.4125ZM91.4968 69.0492L105.957 73.627L95.275 107.367L80.8152 102.789L91.4968 69.0492ZM110.777 75.153L154.156 88.8865L143.474 122.626L100.095 108.893L110.777 75.153Z" fill="#D1E7FB"/>
<path d="M173.436 94.9911L177.251 82.9413L95.312 57.0001L91.4971 69.05L105.957 73.6278L95.2753 107.367L80.8155 102.789L77.0006 114.839L158.939 140.78L162.754 128.731L148.295 124.153L158.976 90.4132L173.436 94.9911ZM143.475 122.627L100.095 108.893L110.777 75.1538L154.156 88.8873L143.475 122.627Z" fill="#8CC4F4"/>
<path d="M166.847 82.2991L171.667 83.825L169.378 91.0549L164.559 89.529L166.847 82.2991ZM157.208 79.2472L162.028 80.7731L159.739 88.003L154.919 86.4771L157.208 79.2472ZM147.568 76.1953L152.388 77.7212L150.099 84.9511L145.279 83.4252L147.568 76.1953ZM137.928 73.1434L142.748 74.6693L140.459 81.8992L135.639 80.3733L137.928 73.1434ZM128.288 70.0915L133.108 71.6174L130.819 78.8473L125.999 77.3214L128.288 70.0915ZM118.648 67.0396L123.468 68.5655L121.179 75.7954L116.359 74.2695L118.648 67.0396ZM109.008 63.9877L113.828 65.5136L111.539 72.7435L106.719 71.2176L109.008 63.9877ZM99.3684 60.9358L104.188 62.4617L101.899 69.6916L97.0795 68.1657L99.3684 60.9358ZM152.351 128.088L157.171 129.614L154.882 136.844L150.062 135.318L152.351 128.088ZM142.711 125.037L147.531 126.562L145.242 133.792L140.422 132.266L142.711 125.037ZM133.071 121.985L137.891 123.511L135.602 130.74L130.782 129.215L133.071 121.985ZM123.431 118.933L128.251 120.459L125.962 127.689L121.142 126.163L123.431 118.933ZM113.791 115.881L118.611 117.407L116.322 124.637L111.503 123.111L113.791 115.881ZM104.152 112.829L108.972 114.355L106.683 121.585L101.863 120.059L104.152 112.829ZM94.5118 109.777L99.3317 111.303L97.0428 118.533L92.2228 117.007L94.5118 109.777ZM84.8719 106.725L89.6918 108.251L87.4029 115.481L82.583 113.955L84.8719 106.725Z" fill="#E8F3FD"/>
<path d="M148.294 124.153L158.976 90.4134L161.386 91.1764L150.704 124.916L148.294 124.153ZM100.095 108.893L110.777 75.1539L113.187 75.9169L102.505 109.656L100.095 108.893Z" fill="#BADCF8"/>
<path d="M121.364 169.993C121.755 171.862 120.557 173.694 118.688 174.085L96.6953 178.689C94.8267 179.08 92.9946 177.882 92.6035 176.013L89.1178 159.36C88.7266 157.492 92.8986 152.995 94.7671 152.604L112.214 148.952C114.831 148.404 117.17 149.956 117.712 152.547L121.364 169.993Z" fill="#A0041E"/>
<path d="M120.38 173.731C120.771 175.6 119.574 177.432 117.705 177.823L99.0954 181.718C97.2268 182.109 95.3947 180.911 95.0036 179.043L90.7542 158.741C90.0249 155.257 90.0282 155.361 94.2754 154.472L112.039 150.754C113.908 150.363 115.74 151.561 116.131 153.43L120.38 173.731Z" fill="#CCD6DD"/>
<path d="M118.866 174.931C119.159 176.333 118.261 177.706 116.859 178L96.5576 182.249C95.156 182.543 93.7822 181.644 93.4888 180.243L89.2394 159.941C88.946 158.54 89.8443 157.166 91.2459 156.872L111.547 152.623C112.949 152.33 114.323 153.228 114.616 154.63L118.866 174.931Z" fill="#E1E8ED"/>
<path d="M119.043 175.777C119.434 177.645 118.236 179.477 116.367 179.869L98.6035 183.587C96.7349 183.978 94.9028 182.78 94.5117 180.911L90.6164 162.302C90.2253 160.433 91.4232 158.601 93.2918 158.21L111.055 154.492C112.924 154.101 114.756 155.299 115.147 157.167L119.043 175.777Z" fill="#BE1931"/>
<path d="M117.351 176.131C117.742 177.999 116.544 179.832 114.675 180.223L98.6034 183.587C96.7348 183.978 94.9027 182.78 94.5116 180.911L90.9704 163.994C90.5793 162.125 91.7772 160.293 93.6458 159.902L110.001 156.478C111.87 156.087 113.359 157.061 113.75 158.93L117.351 176.131Z" fill="#DD2E44"/>
<path d="M93.2918 158.21C91.8639 158.509 91.4873 156.891 91.959 156.061C92.4962 155.118 93.5352 154.627 95.4917 154.218L96.813 153.941L96.4589 152.249L94.1589 152.731C90.8016 153.434 88.4426 156.135 88.9517 158.567L93.6658 181.089C94.057 182.957 95.8891 184.155 97.7576 183.764L99.4494 183.41L94.1377 158.033L93.2918 158.21Z" fill="#A0041E"/>
<path d="M214.058 131.569C215.496 134.559 217.523 136.566 211.245 139.583L178.763 155.184C171.13 158.851 168.777 162.136 164.035 152.265C161.435 146.853 165.913 148.031 173.563 144.356L206.044 128.756C209.035 127.32 212.623 128.579 214.058 131.569Z" fill="#A0041E"/>
<path d="M215.255 134.061C216.693 137.051 215.433 140.639 212.442 142.075L179.961 157.677C173.194 160.927 167.677 159.846 165.233 154.758C162.633 149.345 167.111 150.524 174.761 146.848L207.242 131.248C210.231 129.811 213.82 131.071 215.255 134.061Z" fill="#DD2E44"/>
<path d="M179.882 161.504C180.621 163.047 182.896 163.492 184.964 162.498C187.031 161.505 188.107 159.452 187.365 157.91C186.626 156.369 184.35 155.923 182.283 156.916C180.215 157.909 179.14 159.963 179.882 161.504Z" fill="#3B88C3"/>
<path d="M186.778 156.683L179.292 160.279L179.882 161.504L187.365 157.91L186.778 156.683Z" fill="#3B88C3"/>
<path d="M179.333 160.362C180.073 161.904 182.348 162.349 184.415 161.355C186.483 160.363 187.558 158.309 186.817 156.767C186.077 155.226 183.802 154.781 181.735 155.773C179.666 156.768 178.592 158.821 179.333 160.362Z" fill="#88C9F9"/>
<path d="M184.406 157.865C184.619 158.447 184.284 159.167 183.537 159.526C182.789 159.885 182.062 159.667 181.699 159.166C178.469 154.723 179.567 153.172 180.315 152.813C181.061 152.454 182.222 151.897 184.406 157.865Z" fill="#808285"/>
<path d="M182.487 157.791C180.596 158.836 178.826 157.347 177.891 155.402C176.955 153.456 177.354 151.807 179.301 150.872C181.247 149.936 182.507 151.026 183.441 152.973C184.376 154.919 184.582 156.632 182.487 157.791Z" fill="#A7A9AC"/>
<path d="M174.8 151.737C175.602 153.41 178.071 153.892 180.313 152.814C182.557 151.737 183.722 149.509 182.919 147.837C182.117 146.164 179.648 145.682 177.406 146.759C175.161 147.837 173.995 150.066 174.8 151.737Z" fill="#3B88C3"/>
<path d="M182.281 146.506L174.16 150.409L174.8 151.736L182.918 147.837L182.281 146.506Z" fill="#3B88C3"/>
<path d="M174.205 150.498C175.008 152.171 177.477 152.654 179.719 151.575C181.963 150.498 183.128 148.27 182.325 146.598C181.523 144.925 179.054 144.444 176.811 145.52C174.567 146.598 173.401 148.825 174.205 150.498Z" fill="#88C9F9"/>
<path d="M179.618 147.897C179.886 148.454 179.497 149.199 178.749 149.558C178.002 149.917 177.18 149.756 176.911 149.199C176.644 148.641 177.032 147.897 177.781 147.539C178.528 147.179 179.349 147.342 179.618 147.897ZM203.143 150.332C203.882 151.875 206.156 152.32 208.223 151.326C210.29 150.333 211.365 148.28 210.624 146.738C209.884 145.196 207.61 144.752 205.543 145.744C203.475 146.739 202.399 148.791 203.143 150.332Z" fill="#3B88C3"/>
<path d="M210.037 145.511L202.552 149.108L203.143 150.332L210.624 146.738L210.037 145.511Z" fill="#3B88C3"/>
<path d="M202.592 149.192C203.333 150.732 205.607 151.177 207.674 150.184C209.74 149.191 210.815 147.138 210.074 145.596C209.334 144.054 207.061 143.61 204.994 144.602C202.926 145.596 201.851 147.65 202.592 149.192Z" fill="#88C9F9"/>
<path d="M207.663 146.694C207.877 147.276 207.543 147.996 206.794 148.355C206.048 148.714 205.322 148.496 204.957 147.996C201.726 143.552 202.824 142.001 203.573 141.642C204.319 141.283 205.482 140.725 207.663 146.694Z" fill="#808285"/>
<path d="M205.745 146.62C203.855 147.665 202.084 146.176 201.149 144.231C200.213 142.285 200.613 140.636 202.56 139.701C204.507 138.766 205.764 139.855 206.699 141.802C207.637 143.747 207.841 145.46 205.745 146.62Z" fill="#A7A9AC"/>
<path d="M198.06 140.566C198.861 142.24 201.329 142.721 203.572 141.644C205.816 140.567 206.981 138.339 206.179 136.666C205.375 134.993 202.907 134.511 200.665 135.588C198.419 136.666 197.254 138.894 198.06 140.566Z" fill="#3B88C3"/>
<path d="M197.423 139.238L205.542 135.335L206.181 136.664L198.062 140.568L197.423 139.238Z" fill="#3B88C3"/>
<path d="M197.464 139.328C198.266 141.001 200.735 141.483 202.978 140.405C205.221 139.327 206.387 137.1 205.583 135.427C204.781 133.755 202.312 133.272 200.07 134.349C197.825 135.427 196.659 137.655 197.464 139.328Z" fill="#88C9F9"/>
<path d="M202.876 136.727C203.145 137.284 202.755 138.028 202.007 138.387C201.26 138.746 200.438 138.585 200.169 138.028C199.901 137.47 200.291 136.726 201.038 136.367C201.787 136.009 202.608 136.17 202.876 136.727Z" fill="#3B88C3"/>
<path d="M213.093 56.8153C214.464 57.8372 212.462 57.7225 211.614 60.2902C210.767 62.8579 207.003 62.1853 207.85 59.6177C208.029 59.0747 208.908 58.1239 209.641 57.3961C209.641 57.3961 208.82 56.6765 209.067 55.7495C209.314 54.8226 213.093 56.8153 213.093 56.8153Z" fill="#FFDC5D"/>
<path d="M212.863 51.9155C214.713 51.6944 216.391 53.0136 216.614 54.8631C216.835 56.7127 215.515 58.3912 213.666 58.6135C211.816 58.8346 210.138 57.5154 209.916 55.666C209.693 53.8153 211.013 52.1366 212.863 51.9155Z" fill="#FFDC5D"/>
<path d="M203.593 55.1726C204.657 55.3068 205.954 55.5148 207.632 53.8705C208.831 52.696 210.035 52.1879 212.754 52.38C215.641 52.5843 217.907 54.3578 216.003 55.2162C215.171 55.5905 214.498 55.3503 213.169 55.4049C211.22 55.4854 210.677 57.2218 208.813 57.4925C205.168 58.0197 202.004 54.9718 203.593 55.1726Z" fill="#FFAC33"/>
<path d="M206.854 69.5391C206.854 69.5391 210.793 71.4082 210.968 72.6047C211.142 73.8012 206.88 78.0894 205.858 79.4605C204.837 80.8317 202.443 81.181 203.291 78.6133C204.138 76.0456 206.854 69.5391 206.854 69.5391Z" fill="#F9CA55"/>
<path d="M206.125 78.2251C206.125 78.2251 204.859 79.3741 203.71 78.1071C202.561 76.8402 202.386 80.4646 202.386 80.4646C202.386 80.4646 205.892 83.0556 208.306 83.1736C210.721 83.2916 209.572 82.0247 208.424 80.7588L206.125 78.2251Z" fill="#A0041E"/>
<path d="M222.261 74.6225C226.886 73.9474 231.184 77.1499 231.859 81.7757C232.534 86.4014 229.331 90.6987 224.706 91.3739C220.08 92.049 215.783 88.8465 215.107 84.2207C214.432 79.595 217.634 75.2979 222.261 74.6225ZM224.356 88.9808C227.66 88.4986 229.948 85.4298 229.466 82.125C228.983 78.8202 225.913 76.5334 222.61 77.0156C219.306 77.4978 217.018 80.5666 217.5 83.8714C217.983 87.1762 221.052 89.4632 224.356 88.9808ZM195.937 78.4647C200.562 77.7897 204.86 80.9921 205.535 85.6179C206.21 90.2436 203.007 94.5411 198.382 95.2161C193.755 95.8914 189.459 92.6887 188.784 88.0629C188.109 83.4372 191.31 79.1401 195.937 78.4647ZM198.033 92.823C201.336 92.3408 203.625 89.272 203.142 85.9672C202.66 82.6624 199.59 80.3756 196.286 80.8578C192.982 81.3402 190.695 84.4088 191.177 87.7136C191.659 91.0184 194.728 93.3054 198.033 92.823Z" fill="#292F33"/>
<path d="M203.964 74.8491C203.867 74.1874 204.368 73.5681 205.085 73.4635L218.048 71.5713C218.763 71.4669 219.422 71.917 219.518 72.5787C219.615 73.2404 219.113 73.86 218.397 73.9644L205.435 75.8563C204.717 75.9611 204.06 75.5108 203.964 74.8491ZM195.963 87.015C195.867 86.3533 196.323 85.7404 196.985 85.6438L210.147 83.7227C210.807 83.6263 211.421 84.0829 211.518 84.7446C211.615 85.4063 211.157 86.0194 210.496 86.1158L197.334 88.0369C196.673 88.1334 196.06 87.6767 195.963 87.015Z" fill="#AAB8C2"/>
<path d="M204.368 71.124L211.39 84.3526C211.702 84.9413 211.478 85.6742 210.888 85.9864C210.762 86.0537 210.63 86.0961 210.496 86.1157C210.005 86.1875 209.499 85.9496 209.253 85.4857L201.827 71.4949L204.368 71.124Z" fill="#AAB8C2"/>
<path d="M197.333 88.037C197.728 87.9794 198.087 87.7265 198.263 87.3354L204.718 72.9512C204.992 72.3417 204.719 71.6264 204.109 71.3524C203.499 71.0786 202.785 71.3515 202.511 71.9609L196.056 86.3452C195.782 86.9546 196.055 87.67 196.665 87.9439C196.883 88.0404 197.113 88.0691 197.333 88.037ZM208.555 81.186L217.45 71.9151C217.912 71.4323 218.677 71.4184 219.16 71.8807C219.642 72.3444 219.657 73.1084 219.194 73.5902L209.648 83.5376C209.455 83.7405 209.209 83.8596 208.952 83.8971L208.95 83.8973L208.555 81.186Z" fill="#AAB8C2"/>
<path d="M223.658 84.1946C223.782 84.1764 223.907 84.1374 224.027 84.0772C224.623 83.7775 224.863 83.0508 224.562 82.4532L219.793 72.9871L223.44 69.3166C223.911 68.8433 223.908 68.0776 223.435 67.6065C222.962 67.1379 222.197 67.1383 221.725 67.6117L216.848 72.5187L222.402 83.5421C222.644 84.0188 223.158 84.2676 223.658 84.1946Z" fill="#AAB8C2"/>
<path d="M198.544 74.4179C198.58 74.4127 198.615 74.4052 198.65 74.3952L205.313 72.5574C205.75 72.4374 206.018 71.9975 205.924 71.5542C205.831 71.1107 205.409 70.8166 204.962 70.882C204.913 70.8891 200.093 71.5707 197.569 70.3736C197.241 70.2175 196.845 70.2874 196.588 70.5486C196.334 70.8117 196.272 71.207 196.437 71.5336L197.657 73.9548C197.823 74.2886 198.183 74.4706 198.544 74.4179ZM216.776 70.5348L222.758 69.6616C223.419 69.5652 223.877 68.9509 223.78 68.2904C223.684 67.6299 223.07 67.1721 222.409 67.2685L216.426 68.1418C215.766 68.2382 215.308 68.8524 215.405 69.5129C215.501 70.1734 216.115 70.6312 216.776 70.5348Z" fill="#292F33"/>
<path d="M202.742 66.4733L208.051 69.3645L204.985 73.478L202.742 66.4733Z" fill="#A0041E"/>
<path d="M205.834 70.91C205.834 70.91 208.751 74.1503 208.925 75.3468C209.1 76.5433 208.427 80.3075 208.951 83.8971C209.475 87.4867 207.082 87.836 206.907 86.6394C206.733 85.4429 204.069 80.4316 205.685 78.2638C206.707 76.8926 202.593 73.827 202.593 73.827L205.834 70.91ZM210.349 65.7259L213.502 64.3075C214.379 66.5698 217.903 69.1472 218.994 68.9879C220.19 68.8132 221.387 68.6386 221.562 69.8351C221.736 71.0316 221.736 71.0316 219.343 71.3809C216.95 71.7302 214.208 69.6865 212.837 68.6646C211.945 68.0004 210.964 66.7909 210.349 65.7259Z" fill="#FFDC5D"/>
<path d="M202.742 66.4734L207.03 70.7355L202.768 75.0237C202.768 75.0237 195.912 69.9143 195.563 67.5212C195.214 65.1282 198.628 63.4077 198.628 63.4077L202.742 66.4734Z" fill="#BE1931"/>
<path d="M202.89 59.1183C206.305 57.3978 209.501 57.6475 211.441 59.0923C212.812 60.1141 212.987 61.3107 213.336 63.7037C213.367 63.9143 213.435 64.1316 213.519 64.349L210.373 65.7663C210.042 65.1926 209.806 64.6466 209.745 64.2278C209.57 63.0313 208.374 63.2059 207.352 64.5771C206.33 65.9483 205.308 67.3194 204.112 67.4941C202.915 67.6687 196.234 63.7559 196.234 63.7559C199.65 62.0352 200.73 60.2059 202.89 59.1183ZM209.125 85.0938C209.125 85.0938 208.103 86.465 206.732 85.4431C205.36 84.4212 205.884 88.0108 205.884 88.0108C205.884 88.0108 209.823 89.8799 212.216 89.5306C214.609 89.1813 213.238 88.1595 211.867 87.1376L209.125 85.0938ZM213.981 51.3906C211.414 50.5433 206.802 52.4384 209.545 54.4822C210.916 55.5041 218.27 55.6527 218.27 55.6527C218.095 54.4562 216.549 52.2378 213.981 51.3906Z" fill="#1889E9"/>
</g>
<defs>
<filter id="filter0_i" x="13.0898" y="23.8481" width="218.91" height="159.145" filterUnits="userSpaceOnUse" color-interpolation-filters="sRGB">
<feFlood flood-opacity="0" result="BackgroundImageFix"/>
<feBlend mode="normal" in="SourceGraphic" in2="BackgroundImageFix" result="shape"/>
<feColorMatrix in="SourceAlpha" type="matrix" values="0 0 0 0 0 0 0 0 0 0 0 0 0 0 0 0 0 0 127 0" result="hardAlpha"/>
<feOffset dx="4.46154" dy="-5.35385"/>
<feComposite in2="hardAlpha" operator="arithmetic" k2="-1" k3="1"/>
<feColorMatrix type="matrix" values="0 0 0 0 0.779167 0 0 0 0 0.894 0 0 0 0 1 0 0 0 1 0"/>
<feBlend mode="normal" in2="shape" result="effect1_innerShadow"/>
</filter>
<filter id="filter1_i" x="11.2202" y="161.075" width="37.399" height="38.1186" filterUnits="userSpaceOnUse" color-interpolation-filters="sRGB">
<feFlood flood-opacity="0" result="BackgroundImageFix"/>
<feBlend mode="normal" in="SourceGraphic" in2="BackgroundImageFix" result="shape"/>
<feColorMatrix in="SourceAlpha" type="matrix" values="0 0 0 0 0 0 0 0 0 0 0 0 0 0 0 0 0 0 127 0" result="hardAlpha"/>
<feOffset dx="1.78462" dy="-2.67692"/>
<feComposite in2="hardAlpha" operator="arithmetic" k2="-1" k3="1"/>
<feColorMatrix type="matrix" values="0 0 0 0 0.779167 0 0 0 0 0.894 0 0 0 0 1 0 0 0 1 0"/>
<feBlend mode="normal" in2="shape" result="effect1_innerShadow"/>
</filter>
<filter id="filter2_i" x="0" y="202.052" width="18.6995" height="18.1063" filterUnits="userSpaceOnUse" color-interpolation-filters="sRGB">
<feFlood flood-opacity="0" result="BackgroundImageFix"/>
<feBlend mode="normal" in="SourceGraphic" in2="BackgroundImageFix" result="shape"/>
<feColorMatrix in="SourceAlpha" type="matrix" values="0 0 0 0 0 0 0 0 0 0 0 0 0 0 0 0 0 0 127 0" result="hardAlpha"/>
<feOffset dx="1.78462" dy="-1.78462"/>
<feComposite in2="hardAlpha" operator="arithmetic" k2="-1" k3="1"/>
<feColorMatrix type="matrix" values="0 0 0 0 0.779167 0 0 0 0 0.894 0 0 0 0 1 0 0 0 1 0"/>
<feBlend mode="normal" in2="shape" result="effect1_innerShadow"/>
</filter>
<clipPath id="clip0">
<rect width="232" height="232" fill="white"/>
</clipPath>
</defs>
</svg>
