<svg width="232" height="232" viewBox="0 0 232 232" fill="none" xmlns="http://www.w3.org/2000/svg">
<g clip-path="url(#clip0)">
<g filter="url(#filter0_i)">
<path d="M106.563 101.841C114.422 121.95 98.3707 147.014 70.7112 157.824C43.0517 168.634 14.2583 161.097 6.39933 140.989C-1.45962 120.881 14.5919 95.8166 42.2514 85.0063C69.9109 74.196 98.7043 81.7333 106.563 101.841Z" fill="#EAF5FF"/>
</g>
<g filter="url(#filter1_i)">
<ellipse cx="80.2598" cy="166.226" rx="9.18635" ry="9.3631" transform="rotate(-37.1844 80.2598 166.226)" fill="#EAF5FF"/>
</g>
<g filter="url(#filter2_i)">
<ellipse cx="97.7557" cy="171.317" rx="4.59317" ry="4.44747" transform="rotate(-21.3473 97.7557 171.317)" fill="#EAF5FF"/>
</g>
<path d="M33.2599 109.582L37.4301 108.675L38.1182 111.84L36.0083 112.299C33.8984 112.758 34.1277 113.813 34.357 114.867L36.2543 123.594C36.6033 125.2 38.1731 125.085 38.1731 125.085L40.8701 124.498L41.5581 127.663L37.388 128.57C35.6136 128.956 33.8621 127.831 33.4763 126.056L30.745 113.493C30.3594 111.719 31.4843 109.968 33.2599 109.582Z" fill="#A3D0F6"/>
<path d="M36.375 108.905L54.3068 105.006L59.0674 126.904C59.3499 128.203 58.5179 129.498 57.2184 129.78L44.012 132.651C42.7125 132.934 41.4181 132.102 41.1356 130.802L36.375 108.905Z" fill="#A3D0F6"/>
<path d="M44.653 129.198C45.2354 129.071 45.6054 128.497 45.4786 127.913L42.9562 116.311C42.8296 115.729 42.2555 115.359 41.6719 115.486C41.0895 115.612 40.7195 116.186 40.8463 116.77L43.3687 128.372C43.4955 128.956 44.0705 129.324 44.653 129.198ZM49.9265 128.051C50.5089 127.925 50.879 127.35 50.7521 126.767L48.2298 115.165C48.1032 114.582 47.5291 114.212 46.9455 114.339C46.3631 114.466 45.993 115.04 46.1199 115.623L48.6422 127.226C48.7703 127.809 49.3441 128.178 49.9265 128.051ZM37.174 112.58L36.375 108.905L54.3068 105.006L55.5596 110.769C55.2422 110.97 54.891 111.131 54.5024 111.215C53.158 111.508 51.8285 110.929 51.095 109.86C50.8668 110.165 50.5369 110.395 50.1377 110.482C49.5942 110.6 49.0567 110.432 48.6762 110.082C48.2998 111.099 47.4357 111.91 46.2969 112.158C45.2525 112.385 44.2221 112.078 43.4682 111.433C43.3378 112.245 42.7303 112.933 41.8798 113.118C41.1178 113.284 40.3698 112.996 39.8926 112.445C39.6075 112.671 39.2739 112.844 38.8935 112.926C37.8515 113.153 37.174 112.58 37.174 112.58Z" fill="#8CC4F4"/>
<path d="M38.3931 102.943L52.1051 99.9622C54.215 99.5035 55.4993 100.329 55.958 102.439L56.6669 105.699C57.0526 107.474 55.9263 109.224 54.1531 109.61C52.8087 109.902 51.4792 109.324 50.746 108.256C50.5175 108.559 50.1879 108.791 49.7886 108.877C49.2452 108.996 48.7077 108.828 48.3272 108.478C47.9505 109.494 47.0864 110.305 45.9476 110.553C44.9033 110.78 43.8728 110.473 43.1189 109.828C42.9885 110.639 42.3811 111.328 41.5305 111.513C40.7981 111.672 40.0846 111.407 39.6061 110.896C39.3802 111.228 39.0354 111.48 38.6113 111.572C37.7371 111.762 36.8753 111.207 36.6855 110.334L35.9163 106.796C35.4576 104.686 36.2832 103.402 38.3931 102.943Z" fill="#D1E7FB"/>
<path d="M66.3418 103.689C66.0394 103.755 65.7118 103.705 65.4313 103.524C64.869 103.163 64.7064 102.415 65.0679 101.853L68.3523 96.7467C68.7141 96.1855 69.4607 96.0232 70.0228 96.3835C70.5849 96.7438 70.7477 97.4928 70.3862 98.0551L67.1018 103.161C66.9217 103.443 66.6442 103.623 66.3418 103.689ZM60.9868 102.754C60.858 102.782 60.7208 102.788 60.5823 102.771C59.9201 102.69 59.4488 102.087 59.5297 101.424L59.9635 97.8986C60.0459 97.2361 60.6474 96.7651 61.3108 96.8461C61.9731 96.9273 62.4443 97.53 62.3634 98.1934L61.9297 101.718C61.8656 102.243 61.4747 102.648 60.9868 102.754ZM69.7268 107.997C69.2401 108.103 68.7181 107.898 68.4415 107.451C68.0903 106.883 68.2673 106.138 68.8344 105.787L71.5544 104.106C72.1236 103.753 72.8676 103.932 73.2185 104.499C73.5697 105.067 73.3926 105.812 72.8256 106.163L70.1055 107.844C69.9844 107.919 69.8567 107.969 69.7268 107.997Z" fill="#8CC4F4"/>
<path d="M71.9304 113.547L67.7603 114.453L68.4483 117.618L70.5582 117.16C72.6681 116.701 72.8975 117.756 73.1268 118.811L75.024 127.537C75.373 129.143 73.8973 129.69 73.8973 129.69L71.2002 130.276L71.8883 133.441L76.0585 132.535C77.8329 132.149 78.9592 130.398 78.5734 128.624L75.8421 116.06C75.4565 114.287 73.706 113.161 71.9304 113.547Z" fill="#A3D0F6"/>
<path d="M68.8154 114.224L50.8835 118.122L55.6441 140.02C55.9267 141.32 57.221 142.152 58.5205 141.869L71.7269 138.998C73.0264 138.715 73.8585 137.421 73.576 136.122L68.8154 114.224Z" fill="#BADCF8"/>
<path d="M59.1615 138.415C58.5791 138.542 58.004 138.173 57.8772 137.59L55.3548 125.988C55.2282 125.405 55.598 124.83 56.1804 124.703C56.7629 124.577 57.3379 124.945 57.4647 125.529L59.9871 137.131C60.1139 137.715 59.7439 138.289 59.1615 138.415ZM69.7098 136.122C69.1274 136.249 68.5524 135.88 68.4255 135.297L65.9032 123.694C65.7766 123.112 66.1452 122.537 66.7288 122.41C67.3112 122.284 67.8862 122.652 68.0131 123.236L70.5354 134.838C70.6623 135.421 70.2922 135.996 69.7098 136.122ZM64.4362 137.269C63.8538 137.395 63.2788 137.027 63.1519 136.443L60.6296 124.841C60.503 124.259 60.8716 123.684 61.4552 123.557C62.0388 123.43 62.6126 123.799 62.7395 124.382L65.2618 135.984C65.3875 136.568 65.0186 137.142 64.4362 137.269Z" fill="#8CC4F4"/>
<path d="M69.6144 117.899L68.8154 114.224L50.8835 118.122L52.1364 123.885C52.5088 123.936 52.8948 123.937 53.2835 123.852C54.6279 123.56 55.5973 122.482 55.8207 121.205C56.1548 121.387 56.5504 121.459 56.9497 121.373C57.4931 121.254 57.9125 120.879 58.1132 120.402C58.8779 121.171 60.0009 121.551 61.1397 121.303C62.1841 121.076 62.9941 120.369 63.4121 119.469C63.8677 120.153 64.7062 120.528 65.5568 120.343C66.3188 120.177 66.8798 119.605 67.0853 118.906C67.4382 118.992 67.8134 119.011 68.1938 118.928C69.2358 118.702 69.6144 117.899 69.6144 117.899Z" fill="#A3D0F6"/>
<path d="M64.5038 109.639L50.7918 112.62C48.6819 113.078 47.8563 114.363 48.315 116.472L49.0239 119.733C49.4096 121.507 51.1611 122.632 52.9343 122.247C54.2787 121.955 55.2481 120.877 55.4718 119.601C55.8056 119.782 56.2014 119.855 56.6007 119.768C57.1441 119.65 57.5635 119.275 57.7642 118.798C58.5287 119.566 59.6517 119.945 60.7905 119.698C61.8348 119.471 62.6449 118.764 63.0629 117.864C63.5184 118.548 64.357 118.922 65.2076 118.737C65.94 118.578 66.4788 118.04 66.702 117.377C67.0444 117.586 67.4639 117.671 67.8868 117.58C68.761 117.389 69.3145 116.527 69.1247 115.654L68.3555 112.116C67.898 110.005 66.6137 109.18 64.5038 109.639Z" fill="#C7E4FF"/>
<path d="M12.3497 98.0781L9.70584 99.7885C9.5189 99.9095 9.43233 100.178 9.51333 100.385L12.3116 107.545C11.9981 107.559 11.6721 107.624 11.3507 107.75C10.1036 108.237 9.40032 109.418 9.77937 110.388C10.1582 111.357 11.4761 111.749 12.7232 111.262C13.9482 110.783 14.6422 109.636 14.3075 108.677L14.3143 108.674L11.5748 101.665L13.3121 100.541C13.4991 100.42 13.5856 100.151 13.5046 99.9439L12.8367 98.2349C12.7557 98.0277 12.5365 97.9567 12.3497 98.0781ZM22.5373 96.1783L19.8939 97.8886C19.7065 98.0097 19.6199 98.2783 19.7009 98.4855L22.4992 105.645C22.1855 105.659 21.8598 105.724 21.5383 105.85C20.2912 106.337 19.5879 107.518 19.967 108.488C20.3459 109.458 21.6638 109.849 22.9108 109.362C24.1358 108.883 24.8299 107.736 24.4951 106.777L24.5019 106.774L21.7624 99.7649L23.4998 98.6409C23.6867 98.5199 23.7733 98.2514 23.6923 98.0441L23.0243 96.3351C22.9433 96.1279 22.7241 96.0569 22.5373 96.1783Z" fill="#F4900C"/>
<path d="M18.1777 101.005L15.5344 102.715C15.3471 102.836 15.2606 103.105 15.3416 103.312L18.1398 110.472C17.8261 110.486 17.5004 110.551 17.1789 110.677C15.9318 111.164 15.2286 112.345 15.6076 113.315C15.9867 114.285 17.3044 114.676 18.5515 114.189C19.7764 113.71 20.4705 112.563 20.1357 111.604L20.1425 111.601L17.403 104.592L19.1404 103.468C19.3273 103.347 19.4139 103.078 19.3329 102.871L18.665 101.162C18.584 100.955 18.3647 100.884 18.1777 101.005Z" fill="#F4900C"/>
<path d="M83.9218 136.064C83.8863 136.145 83.8696 136.232 83.8628 136.323L83.857 136.321L83.1606 151.715L83.1686 151.719C83.1423 151.97 83.4894 152.326 84.0045 152.552C84.5194 152.777 85.0158 152.791 85.1829 152.602L85.1901 152.605L96.0325 141.653L96.0265 141.65C96.0886 141.584 96.1415 141.513 96.177 141.431C96.671 140.303 94.328 138.187 90.9445 136.704C87.56 135.222 84.4163 134.936 83.9218 136.064Z" fill="#DD2E44"/>
<path d="M85.5506 138.128L83.178 151.328L83.1604 151.715L83.1683 151.719C83.1421 151.97 83.4892 152.326 84.0043 152.552C84.1718 152.625 84.3327 152.667 84.4855 152.697L88.6421 139.912L85.5506 138.128Z" fill="#EA596E"/>
<path d="M90.9656 136.649C94.3385 138.128 96.6954 140.187 96.2288 141.251C95.7631 142.315 92.6514 141.98 89.2774 140.503C85.904 139.025 83.5472 136.964 84.0131 135.901C84.4795 134.837 87.5912 135.172 90.9656 136.649Z" fill="#A0041E"/>
<path d="M88.7799 137.829C88.7093 137.953 88.5913 138.049 88.4424 138.089C87.9727 138.217 87.5324 138.208 87.1702 138.064C86.7869 137.912 86.5106 137.614 86.4108 137.246C86.2353 136.601 86.6343 135.791 87.7376 135.491C88.1666 135.374 88.2987 135.17 88.2802 135.104C88.2629 135.039 88.0458 134.929 87.6166 135.045C87.1469 135.173 86.7066 135.164 86.3439 135.02C85.9605 134.868 85.6838 134.57 85.5844 134.203C85.41 133.557 85.8085 132.747 86.911 132.448C87.2237 132.363 87.3579 132.239 87.4093 132.173C87.45 132.12 87.4591 132.08 87.4541 132.061C87.4357 131.996 87.2208 131.885 86.7905 132.002C86.4933 132.082 86.1868 131.908 86.1069 131.61C86.0261 131.313 86.2005 131.007 86.4987 130.926C87.6008 130.626 88.3553 131.123 88.5304 131.769C88.7052 132.415 88.3063 133.225 87.2032 133.525C86.8903 133.61 86.7579 133.733 86.706 133.799C86.6651 133.853 86.6557 133.893 86.6605 133.911C86.6785 133.977 86.8943 134.087 87.3245 133.97C88.4268 133.671 89.1811 134.167 89.3562 134.813C89.5311 135.458 89.1327 136.269 88.0296 136.568C87.7169 136.653 87.5835 136.777 87.5314 136.842C87.4904 136.897 87.4818 136.936 87.4866 136.955C87.5044 137.02 87.7204 137.13 88.1501 137.014C88.4468 136.934 88.754 137.109 88.8338 137.406C88.8748 137.554 88.8508 137.705 88.7799 137.829Z" fill="#AA8DD8"/>
<path d="M96.924 140.181C97.8353 139.491 98.7206 139.672 99.1232 140.206C99.5256 140.739 99.4576 141.64 98.5463 142.329C98.1904 142.597 98.1451 142.835 98.1849 142.89C98.2265 142.944 98.4689 142.965 98.8236 142.697C99.7349 142.008 100.62 142.189 101.023 142.723C101.426 143.256 101.357 144.157 100.445 144.846C100.09 145.114 100.044 145.353 100.086 145.406C100.126 145.46 100.368 145.482 100.724 145.214C100.969 145.029 101.319 145.077 101.504 145.322C101.689 145.569 101.641 145.918 101.395 146.104C100.484 146.792 99.5986 146.612 99.1948 146.078C98.7924 145.545 98.8613 144.645 99.7734 143.955C100.129 143.686 100.175 143.449 100.133 143.395C100.093 143.34 99.8506 143.318 99.4957 143.586C98.5836 144.276 97.6993 144.096 97.2957 143.561C96.8928 143.028 96.9617 142.127 97.8731 141.438C98.2283 141.17 98.2731 140.931 98.233 140.878C98.1914 140.823 97.95 140.802 97.5946 141.07C97.3488 141.256 96.9998 141.206 96.8141 140.961C96.6292 140.716 96.6782 140.367 96.924 140.181Z" fill="#77B255"/>
<path d="M92.3996 140.335C92.247 140.395 92.0702 140.387 91.9175 140.299C91.6507 140.145 91.5599 139.804 91.7132 139.537C91.7909 139.402 93.662 136.226 97.6911 135.281C97.9909 135.21 98.2909 135.396 98.3614 135.696C98.4317 135.995 98.249 136.296 97.9457 136.366C94.3873 137.205 92.6961 140.066 92.6797 140.094C92.6132 140.209 92.5133 140.291 92.3996 140.335Z" fill="#AA8DD8"/>
<path d="M82.6002 141.675C82.5509 141.694 82.4977 141.707 82.4422 141.712C82.1353 141.736 81.8665 141.508 81.8417 141.201C81.6643 139.012 80.9757 135.677 80.0018 135.118C79.8925 135.055 79.7464 135.007 79.5005 135.125C79.0281 135.353 79.4759 136.362 79.4805 136.373C79.6141 136.65 79.4965 136.983 79.2193 137.116C78.9359 137.247 78.6085 137.132 78.4754 136.855C78.1421 136.159 77.8258 134.693 79.018 134.12C79.55 133.864 80.0799 133.877 80.5575 134.151C82.3875 135.202 82.8738 140.133 82.9532 141.111C82.9735 141.362 82.8235 141.588 82.6002 141.675Z" fill="#77B255"/>
<path d="M91.8381 135.072C92.2682 134.904 92.4806 134.419 92.3125 133.989C92.1444 133.558 91.6594 133.346 91.2293 133.514C90.7991 133.682 90.5867 134.167 90.7548 134.597C90.9229 135.027 91.4079 135.24 91.8381 135.072Z" fill="#5C913B"/>
<path d="M81.4627 144.514C82.0362 144.289 82.3194 143.643 82.0953 143.069C81.8711 142.496 81.2245 142.213 80.651 142.437C80.0775 142.661 79.7943 143.307 80.0184 143.881C80.2426 144.454 80.8892 144.738 81.4627 144.514Z" fill="#9266CC"/>
<path d="M97.5019 138.843C97.932 138.675 98.1444 138.19 97.9763 137.76C97.8082 137.33 97.3232 137.118 96.8931 137.286C96.463 137.454 96.2505 137.939 96.4187 138.369C96.5868 138.799 97.0717 139.011 97.5019 138.843Z" fill="#5C913B"/>
<path d="M95.2641 146.9C95.6942 146.732 95.9066 146.247 95.7385 145.817C95.5704 145.387 95.0854 145.175 94.6553 145.343C94.2252 145.511 94.0127 145.996 94.1809 146.426C94.349 146.856 94.834 147.068 95.2641 146.9Z" fill="#5C913B"/>
<path d="M92.1217 131.968C92.6952 131.744 92.9784 131.097 92.7542 130.524C92.5301 129.95 91.8834 129.667 91.3099 129.891C90.7364 130.116 90.4532 130.762 90.6773 131.336C90.9015 131.909 91.5481 132.192 92.1217 131.968Z" fill="#FFCC4D"/>
<path d="M95.2697 133.132C95.6998 132.964 95.9123 132.479 95.7441 132.049C95.576 131.619 95.0911 131.406 94.6609 131.574C94.2308 131.742 94.0184 132.227 94.1865 132.658C94.3546 133.088 94.8396 133.3 95.2697 133.132Z" fill="#FFCC4D"/>
<path d="M94.5239 135.818C94.954 135.649 95.1664 135.165 94.9983 134.734C94.8302 134.304 94.3452 134.092 93.9151 134.26C93.4849 134.428 93.2725 134.913 93.4406 135.343C93.6087 135.773 94.0937 135.986 94.5239 135.818Z" fill="#FFCC4D"/>
<path d="M85.3329 145.994C85.7631 145.825 85.9755 145.34 85.8074 144.91C85.6393 144.48 85.1543 144.268 84.7241 144.436C84.294 144.604 84.0816 145.089 84.2497 145.519C84.4178 145.949 84.9028 146.162 85.3329 145.994Z" fill="#FFCC4D"/>
<g filter="url(#filter3_di)">
<path fill-rule="evenodd" clip-rule="evenodd" d="M222.486 111.122C223.082 109.337 223.555 107.501 223.899 105.618C229.329 75.8829 200.408 45.6936 159.303 38.1878C118.197 30.6821 80.4735 48.7021 75.044 78.4366C69.6145 108.171 98.5353 138.361 139.64 145.866C157.732 149.17 175.168 147.529 189.484 142.121C188.999 148.383 187.247 156.498 182.7 163.39C193.621 158.515 215.476 135.724 222.486 111.122Z" fill="#E8F3FD"/>
</g>
<path d="M165.228 77.0435L139.919 75.0919C139.919 75.0919 128.397 86.9332 127.747 95.3695C127.096 103.806 149.158 120.358 149.158 120.358C149.158 120.358 173.496 107.384 174.147 98.9475C174.797 90.5112 165.228 77.0435 165.228 77.0435Z" fill="#8CC4F4"/>
<path d="M158.1 49.5067C156.315 47.8754 153.202 47.6353 151.187 48.9736L118.265 70.8251C116.25 72.1633 116.063 74.593 117.849 76.2243L147.029 102.863C148.817 104.494 151.928 104.734 153.943 103.396L186.862 81.5461C188.879 80.2081 189.066 77.7784 187.278 76.1469L158.1 49.5067Z" fill="#8CC4F4"/>
<path d="M158.1 49.5067C156.315 47.8754 153.202 47.6353 151.187 48.9736L118.265 70.8251C116.25 72.1633 116.063 74.593 117.849 76.2243L147.029 102.863C148.815 104.494 151.928 104.734 153.943 103.396L186.864 81.5463C188.879 80.2081 189.066 77.7784 187.281 76.1471L158.1 49.5067Z" fill="#BADCF8"/>
<path d="M129.693 97.6411C129.693 97.6411 125.15 101.534 124.987 103.643L124.011 116.298C124.011 116.298 123.686 120.516 127.904 120.841C132.122 121.166 132.447 116.948 132.447 116.948L133.423 104.294C133.586 102.185 129.693 97.6411 129.693 97.6411Z" fill="#D1E7FB"/>
<path d="M129.043 106.077C132.537 106.347 135.588 103.732 135.858 100.238C136.127 96.7436 133.513 93.6923 130.018 93.4228C126.524 93.1534 123.473 95.7677 123.203 99.2622C122.934 102.757 125.548 105.808 129.043 106.077Z" fill="#BADCF8"/>
<path d="M129.37 101.859C128.206 101.77 127.333 100.754 127.423 99.5876L128.067 91.2399C128.082 89.8959 128.793 86.9762 131.314 85.3715L151.628 70.156C152.565 69.4538 153.891 69.6452 154.589 70.5816C155.289 71.516 155.098 72.8422 154.164 73.5424L133.719 88.8497C132.371 89.7132 132.293 91.4384 132.292 91.4553L131.644 99.9131C131.554 101.079 130.536 101.949 129.37 101.859Z" fill="#D1E7FB"/>
<path d="M152.247 80.2857C155.742 80.5552 158.793 77.9408 159.063 74.4464C159.332 70.9519 156.718 67.9007 153.223 67.6312C149.729 67.3618 146.678 69.9761 146.408 73.4706C146.139 76.965 148.753 80.0162 152.247 80.2857Z" fill="#8CC4F4"/>
<path d="M122.321 48.5356C122.351 49.8431 121.315 50.9274 120.008 50.9572L104.619 51.3087C103.311 51.3386 102.227 50.3027 102.197 48.9952L101.931 37.3426C101.901 36.0351 105.273 33.5277 106.581 33.4978L118.788 33.219C120.62 33.1771 122.001 34.5148 122.043 36.3277L122.321 48.5356Z" fill="#C1694F"/>
<path d="M121.191 50.9301C121.221 52.2376 120.185 53.3219 118.878 53.3518L105.856 53.6492C104.548 53.6791 103.464 52.6432 103.434 51.3357L103.11 37.1302C103.054 34.6922 103.043 34.7629 106.015 34.6951L118.445 34.4112C119.752 34.3813 120.837 35.4172 120.867 36.7247L121.191 50.9301Z" fill="#CCD6DD"/>
<path d="M120.021 51.5492C120.043 52.53 119.266 53.3431 118.286 53.3655L104.08 53.6899C103.099 53.7123 102.286 52.9356 102.264 51.9548L101.939 37.7493C101.917 36.7685 102.694 35.9555 103.675 35.9331L117.88 35.6086C118.861 35.5862 119.674 36.363 119.696 37.3437L120.021 51.5492Z" fill="#E1E8ED"/>
<path d="M120.034 52.1409C120.064 53.4484 119.028 54.5327 117.721 54.5625L105.291 54.8464C103.983 54.8763 102.899 53.8404 102.869 52.5329L102.572 39.5113C102.542 38.2038 103.578 37.1195 104.885 37.0896L117.315 36.8057C118.623 36.7758 119.707 37.8117 119.737 39.1192L120.034 52.1409Z" fill="#C1694F"/>
<path d="M118.85 52.168C118.88 53.4755 117.844 54.5598 116.537 54.5896L105.291 54.8465C103.983 54.8763 102.899 53.8405 102.869 52.533L102.599 40.6951C102.569 39.3876 103.605 38.3033 104.912 38.2734L116.357 38.012C117.664 37.9822 118.546 38.8243 118.575 40.1318L118.85 52.168Z" fill="#D99E82"/>
<path d="M104.886 37.0897C103.887 37.1126 103.835 35.9755 104.257 35.4755C104.737 34.9073 105.498 34.7069 106.867 34.6757L107.791 34.6546L107.764 33.4708L106.155 33.5075C103.806 33.5612 101.879 35.0857 101.918 36.7874L102.278 52.5466C102.308 53.8541 103.392 54.89 104.7 54.8601L105.884 54.8331L105.478 37.0762L104.886 37.0897Z" fill="#C1694F"/>
<path d="M116.294 43.9354C116.309 44.5888 115.79 45.1313 115.137 45.1462L109.218 45.2814C108.565 45.2963 108.022 44.7781 108.007 44.1247L107.98 42.9409C107.965 42.2874 108.483 41.745 109.137 41.73L115.056 41.5949C115.709 41.5799 116.252 42.0982 116.267 42.7516L116.294 43.9354Z" fill="#E1E8ED"/>
<path d="M217.984 118.819L194.481 105.716C192.627 104.682 190.286 105.347 189.252 107.201L182.233 119.792C181.199 121.646 181.864 123.987 183.718 125.021L193.301 130.363C193.458 131.107 194.072 131.894 195.002 132.412C195.931 132.93 196.924 133.039 197.638 132.782L207.221 138.124C209.075 139.158 211.416 138.493 212.45 136.638L219.469 124.048C220.503 122.194 219.838 119.852 217.984 118.819Z" fill="#226699"/>
<path d="M198.552 129.99C198.036 130.917 196.864 131.25 195.938 130.733C195.011 130.217 194.678 129.045 195.195 128.119L203.618 113.01C204.135 112.083 205.306 111.75 206.233 112.267C207.159 112.784 207.492 113.955 206.976 114.882L198.552 129.99Z" fill="#292F33"/>
<path d="M197.341 128.215C196.825 129.142 195.653 129.474 194.727 128.958L184.654 123.342C183.727 122.826 183.395 121.654 183.911 120.728L192.335 105.619C192.851 104.692 194.023 104.36 194.949 104.876L205.022 110.492C205.948 111.008 206.281 112.18 205.764 113.106L197.341 128.215Z" fill="#99AAB5"/>
<path d="M197.342 128.215C197.438 126.071 195.208 124.825 194.92 124.665C193.241 123.729 189.787 124.004 187.269 122.6C186.43 122.132 186.01 120.912 186.526 119.985L194.014 106.555C194.53 105.629 195.789 105.344 196.628 105.812C199.36 107.336 202.6 106.941 204.279 107.877C206.797 109.281 206.749 111.341 206.233 112.267L197.342 128.215Z" fill="#E1E8ED"/>
<path d="M210.771 135.702C210.254 136.629 209.083 136.962 208.156 136.445L198.084 130.83C197.157 130.313 196.825 129.142 197.341 128.215L205.765 113.106C206.281 112.18 207.453 111.847 208.379 112.364L218.452 117.979C219.378 118.496 219.711 119.667 219.194 120.594L210.771 135.702Z" fill="#99AAB5"/>
<path d="M197.341 128.215C199.115 127.006 201.347 128.248 201.635 128.408C203.313 129.344 204.896 132.427 207.414 133.831C208.253 134.299 209.512 134.015 210.028 133.088L217.516 119.658C218.032 118.731 217.612 117.511 216.773 117.043C214.04 115.52 212.673 112.557 210.994 111.621C208.476 110.217 206.749 111.341 206.233 112.267L197.341 128.215Z" fill="#CCD6DD"/>
</g>
<defs>
<filter id="filter0_i" x="-7.83057" y="65.4325" width="128.624" height="111.965" filterUnits="userSpaceOnUse" color-interpolation-filters="sRGB">
<feFlood flood-opacity="0" result="BackgroundImageFix"/>
<feBlend mode="normal" in="SourceGraphic" in2="BackgroundImageFix" result="shape"/>
<feColorMatrix in="SourceAlpha" type="matrix" values="0 0 0 0 0 0 0 0 0 0 0 0 0 0 0 0 0 0 127 0" result="hardAlpha"/>
<feOffset dx="3.91525" dy="-4.69831"/>
<feComposite in2="hardAlpha" operator="arithmetic" k2="-1" k3="1"/>
<feColorMatrix type="matrix" values="0 0 0 0 0.779167 0 0 0 0 0.894 0 0 0 0 1 0 0 0 1 0"/>
<feBlend mode="normal" in2="shape" result="effect1_innerShadow"/>
</filter>
<filter id="filter1_i" x="71.0081" y="156.926" width="18.5035" height="18.599" filterUnits="userSpaceOnUse" color-interpolation-filters="sRGB">
<feFlood flood-opacity="0" result="BackgroundImageFix"/>
<feBlend mode="normal" in="SourceGraphic" in2="BackgroundImageFix" result="shape"/>
<feColorMatrix in="SourceAlpha" type="matrix" values="0 0 0 0 0 0 0 0 0 0 0 0 0 0 0 0 0 0 127 0" result="hardAlpha"/>
<feOffset dx="1.5661" dy="-2.34915"/>
<feComposite in2="hardAlpha" operator="arithmetic" k2="-1" k3="1"/>
<feColorMatrix type="matrix" values="0 0 0 0 0.779167 0 0 0 0 0.894 0 0 0 0 1 0 0 0 1 0"/>
<feBlend mode="normal" in2="shape" result="effect1_innerShadow"/>
</filter>
<filter id="filter2_i" x="93.1802" y="166.848" width="9.15074" height="8.93647" filterUnits="userSpaceOnUse" color-interpolation-filters="sRGB">
<feFlood flood-opacity="0" result="BackgroundImageFix"/>
<feBlend mode="normal" in="SourceGraphic" in2="BackgroundImageFix" result="shape"/>
<feColorMatrix in="SourceAlpha" type="matrix" values="0 0 0 0 0 0 0 0 0 0 0 0 0 0 0 0 0 0 127 0" result="hardAlpha"/>
<feOffset dx="1.5661" dy="-1.5661"/>
<feComposite in2="hardAlpha" operator="arithmetic" k2="-1" k3="1"/>
<feColorMatrix type="matrix" values="0 0 0 0 0.779167 0 0 0 0 0.894 0 0 0 0 1 0 0 0 1 0"/>
<feBlend mode="normal" in2="shape" result="effect1_innerShadow"/>
</filter>
<filter id="filter3_di" x="54.1092" y="18.333" width="189.018" height="163.002" filterUnits="userSpaceOnUse" color-interpolation-filters="sRGB">
<feFlood flood-opacity="0" result="BackgroundImageFix"/>
<feColorMatrix in="SourceAlpha" type="matrix" values="0 0 0 0 0 0 0 0 0 0 0 0 0 0 0 0 0 0 127 0" result="hardAlpha"/>
<feOffset dy="3.1322"/>
<feGaussianBlur stdDeviation="4.69831"/>
<feColorMatrix type="matrix" values="0 0 0 0 0.380392 0 0 0 0 0.47451 0 0 0 0 0.545098 0 0 0 0.1 0"/>
<feBlend mode="normal" in2="BackgroundImageFix" result="effect1_dropShadow"/>
<feBlend mode="normal" in="SourceGraphic" in2="effect1_dropShadow" result="shape"/>
<feColorMatrix in="SourceAlpha" type="matrix" values="0 0 0 0 0 0 0 0 0 0 0 0 0 0 0 0 0 0 127 0" result="hardAlpha"/>
<feOffset dx="3.91525" dy="-4.69831"/>
<feComposite in2="hardAlpha" operator="arithmetic" k2="-1" k3="1"/>
<feColorMatrix type="matrix" values="0 0 0 0 0.779167 0 0 0 0 0.894 0 0 0 0 1 0 0 0 1 0"/>
<feBlend mode="normal" in2="shape" result="effect2_innerShadow"/>
</filter>
<clipPath id="clip0">
<rect width="232" height="177" fill="white" transform="translate(0 25)"/>
</clipPath>
</defs>
</svg>
