<svg width="25" height="25" viewBox="0 0 25 25" fill="none" xmlns="http://www.w3.org/2000/svg">
<path d="M17.2213 7.77875C16.9292 7.48673 16.4558 7.48673 16.1638 7.77875L12.5 11.4425L8.83625 7.77875C8.54423 7.48673 8.07077 7.48673 7.77875 7.77875C7.48673 8.07077 7.48673 8.54423 7.77875 8.83625L11.4425 12.5L7.77875 16.1638C7.48673 16.4558 7.48673 16.9292 7.77875 17.2213C8.07077 17.5133 8.54423 17.5133 8.83625 17.2213L12.5 13.5575L16.1638 17.2213C16.4558 17.5133 16.9292 17.5133 17.2213 17.2213C17.5133 16.9292 17.5133 16.4558 17.2213 16.1638L13.5575 12.5L17.2213 8.83625C17.5133 8.54423 17.5133 8.07077 17.2213 7.77875Z" fill="white"/>
<circle cx="12.5" cy="12.5" r="9.75" stroke="white" stroke-width="1.5"/>
</svg>
